<svg id="Lag_1" data-name="Lag 1" xmlns="http://www.w3.org/2000/svg" viewBox="0 0 300 300.02"><defs><style>.cls-1{fill:#40b4e8;}.cls-2{fill:#70b62c;}.cls-3{fill:#303031;opacity:0.11;}.cls-4{fill:#7e7f80;}.cls-5,.cls-6{opacity:0.46;}.cls-6{font-size:15.71px;fill:#1d1d1b;stroke:#000;stroke-miterlimit:10;font-family:AcmeFont;}.cls-7{fill:#0d7f36;}.cls-8{fill:#12632e;opacity:0.51;}.cls-9{fill:#2e7339;}.cls-10{fill:#24843c;}.cls-11{fill:#018c38;}.cls-12{fill:#1e7068;}.cls-13{fill:#03998e;}.cls-14{fill:#edefef;}.cls-15{fill:#fff;}.cls-16{fill:#ffdb13;}.cls-17{fill:#16251b;}.cls-18{fill:#163659;}.cls-19{fill:#e52320;}.cls-20{fill:#428c34;}.cls-21{fill:#891812;}</style></defs><circle class="cls-1" cx="150" cy="150" r="150"/><path class="cls-2" d="M22.22,228l257-1.3a150.17,150.17,0,0,1-88.54,67.74C145.64,307,92,298,53.52,265.61A141.46,141.46,0,0,1,22.22,228Z" transform="translate(0 0)"/><path class="cls-3" d="M227.26,278.72a149.83,149.83,0,0,1-40.66,16.76s-16.82,4.24-32.9,4.52c-4,.07-8.22-.07-8.22-.07-3.83-.12-7.15-.36-9.82-.6l-41.9-51.21,66.72-54Z" transform="translate(0 0)"/><path class="cls-4" d="M199.5,243.76h-99v-144a53.66,53.66,0,0,0,22.3-9.64c5.37-4,8.47-8,15.15-10.61a31.28,31.28,0,0,1,14.3-2,37.52,37.52,0,0,1,16.43,4.82c7.29,4.18,9.61,8.86,17.53,13.08a39.59,39.59,0,0,0,13.29,4.3Z" transform="translate(0 0)"/><text class="cls-5"/><text class="cls-6" transform="translate(109.9 142.65) scale(0.95 1)">Dødelighed</text><text class="cls-6" transform="translate(125.35 120.52) scale(0.95 1)">COVID</text><ellipse class="cls-7" cx="150.01" cy="176.67" rx="14.6" ry="15.29"/><path class="cls-8" d="M164.64,176.67a16.16,16.16,0,0,1-2.31,8.22A14.64,14.64,0,0,1,150,192a14.92,14.92,0,0,1-11.45-5.76,16.23,16.23,0,0,1-3.15-9.53,12.23,12.23,0,0,1,6.59-.81c4.2.72,5.71,3.61,8.83,4.8C153.46,181.65,157.69,181.67,164.64,176.67Z" transform="translate(0 0)"/><path class="cls-9" d="M152.85,156.92c0-.54-.92-1-2-1s-2,.44-2,1,.5.74,1.22.9l.18,6.16h1.39l.09-6.17C152.35,157.66,152.85,157.32,152.85,156.92Z" transform="translate(0 0)"/><path class="cls-10" d="M159.91,162.53c.24-.34-.14-1.07-.85-1.62s-1.49-.73-1.73-.39,0,.72.37,1.17l-2.65,4,.88.68,2.82-3.86C159.27,162.76,159.73,162.79,159.91,162.53Z" transform="translate(0 0)"/><path class="cls-9" d="M166.39,166.81c.41-.33.17-1.36-.54-2.28s-1.6-1.41-2-1.07-.25.88.09,1.56l-4.49,4,.86,1.14,4.66-3.76C165.53,166.87,166.1,167.06,166.39,166.81Z" transform="translate(0 0)"/><path class="cls-10" d="M167.36,173.54c.37-.19.35-1-.05-1.85s-1-1.36-1.36-1.18-.33.63-.19,1.22l-4.1,2.26.48,1,4.2-2.06C166.69,173.43,167.09,173.68,167.36,173.54Z" transform="translate(0 0)"/><path class="cls-9" d="M168.25,182.36c.51,0,1-.86,1.13-2s-.22-2.17-.74-2.22-.76.45-1,1.18l-5.87-.4-.14,1.44,5.85.69C167.59,181.77,167.87,182.32,168.25,182.36Z" transform="translate(0 0)"/><path class="cls-10" d="M163.38,188.78c.3.29,1,0,1.63-.73s.84-1.47.54-1.76-.68-.09-1.14.27l-3.52-3.16-.74.84,3.38,3.33C163.23,188.08,163.16,188.57,163.38,188.78Z" transform="translate(0 0)"/><path class="cls-9" d="M157.85,194.34c.19.5,1.19.56,2.24.13s1.75-1.2,1.56-1.7-.72-.5-1.45-.37l-2.32-5.66-1.29.53,2.07,5.77C158.05,193.46,157.71,194,157.85,194.34Z" transform="translate(0 0)"/><path class="cls-10" d="M151.24,194.7c0,.43.72.77,1.61.77s1.61-.34,1.61-.77-.4-.59-1-.7l-.15-4.86h-1.09l-.07,4.86C151.63,194.12,151.24,194.39,151.24,194.7Z" transform="translate(0 0)"/><path class="cls-9" d="M142.25,193.66c-.23.48.4,1.31,1.4,1.84s2,.58,2.25.1-.13-.9-.7-1.38l2.51-5.58-1.24-.65-2.75,5.45C143,193.23,142.43,193.3,142.25,193.66Z" transform="translate(0 0)"/><path class="cls-10" d="M137.74,189.7c-.27.32.06,1.08.73,1.69s1.43.85,1.7.53.07-.71-.28-1.19l2.94-3.76-.83-.75-3.1,3.61C138.4,189.53,137.94,189.47,137.74,189.7Z" transform="translate(0 0)"/><path class="cls-9" d="M133,184.08c-.47.23-.45,1.29,0,2.35s1.26,1.74,1.73,1.51.42-.8.24-1.54l5.23-2.84-.6-1.31-5.35,2.58C133.85,184.23,133.34,183.91,133,184.08Z" transform="translate(0 0)"/><path class="cls-10" d="M132.6,178.1c-.41.05-.64.84-.53,1.77s.52,1.63.93,1.57.5-.48.55-1.08l4.58-.75-.14-1.14-4.61.53C133.2,178.43,132.89,178.06,132.6,178.1Z" transform="translate(0 0)"/><path class="cls-9" d="M132.07,170c-.5-.12-1.11.72-1.36,1.88s0,2.18.46,2.3.81-.35,1.11-1.05l5.77,1.18.31-1.42-5.72-1.45C132.65,170.7,132.45,170.12,132.07,170Z" transform="translate(0 0)"/><path class="cls-10" d="M136.72,164.71c-.34-.24-1,.2-1.51,1s-.62,1.59-.28,1.83.68,0,1.09-.45l3.93,2.58.61-.95-3.81-2.76C137,165.37,137,164.88,136.72,164.71Z" transform="translate(0 0)"/><path class="cls-9" d="M140.26,159.3c-.36-.39-1.31,0-2.13.77s-1.19,1.79-.84,2.19.86.17,1.48-.24l4.18,4.34,1-1-4-4.54C140.38,160.2,140.52,159.59,140.26,159.3Z" transform="translate(0 0)"/><path class="cls-10" d="M146.92,159c-.11-.41-.89-.54-1.75-.29s-1.46.78-1.35,1.19.53.46,1.11.41L146.3,165l1.06-.31-1.18-4.7C146.69,159.71,147,159.34,146.92,159Z" transform="translate(0 0)"/><ellipse class="cls-10" cx="146.73" cy="184.19" rx="1.77" ry="0.8"/><ellipse class="cls-10" cx="156.02" cy="183.83" rx="0.79" ry="1.77" transform="matrix(0.18, -0.98, 0.98, 0.18, -52.54, 304.82)"/><ellipse class="cls-10" cx="150.98" cy="177.81" rx="1.77" ry="0.79" transform="translate(-50.68 60.57) rotate(-19.49)"/><ellipse class="cls-10" cx="143.21" cy="177.81" rx="0.79" ry="1.77" transform="translate(-57.16 287.27) rotate(-79.8)"/><ellipse class="cls-10" cx="149.79" cy="172.75" rx="1.77" ry="0.8"/><ellipse class="cls-10" cx="156.2" cy="172.25" rx="0.79" ry="1.77" transform="translate(-40.99 295.48) rotate(-79.8)"/><ellipse class="cls-10" cx="150.8" cy="167.31" rx="1.77" ry="0.79" transform="translate(-47.19 59.91) rotate(-19.49)"/><ellipse class="cls-10" cx="142.83" cy="170.34" rx="0.79" ry="1.77" transform="translate(-50.12 280.74) rotate(-79.8)"/><path class="cls-11" d="M117.36,242.28l-1.9-.68q2-5.11,4-10.46,3.77-10.26,6.78-20.06l1.91.68c-1.92,4.44-3.79,9.15-5.57,14.13C120.55,231.56,118.83,237,117.36,242.28Z" transform="translate(0 0)"/><path class="cls-11" d="M115.27,242l1.9-.68q-2-5.11-4-10.46-3.77-10.26-6.78-20.06l-1.91.68c1.92,4.44,3.79,9.15,5.57,14.13C112.08,231.3,113.8,236.78,115.27,242Z" transform="translate(0 0)"/><path class="cls-12" d="M103.53,193.07a28.59,28.59,0,0,0,2.58,3.49c3.94,4.48,6.71,4.33,7.84,7.49a7.45,7.45,0,0,1,0,4.54c-.13.49-1,3.48-3.45,4.58-1.56.68-2.28,0-3.73.28l-7.06-27.72A39,39,0,0,0,103.53,193.07Z" transform="translate(0 0)"/><path class="cls-13" d="M95.43,201.84c1.17-4.08,2.89-4.67,4-8.28a16.26,16.26,0,0,0,.24-8.11c0,.09.07.19.11.28l7.06,27.72a4.44,4.44,0,0,0-.89.3c-1.6.71-2,1.7-3.44,1.83a4.5,4.5,0,0,1-2.42-.58,10.64,10.64,0,0,1-4.84-5.31C94.07,206.61,94.87,203.8,95.43,201.84Z" transform="translate(0 0)"/><path class="cls-12" d="M129.1,193.33a29.38,29.38,0,0,1-2.58,3.49c-3.94,4.48-6.71,4.33-7.84,7.48a7.44,7.44,0,0,0-.05,4.54c.13.49,1,3.49,3.45,4.58,1.56.69,2.28,0,3.73.29L132.87,186A39,39,0,0,1,129.1,193.33Z" transform="translate(0 0)"/><path class="cls-13" d="M137.2,202.1c-1.17-4.08-2.89-4.68-4-8.28a16.26,16.26,0,0,1-.24-8.11c0,.09-.07.19-.11.28l-7.06,27.72a4.44,4.44,0,0,1,.89.3c1.6.7,2,1.69,3.44,1.83a4.5,4.5,0,0,0,2.42-.58A10.64,10.64,0,0,0,137.4,210C138.56,206.86,137.76,204.06,137.2,202.1Z" transform="translate(0 0)"/><path class="cls-11" d="M117.48,241.82h-2q.21-5.5.29-11.2c.09-7.28,0-14.34-.29-21.17h2c-.32,4.83-.52,9.9-.54,15.19C116.91,230.66,117.11,236.4,117.48,241.82Z" transform="translate(0 0)"/><path class="cls-14" d="M115.26,190.11a18.29,18.29,0,0,0-2.7,4.06c-2.23,4.56-3.37,11.81.08,14.81a6.46,6.46,0,0,0,3.58,1.43,6.34,6.34,0,0,0,4.7-1.59c3.08-3,1.12-10.15-1.67-14.42A17.82,17.82,0,0,0,115.26,190.11Z" transform="translate(0 0)"/><path class="cls-15" d="M115.8,195.38a10.5,10.5,0,0,0-1.49,2.24c-.21.44-2,4.41,0,8.15a8.3,8.3,0,0,0,2.38,2.69,7.51,7.51,0,0,0,2.18-2.78c1.67-3.74-.63-7.49-.92-7.93A9.94,9.94,0,0,0,115.8,195.38Z" transform="translate(0 0)"/><path class="cls-16" d="M116.3,197.12c-.09.44-.24,1.21-.37,2.28a36.23,36.23,0,0,0,0,8.29,15.79,15.79,0,0,0,.6,2.73,15.23,15.23,0,0,0,.55-2.82,33.66,33.66,0,0,0-.23-8.07A16.68,16.68,0,0,0,116.3,197.12Z" transform="translate(0 0)"/><path class="cls-11" d="M120.43,242.27l-1.72-1.06q3.08-4.58,6.14-9.38,5.86-9.21,10.89-18.15l1.72,1.07c-2.81,3.93-5.65,8.14-8.45,12.62C125.82,232.48,123,237.47,120.43,242.27Z" transform="translate(0 0)"/><path class="cls-14" d="M145.84,197.12a19.23,19.23,0,0,0-4,2.33c-3.89,3-8.48,8.64-7.73,12.63a4.55,4.55,0,0,0,1.66,2.71,4.42,4.42,0,0,0,4,.61c3.67-1.29,6.09-8.17,6.45-13A16.92,16.92,0,0,0,145.84,197.12Z" transform="translate(0 0)"/><path class="cls-15" d="M143.3,201.76A10.71,10.71,0,0,0,141,203a10.46,10.46,0,0,0-4.25,6.95,8,8,0,0,0,.39,3.41,7.43,7.43,0,0,0,3.11-1.34c3.24-2.4,3.46-6.66,3.48-7.18A9.69,9.69,0,0,0,143.3,201.76Z" transform="translate(0 0)"/><path class="cls-16" d="M142.76,203.48c-.3.32-.82.9-1.48,1.75a41.38,41.38,0,0,0-4.35,7.06,16.26,16.26,0,0,0-1,2.6,17.85,17.85,0,0,0,1.91-2.14,37.06,37.06,0,0,0,4.06-7A18.8,18.8,0,0,0,142.76,203.48Z" transform="translate(0 0)"/><path class="cls-11" d="M111.66,242.28l1.73-1.07q-3.09-4.56-6.15-9.37-5.85-9.22-10.88-18.16l-1.72,1.07c2.81,3.93,5.64,8.14,8.44,12.63C106.27,232.48,109.12,237.47,111.66,242.28Z" transform="translate(0 0)"/><path class="cls-14" d="M85.73,197.19a18.82,18.82,0,0,1,4.07,2.26c4,2.89,8.61,8.56,7.73,12.63a5,5,0,0,1-1.8,2.8,4.81,4.81,0,0,1-4.19.71c-3.79-1.22-6.13-8.14-6.39-13A17,17,0,0,1,85.73,197.19Z" transform="translate(0 0)"/><path class="cls-15" d="M88.31,201.79A10.35,10.35,0,0,1,90.7,203a9.83,9.83,0,0,1,4.25,7,8,8,0,0,1-.51,3.48,7.35,7.35,0,0,1-3.23-1.26c-3.33-2.35-3.43-6.69-3.43-7.21A9.8,9.8,0,0,1,88.31,201.79Z" transform="translate(0 0)"/><path class="cls-16" d="M88.82,203.53a22.45,22.45,0,0,1,1.51,1.74,38.64,38.64,0,0,1,4.35,7.06,15.61,15.61,0,0,1,.95,2.62,16.67,16.67,0,0,1-1.93-2.12,35,35,0,0,1-4.06-7A19,19,0,0,1,88.82,203.53Z" transform="translate(0 0)"/><path class="cls-17" d="M135.52,258.74H95.39c-5.44-20.05-3.35-26.89,0-29.14,3.83-2.58,8.11,1.63,20.14,1.62s16.19-4.18,20-1.62C138.87,231.85,141,238.69,135.52,258.74Z" transform="translate(0 0)"/><path class="cls-18" d="M181.27,224.71" transform="translate(0 0)"/><path class="cls-19" d="M186,237.35a1.9,1.9,0,0,1-.56.41c-.79.36-10.68-3.07-10.14-6.52.08-.56.5-1.47.07-1.92s-.92,0-1.21-.26c-.85-.71.81-6.38,5.16-8.39a8.77,8.77,0,0,1,4.92-.63.62.62,0,0,1,.62.78,1,1,0,0,0-.07.66c.18.67,1.18.85,1.77,1.08,2.67,1.05,3.62,5.72,4.6,5.46a.93.93,0,0,1,.56-.09c.3.09.44.44.49.56.26.65-.06,2.87-2,4.62-1.19,1.08-3.72,2.66-3.81,3.28a2.22,2.22,0,0,1-.2.64A1.38,1.38,0,0,1,186,237.35Z" transform="translate(0 0)"/><rect class="cls-20" x="162.74" y="223.36" width="1.54" height="31.16" transform="translate(312.17 -9.52) rotate(65.28)"/><path class="cls-21" d="M184.21,220c.1.34-2.73.76-5.86,3.27-3.38,2.71-4.43,5.72-4.77,5.54s.34-4.26,3.36-6.76S184.09,219.64,184.21,220Z" transform="translate(0 0)"/><path class="cls-21" d="M190.63,230.08c-.38.19-.35-2.59-2.52-5.15-2.34-2.77-5.41-3.09-5.16-3.48s4.54-.71,6.72,1.75S191.08,229.86,190.63,230.08Z" transform="translate(0 0)"/><path class="cls-21" d="M183.94,236.42c-.2-.37,2.57-.45,5.05-2.72,2.67-2.46,2.87-5.53,3.27-5.3s.89,4.51-1.48,6.79S184.18,236.86,183.94,236.42Z" transform="translate(0 0)"/><path class="cls-21" d="M177,225.54c.64-.25-.33,3.73,2.1,7.46,2.62,4,7.13,4.59,6.63,5.14s-7.08.89-9.56-2.7S176.22,225.84,177,225.54Z" transform="translate(0 0)"/><path class="cls-21" d="M185.06,223.15c.17.3-2,.44-3.93,2.31-2.06,2-2.14,4.47-2.46,4.3s-.83-3.56,1-5.43S184.86,222.81,185.06,223.15Z" transform="translate(0 0)"/><path class="cls-21" d="M179.8,231.5c0-.45,2.24.95,5,.19,3-.82,4.23-3.52,4.47-3.1s-.83,4.59-3.53,5.41S179.84,232,179.8,231.5Z" transform="translate(0 0)"/><path class="cls-21" d="M187.8,226.32c0,.21-1.28-.57-3.1-.33s-3,1.51-3.14,1.29a3.49,3.49,0,0,1,6.24-1Z" transform="translate(0 0)"/><circle class="cls-21" cx="184.65" cy="228.52" r="1.53"/><path class="cls-19" d="M184.71,220.27" transform="translate(0 0)"/><path class="cls-20" d="M178.08,247.71c-.63.48-1.93-.27-3.41-1.12a11.23,11.23,0,0,1-3.73-2.85,10,10,0,0,1-1.56-7.3,9.93,9.93,0,0,1,6.64,3.32,10.3,10.3,0,0,1,1.6,3.3C178,244.28,179,247,178.08,247.71Z" transform="translate(0 0)"/><path class="cls-20" d="M162.16,224.84c.79,0,1.43,1.33,2.16,2.88a11.1,11.1,0,0,1,1.42,4.48c.13,3.15-1.8,5.66-2.9,6.87-1.3-1.18-3.37-3.47-3.54-6.52a10.18,10.18,0,0,1,.58-3.62C160.24,227.68,161,224.89,162.16,224.84Z" transform="translate(0 0)"/><path class="cls-20" d="M165.83,253c-.63.48-1.94-.27-3.42-1.12a11.12,11.12,0,0,1-3.73-2.86c-1.91-2.51-1.76-5.67-1.55-7.29a10,10,0,0,1,6.63,3.31,10.24,10.24,0,0,1,1.6,3.31C165.78,249.54,166.72,252.3,165.83,253Z" transform="translate(0 0)"/><path class="cls-18" d="M189.45,236.88" transform="translate(0 0)"/><path class="cls-19" d="M189.36,250.36a1.83,1.83,0,0,1-.67.19c-.87.06-8.9-6.66-7.17-9.7.28-.49,1-1.2.74-1.76s-.84-.34-1-.67c-.55-1,3-5.69,7.8-6a8.7,8.7,0,0,1,4.82,1.15.63.63,0,0,1,.39.39.66.66,0,0,1-.09.57,1.07,1.07,0,0,0-.3.59c-.07.69.8,1.21,1.28,1.64,2.12,1.92,1.35,6.62,2.36,6.74a.87.87,0,0,1,.56.1.94.94,0,0,1,.26.7c0,.71-1.08,2.66-3.51,3.62-1.49.58-4.42,1.16-4.72,1.71a2,2,0,0,1-.41.53A1.52,1.52,0,0,1,189.36,250.36Z" transform="translate(0 0)"/><rect class="cls-20" x="167.02" y="228.31" width="1.54" height="31.16" transform="translate(399.58 59.73) rotate(86.06)"/><path class="cls-21" d="M193.85,233.55c0,.35-2.82-.26-6.64,1-4.12,1.34-6.17,3.78-6.42,3.5s1.82-3.87,5.54-5.14S193.89,233.14,193.85,233.55Z" transform="translate(0 0)"/><path class="cls-21" d="M196.3,245.22c-.43,0,.59-2.54-.53-5.71-1.22-3.42-4-4.81-3.6-5.08s4.5.95,5.67,4S196.79,245.18,196.3,245.22Z" transform="translate(0 0)"/><path class="cls-21" d="M187.79,248.77c0-.42,2.57.5,5.68-.75,3.37-1.35,4.66-4.15,4.94-3.79s-.77,4.53-3.79,5.82S187.85,249.27,187.79,248.77Z" transform="translate(0 0)"/><path class="cls-21" d="M185.13,236.13c.69,0-1.63,3.37-.69,7.72,1,4.7,5.05,6.82,4.39,7.15s-6.94-1.68-8-5.91S184.32,236.15,185.13,236.13Z" transform="translate(0 0)"/><path class="cls-21" d="M193.54,236.77c.06.33-2-.32-4.49.76-2.64,1.16-3.58,3.43-3.82,3.15s.48-3.62,2.85-4.73S193.48,236.38,193.54,236.77Z" transform="translate(0 0)"/><path class="cls-21" d="M185.67,242.71c.13-.43,1.75,1.68,4.62,2,3.1.29,5.2-1.8,5.28-1.32s-2.4,4-5.22,3.81S185.52,243.21,185.67,242.71Z" transform="translate(0 0)"/><path class="cls-21" d="M195,240.7c-.11.19-1-1-2.79-1.41s-3.37.34-3.39.1a3.77,3.77,0,0,1,3.5-1.31A3.82,3.82,0,0,1,195,240.7Z" transform="translate(0 0)"/><circle class="cls-21" cx="191.25" cy="241.64" r="1.53"/><path class="cls-19" d="M194.24,233.94" transform="translate(0 0)"/><path class="cls-20" d="M178.31,257.25c-.76.23-1.72-.94-2.8-2.26a11.2,11.2,0,0,1-2.47-4,10,10,0,0,1,1.13-7.37c1.55.82,4.12,2.53,5,5.45a10.35,10.35,0,0,1,.32,3.66C179.48,254,179.38,256.94,178.31,257.25Z" transform="translate(0 0)"/><path class="cls-20" d="M171.54,230.22c.75.26.86,1.76,1,3.46a10.91,10.91,0,0,1-.26,4.69,10,10,0,0,1-5.15,5.39c-.79-1.56-1.92-4.43-1-7.35a10.65,10.65,0,0,1,1.83-3.18C168.73,232.2,170.47,229.87,171.54,230.22Z" transform="translate(0 0)"/><path class="cls-20" d="M165,257.82c-.76.22-1.71-.94-2.79-2.26a11.1,11.1,0,0,1-2.48-4,10,10,0,0,1,1.14-7.38c1.55.83,4.11,2.54,5,5.46a10.12,10.12,0,0,1,.32,3.66C166.15,254.6,166.06,257.51,165,257.82Z" transform="translate(0 0)"/><path class="cls-18" d="M172.44,235.4" transform="translate(0 0)"/><path class="cls-19" d="M177.13,248a1.77,1.77,0,0,1-.55.41c-.79.37-10.69-3.07-10.15-6.52.09-.56.5-1.47.07-1.91s-.91,0-1.2-.27c-.86-.71.8-6.38,5.15-8.39a8.77,8.77,0,0,1,4.92-.63.63.63,0,0,1,.62.79,1,1,0,0,0-.07.65c.18.67,1.18.85,1.77,1.09,2.67,1,3.62,5.71,4.6,5.45a.93.93,0,0,1,.56-.09.88.88,0,0,1,.49.56c.27.66-.06,2.87-2,4.62-1.19,1.08-3.72,2.66-3.81,3.29a1.71,1.71,0,0,1-.19.63A1.29,1.29,0,0,1,177.13,248Z" transform="translate(0 0)"/><rect class="cls-20" x="153.91" y="234.06" width="1.54" height="31.16" transform="translate(316.74 4.73) rotate(65.28)"/><path class="cls-21" d="M175.37,230.73c.1.34-2.73.76-5.86,3.27-3.38,2.71-4.43,5.72-4.77,5.55s.34-4.26,3.36-6.77S175.26,230.33,175.37,230.73Z" transform="translate(0 0)"/><path class="cls-21" d="M181.8,240.77c-.38.19-.35-2.59-2.52-5.15-2.35-2.76-5.41-3.09-5.17-3.48s4.54-.7,6.72,1.75S182.25,240.56,181.8,240.77Z" transform="translate(0 0)"/><path class="cls-21" d="M175.1,247.11c-.19-.37,2.58-.45,5.05-2.72,2.67-2.45,2.88-5.53,3.27-5.3s.89,4.51-1.48,6.79S175.34,247.55,175.1,247.11Z" transform="translate(0 0)"/><path class="cls-21" d="M168.13,236.24c.64-.26-.33,3.72,2.1,7.45,2.62,4,7.13,4.59,6.63,5.14s-7.08.89-9.55-2.7S167.38,236.54,168.13,236.24Z" transform="translate(0 0)"/><path class="cls-21" d="M176.23,233.85c.16.29-2,.43-3.94,2.3-2.06,2-2.13,4.48-2.45,4.3s-.83-3.56,1-5.43S176,233.5,176.23,233.85Z" transform="translate(0 0)"/><path class="cls-21" d="M171,242.19c0-.45,2.24,1,5,.19,3-.82,4.22-3.52,4.46-3.1s-.82,4.59-3.52,5.42S171,242.72,171,242.19Z" transform="translate(0 0)"/><path class="cls-21" d="M179,237c0,.22-1.29-.57-3.11-.33s-3,1.51-3.13,1.3a3.72,3.72,0,0,1,2.81-2.47A3.81,3.81,0,0,1,179,237Z" transform="translate(0 0)"/><circle class="cls-21" cx="175.81" cy="239.21" r="1.53"/><path class="cls-19" d="M175.87,231" transform="translate(0 0)"/><path class="cls-20" d="M169.25,258.41c-.63.47-1.94-.28-3.42-1.13a11.1,11.1,0,0,1-3.73-2.85c-1.91-2.51-1.76-5.67-1.55-7.3,1.74.23,4.75.91,6.63,3.32a10.19,10.19,0,0,1,1.6,3.3C169.2,255,170.14,257.73,169.25,258.41Z" transform="translate(0 0)"/><path class="cls-20" d="M153.32,235.54c.8,0,1.44,1.33,2.16,2.87a11.17,11.17,0,0,1,1.43,4.48,10,10,0,0,1-2.91,6.87c-1.3-1.18-3.37-3.47-3.54-6.52a10.69,10.69,0,0,1,.58-3.62C151.4,238.37,152.21,235.58,153.32,235.54Z" transform="translate(0 0)"/><path class="cls-20" d="M157,263.66c-.63.48-1.93-.27-3.42-1.12a11.06,11.06,0,0,1-3.72-2.85c-1.91-2.51-1.77-5.67-1.56-7.3,1.74.23,4.75.91,6.64,3.32a10.38,10.38,0,0,1,1.59,3.3C156.94,260.24,157.88,263,157,263.66Z" transform="translate(0 0)"/></svg>