<?xml version="1.0" encoding="utf-8"?>
<!-- Generator: Adobe Illustrator 23.0.3, SVG Export Plug-In . SVG Version: 6.00 Build 0)  -->
<svg version="1.1" id="Layer_1" xmlns="http://www.w3.org/2000/svg" xmlns:xlink="http://www.w3.org/1999/xlink" x="0px" y="0px"
	 viewBox="0 0 60 60" style="enable-background:new 0 0 60 60;" xml:space="preserve">
<style type="text/css">
	.st330{clip-path:url(#SVGID_23_);fill:#006837;}
	.st331{clip-path:url(#SVGID_23_);fill:none;stroke:#000000;stroke-width:3;stroke-miterlimit:10;}
	.st2{clip-path:url(#SVGID_23_);}
	.st3{clip-path:url(#SVGID_23_);fill:#009245;}
	.st4{clip-path:url(#SVGID_23_);fill:none;stroke:#000000;stroke-width:2;stroke-miterlimit:10;}
	.st5{clip-path:url(#SVGID_23_);fill:#22B573;}
</style>
<g>
	<defs>
		<rect id="SVGID_1_" width="60" height="60"/>
	</defs>
	<clipPath id="SVGID_23_">
		<use xlink:href="#SVGID_1_"  style="overflow:visible;"/>
	</clipPath>
	<path class="st330" d="M29.2,39.93c0.1-0.18,0.22-0.46,0.17-0.79c-0.38-2.67-10.84-0.65-16.36-5.55c-4.13-3.67-4.62-10.44-2.84-15.32
		c0.41-1.12,1.39-3.7,3.89-5.83c5.98-5.09,16.32-3.93,22.95-0.59c9.46,4.76,11.83,14.17,12.79,18.02
		c0.97,3.84,2.99,11.91-2.06,17.68c-0.53,0.61-5.15,5.73-10.64,4.56C32.56,51.13,28.94,46.15,29.2,39.93"/>
	<path class="st331" d="M29.2,39.93c0.1-0.18,0.22-0.46,0.17-0.79c-0.38-2.67-10.84-0.65-16.36-5.55c-4.13-3.67-4.62-10.44-2.84-15.32
		c0.41-1.12,1.39-3.7,3.89-5.83c5.98-5.09,16.32-3.93,22.95-0.59c9.46,4.76,11.83,14.17,12.79,18.02
		c0.97,3.84,2.99,11.91-2.06,17.68c-0.53,0.61-5.15,5.73-10.64,4.56C32.56,51.13,28.94,46.15,29.2,39.93z"/>
	<path class="st2" d="M27.18,8.71V1.48c0-0.59-0.52-1.15-1.13-1.13c-0.61,0.03-1.13,0.49-1.13,1.13v7.23c0,0.59,0.52,1.15,1.13,1.13
		C26.67,9.81,27.18,9.34,27.18,8.71"/>
	<path class="st2" d="M37.75,12.22c1.23-2.12,2.46-4.23,3.69-6.35c0.29-0.51,0.13-1.26-0.4-1.54c-0.54-0.28-1.22-0.14-1.54,0.4
		c-1.23,2.12-2.46,4.24-3.69,6.35c-0.3,0.51-0.14,1.26,0.4,1.54C36.75,12.91,37.43,12.77,37.75,12.22"/>
	<path class="st2" d="M45.9,18.66c2.13-1.35,4.26-2.71,6.39-4.06c0.5-0.31,0.74-1.01,0.4-1.54c-0.32-0.5-1.01-0.74-1.54-0.4
		c-2.13,1.35-4.26,2.71-6.39,4.07c-0.5,0.32-0.74,1.01-0.4,1.54C44.68,18.75,45.37,19,45.9,18.66"/>
	<path class="st2" d="M49.45,27.75c2.52-0.47,5.05-0.95,7.58-1.42c0.6-0.11,0.94-0.83,0.78-1.38c-0.17-0.63-0.78-0.9-1.38-0.79
		c-2.53,0.47-5.05,0.95-7.58,1.42c-0.6,0.11-0.94,0.83-0.79,1.38C48.23,27.59,48.85,27.87,49.45,27.75"/>
	<path class="st2" d="M51.28,39.5c2.57-0.06,5.15-0.12,7.72-0.19c0.61-0.01,1.13-0.51,1.13-1.13c0-0.6-0.51-1.14-1.13-1.13
		c-2.58,0.06-5.15,0.12-7.72,0.19c-0.61,0.02-1.13,0.51-1.13,1.13C50.15,38.98,50.67,39.52,51.28,39.5"/>
	<path class="st2" d="M48.1,47.03l5.87,4.7c0.46,0.37,1.15,0.48,1.59,0c0.38-0.41,0.49-1.2,0-1.59l-5.87-4.7
		c-0.46-0.37-1.15-0.48-1.59,0C47.73,45.85,47.61,46.64,48.1,47.03"/>
	<path class="st2" d="M44.68,58.43c-1.19-2.14-2.39-4.27-3.58-6.41c-0.29-0.51-1.03-0.73-1.54-0.4c-0.52,0.34-0.71,0.99-0.4,1.54
		c1.19,2.13,2.39,4.27,3.58,6.4c0.29,0.51,1.03,0.73,1.54,0.4C44.8,59.64,44.99,58.98,44.68,58.43"/>
	<path class="st2" d="M27.84,57.02c1.84-1.68,3.69-3.36,5.53-5.04c0.44-0.4,0.43-1.19,0-1.59c-0.47-0.43-1.13-0.42-1.59,0
		c-1.84,1.68-3.69,3.36-5.53,5.04c-0.44,0.4-0.43,1.19,0,1.59C26.71,57.45,27.37,57.45,27.84,57.02"/>
	<path class="st2" d="M22.16,46.91c2.36-0.93,4.72-1.86,7.08-2.79c0.55-0.22,0.99-0.76,0.79-1.38c-0.17-0.53-0.8-1.02-1.38-0.78
		c-2.36,0.93-4.72,1.86-7.09,2.79c-0.55,0.22-0.99,0.76-0.79,1.38C20.95,46.66,21.57,47.14,22.16,46.91"/>
	<path class="st2" d="M12.62,42.78c1.71-1.8,3.42-3.6,5.13-5.4c0.41-0.43,0.46-1.17,0-1.59c-0.44-0.4-1.16-0.46-1.59,0
		c-1.71,1.8-3.42,3.6-5.13,5.4c-0.41,0.43-0.46,1.17,0,1.59C11.47,43.18,12.19,43.24,12.62,42.78"/>
	<path class="st2" d="M1.4,31.79c2.57,0.06,5.15,0.11,7.72,0.17c0.61,0.01,1.13-0.53,1.13-1.13c0-0.62-0.52-1.11-1.13-1.13
		c-2.57-0.06-5.15-0.11-7.72-0.17c-0.61-0.01-1.13,0.53-1.13,1.13C0.27,31.28,0.79,31.77,1.4,31.79"/>
	<path class="st2" d="M9.75,18.41c-2.19-1.27-4.37-2.55-6.56-3.82c-0.51-0.3-1.25-0.13-1.54,0.4c-0.28,0.54-0.14,1.22,0.4,1.54
		l6.56,3.82c0.51,0.3,1.26,0.13,1.54-0.4C10.43,19.41,10.29,18.72,9.75,18.41"/>
	<path class="st2" d="M16.68,9.29c-1.52-1.94-3.04-3.89-4.56-5.83c-0.36-0.46-1.21-0.41-1.59,0c-0.45,0.49-0.39,1.09,0,1.59
		c1.52,1.94,3.04,3.89,4.56,5.83c0.36,0.47,1.21,0.41,1.59,0C17.14,10.38,17.07,9.78,16.68,9.29"/>
	<path class="st3" d="M28.5,22.5c0,3.31-2.69,6-6,6s-6-2.69-6-6c0-3.31,2.69-6,6-6S28.5,19.19,28.5,22.5"/>
	<circle class="st4" cx="22.5" cy="22.5" r="6"/>
	<path class="st5" d="M42.24,34.78c0,2.33-1.89,4.22-4.22,4.22c-2.33,0-4.22-1.89-4.22-4.22s1.89-4.22,4.22-4.22
		C40.35,30.56,42.24,32.45,42.24,34.78"/>
	<circle class="st4" cx="38.02" cy="34.78" r="4.22"/>
</g>
</svg>
