<?xml version="1.0" encoding="utf-8"?>
<!-- Generator: Adobe Illustrator 23.0.3, SVG Export Plug-In . SVG Version: 6.00 Build 0)  -->
<svg version="1.1" id="Layer_1" xmlns="http://www.w3.org/2000/svg" xmlns:xlink="http://www.w3.org/1999/xlink" x="0px" y="0px"
	 viewBox="0 0 20 20" style="enable-background:new 0 0 20 20;" xml:space="preserve">
<style type="text/css">
	.st6{clip-path:url(#SVGID_2_);}
</style>
<g>
	<defs>
		<rect id="SVGID_11_" width="20" height="20"/>
	</defs>
	<clipPath id="SVGID_22_">
		<use xlink:href="#SVGID_11_"  style="overflow:visible;"/>
	</clipPath>
	<path class="st6" d="M10,12.63v5.05c-0.29,0.4-1.45,1.89-3.47,2.24c-3.1,0.54-5.24-2.13-5.34-2.24c-0.07-0.08-0.07-0.2,0-0.28
		c0.07-0.08,0.19-0.08,0.27,0c1.4,1.59,3.66,1.92,5.34,0.84c1.49-0.97,2.26-2.89,1.87-4.77c-0.09-0.28-0.18-0.56-0.27-0.84
		c0.27-0.19,0.53-0.37,0.8-0.56c0.06,0.09,0.15,0.18,0.27,0.28C9.67,12.51,9.87,12.59,10,12.63"/>
	<path class="st6" d="M10,12.63v5.05c0.29,0.4,1.45,1.89,3.47,2.24c3.1,0.54,5.24-2.13,5.34-2.24c0.07-0.08,0.07-0.2,0-0.28
		c-0.07-0.08-0.19-0.08-0.27,0c-1.41,1.59-3.66,1.92-5.34,0.84c-1.49-0.97-2.26-2.89-1.87-4.77c0.09-0.28,0.18-0.56,0.27-0.84
		c-0.27-0.19-0.53-0.38-0.8-0.56c-0.06,0.09-0.15,0.18-0.27,0.28C10.33,12.51,10.13,12.59,10,12.63"/>
	<path class="st6" d="M8.85,10.63C7.43,9.84,6.01,9.06,4.6,8.27C4.4,7.82,3.68,6.04,4.32,4C5.31,0.86,8.56,0.11,8.7,0.08
		C8.8,0.04,8.9,0.1,8.93,0.21c0.03,0.1-0.02,0.21-0.12,0.25C6.81,1.02,5.48,2.97,5.62,5.03C5.73,6.87,7,8.48,8.76,8.99
		c0.28,0.05,0.56,0.1,0.83,0.14c0.03,0.34,0.07,0.67,0.1,1.01c-0.1,0.02-0.22,0.05-0.36,0.12C9.1,10.37,8.94,10.52,8.85,10.63"/>
	<path class="st6" d="M8.85,10.63C7.43,9.84,6.01,9.06,4.6,8.27c-0.47,0.09-2.27,0.47-3.51,2.18c-1.9,2.63-0.65,5.87-0.6,6.01
		c0.03,0.1,0.14,0.16,0.24,0.13c0.1-0.03,0.15-0.14,0.12-0.25c-0.69-2.05,0.09-4.31,1.78-5.36c1.51-0.94,3.48-0.76,4.88,0.48
		c0.2,0.21,0.39,0.43,0.58,0.64c0.28-0.16,0.56-0.32,0.85-0.48c-0.04-0.1-0.09-0.23-0.11-0.38C8.79,10.99,8.82,10.77,8.85,10.63"/>
	<path class="st6" d="M11.08,10.64c1.37-0.87,2.74-1.74,4.11-2.62c0.47,0.06,2.29,0.33,3.62,1.96c2.05,2.51,0.99,5.82,0.94,5.97
		c-0.02,0.11-0.13,0.17-0.23,0.15c-0.1-0.03-0.16-0.14-0.14-0.24c0.57-2.09-0.33-4.29-2.08-5.24c-1.56-0.84-3.52-0.53-4.85,0.79
		c-0.18,0.23-0.36,0.45-0.55,0.68c-0.29-0.14-0.58-0.29-0.87-0.43c0.04-0.1,0.07-0.23,0.09-0.39C11.16,11,11.12,10.78,11.08,10.64"
		/>
	<path class="st6" d="M11.08,10.64c1.37-0.87,2.74-1.74,4.11-2.62c0.17-0.47,0.79-2.29,0.03-4.28c-1.16-3.07-4.45-3.62-4.59-3.64
		c-0.1-0.03-0.2,0.04-0.23,0.15c-0.02,0.11,0.04,0.21,0.14,0.24c2.02,0.44,3.46,2.3,3.45,4.37c-0.01,1.85-1.18,3.53-2.91,4.15
		c-0.27,0.06-0.55,0.13-0.82,0.2c-0.01,0.34-0.03,0.67-0.04,1.01c0.1,0.01,0.23,0.04,0.37,0.1C10.81,10.4,10.98,10.54,11.08,10.64"
		/>
	<path class="st6" d="M12.13,7.65c0.16-0.13,0.35-0.31,0.53-0.56c0.31-0.42,0.46-0.84,0.53-1.12c-0.56-0.31-1.81-0.91-3.47-0.84
		C8.37,5.18,7.34,5.66,6.8,5.97c0.07,0.28,0.22,0.7,0.53,1.12C7.51,7.34,7.7,7.52,7.86,7.65c0.36-0.2,1.01-0.51,1.87-0.56
		C10.89,7.02,11.76,7.44,12.13,7.65"/>
	<path class="st6" d="M12.06,15.3c0.03,0.21,0.09,0.48,0.21,0.76c0.2,0.49,0.48,0.83,0.67,1.04c0.53-0.36,1.64-1.21,2.39-2.78
		c0.62-1.28,0.72-2.46,0.73-3.11c-0.27-0.07-0.69-0.14-1.19-0.06c-0.29,0.05-0.54,0.13-0.73,0.22c-0.01,0.43-0.07,1.17-0.44,1.99
		C13.19,14.47,12.42,15.06,12.06,15.3"/>
	<path class="st6" d="M5.92,11.37c-0.19-0.09-0.43-0.18-0.72-0.24c-0.5-0.09-0.92-0.04-1.19,0.02C4,11.81,4.08,13.26,4.9,14.77
		c0.68,1.25,1.56,1.98,2.07,2.35c0.2-0.2,0.49-0.53,0.7-1.02c0.12-0.28,0.19-0.55,0.23-0.76c-0.34-0.24-0.9-0.71-1.34-1.48
		C5.96,12.82,5.92,11.81,5.92,11.37"/>
</g>
</svg>
