<svg id="Lag_1" data-name="Lag 1" xmlns="http://www.w3.org/2000/svg" viewBox="0 0 20.12 19.9"><path d="M18.54,17.4a4.12,4.12,0,0,1-5.34.84,4.58,4.58,0,0,1-1.87-4.77l.27-.84-.8-.56a1.71,1.71,0,0,1-.27.28,1.61,1.61,0,0,1-.53.28h0a1.61,1.61,0,0,1-.53-.28,1.71,1.71,0,0,1-.27-.28l-.8.56.27.84A4.58,4.58,0,0,1,6.8,18.24a4.12,4.12,0,0,1-5.34-.84.18.18,0,0,0-.27,0,.21.21,0,0,0,0,.28c.1.12,2.24,2.79,5.34,2.25A5.66,5.66,0,0,0,10,17.68h0a5.66,5.66,0,0,0,3.47,2.25c3.1.54,5.24-2.13,5.34-2.25a.21.21,0,0,0,0-.28A.18.18,0,0,0,18.54,17.4Z" transform="translate(0.05 -0.1)"/><path d="M18.81,10a5.51,5.51,0,0,0-3.62-2h0a6.26,6.26,0,0,0,0-4.29A6.15,6.15,0,0,0,10.63.1a.2.2,0,0,0-.23.15.21.21,0,0,0,.14.24A4.46,4.46,0,0,1,11.08,9l-.83.19c0,.34,0,.68,0,1a1.73,1.73,0,0,1,.37.1,1.49,1.49,0,0,1,.5.33h0a1.65,1.65,0,0,1,0,1l.87.43.55-.67a4.08,4.08,0,0,1,4.85-.79,4.58,4.58,0,0,1,2.07,5.23.2.2,0,0,0,.14.24.18.18,0,0,0,.23-.14C19.8,15.81,20.86,12.49,18.81,10Z" transform="translate(0.05 -0.1)"/><path d="M7.33,7.09a2.64,2.64,0,0,0,.54.56,4.27,4.27,0,0,1,4.26,0,2.64,2.64,0,0,0,.54-.56A3.23,3.23,0,0,0,13.2,6a6.55,6.55,0,0,0-3.47-.84A6.4,6.4,0,0,0,6.8,6,3.23,3.23,0,0,0,7.33,7.09Z" transform="translate(0.05 -0.1)"/><path d="M15.33,14.33a7.58,7.58,0,0,0,.73-3.11,3,3,0,0,0-1.92.16,4.92,4.92,0,0,1-.45,2,4.61,4.61,0,0,1-1.63,1.93,3.51,3.51,0,0,0,.2.77,3.32,3.32,0,0,0,.68,1A7.15,7.15,0,0,0,15.33,14.33Z" transform="translate(0.05 -0.1)"/><path d="M6.56,13.86a5.07,5.07,0,0,1-.64-2.49,2.63,2.63,0,0,0-.72-.24,2.85,2.85,0,0,0-1.19,0,7.5,7.5,0,0,0,.89,3.62A6.94,6.94,0,0,0,7,17.12a3.23,3.23,0,0,0,.7-1,3.65,3.65,0,0,0,.23-.75A4.58,4.58,0,0,1,6.56,13.86Z" transform="translate(0.05 -0.1)"/><path d="M1.2,10A5.53,5.53,0,0,1,4.83,8h0a6.2,6.2,0,0,1,0-4.29A6.14,6.14,0,0,1,9.39.1a.18.18,0,0,1,.22.15.2.2,0,0,1-.13.24A4.46,4.46,0,0,0,8.94,9l.82.19c0,.34,0,.68.05,1a1.59,1.59,0,0,0-.37.1,1.45,1.45,0,0,0-.51.33h0a1.92,1.92,0,0,0,0,.63,1.25,1.25,0,0,0,.09.38l-.88.43-.54-.67a4.09,4.09,0,0,0-4.85-.79A4.57,4.57,0,0,0,.63,15.85a.19.19,0,0,1-.14.24A.18.18,0,0,1,.26,16C.22,15.81-.84,12.49,1.2,10Z" transform="translate(0.05 -0.1)"/></svg>