<svg id="Lag_1" data-name="Lag 1" xmlns="http://www.w3.org/2000/svg" viewBox="0 0 300 259.81"><defs><style>.pcls-1{fill:#f0820f;}.pcls-2{fill:#a0ccd6;opacity:0.53;}.pcls-3{fill:#dfeeef;opacity:0.5;}.pcls-4{fill:#fff;}.pcls-5{fill:#e1e36c;}.pcls-6{fill:#ebb28c;}.pcls-7{fill:#a42616;}.pcls-8{fill:#e9d01a;}.pcls-9{fill:#ffec36;}</style></defs><polygon class="pcls-1" points="225 0 75 0 0 129.9 75 259.81 225 259.81 300 129.9 225 0"/><path class="pcls-2" d="M93.2,115.41c-9.07,7.11-11.26,20.12-6.34,31.87a12.24,12.24,0,0,0-1.06.71c-10,7.79-8.55,26.18,3.12,41.06a51.78,51.78,0,0,0,4,4.46c-.1.07-.21.12-.31.2-8.72,6.84-6.34,24.45,5.33,39.33s28.2,21.4,36.93,14.55c3-2.33,4.63-6,5.09-10.26,9,7.56,20.27,9.44,27.47,3.79,5.8-4.55,7.48-12.8,5.23-21.34A43.8,43.8,0,0,0,191.07,211c10.5-8.23,16.21-19.39,15.28-28.1a24.83,24.83,0,0,0-22.37-42,34.05,34.05,0,0,0-6.32-30.24c-11.33-14.45-31.31-17.7-44.61-7.27A28.57,28.57,0,0,0,124,115.7C114,109.2,101.78,108.68,93.2,115.41Zm36,85.4c.28.2.57.37.85.56a17.14,17.14,0,0,0-2.19,4.93c-.83-1-1.67-1.89-2.52-2.77a16.06,16.06,0,0,0,2.7-1.66C128.47,201.54,128.83,201.17,129.21,200.81Z" transform="translate(0 -20.1)"/><circle class="pcls-3" cx="155.31" cy="217.56" r="3.94"/><ellipse class="pcls-4" cx="154.12" cy="239" rx="1.1" ry="1.93" transform="translate(-114.63 125.92) rotate(-38.1)"/><circle class="pcls-3" cx="147.01" cy="87.72" r="4.99"/><ellipse class="pcls-4" cx="145.49" cy="109.52" rx="1.39" ry="2.44" transform="translate(-36.58 93.01) rotate(-38.1)"/><circle class="pcls-3" cx="105.09" cy="206.69" r="3.94"/><ellipse class="pcls-4" cx="103.9" cy="228.13" rx="1.1" ry="1.93" transform="translate(-118.62 92.62) rotate(-38.1)"/><circle class="pcls-3" cx="192.63" cy="140.91" r="3.94"/><ellipse class="pcls-4" cx="191.44" cy="162.35" rx="1.1" ry="1.93" transform="translate(-59.38 132.62) rotate(-38.1)"/><circle class="pcls-3" cx="145.34" cy="231.97" r="4.99"/><ellipse class="pcls-4" cx="143.83" cy="253.77" rx="1.39" ry="2.44" transform="translate(-125.93 122.72) rotate(-38.1)"/><circle class="pcls-3" cx="187.29" cy="203.46" r="5.48"/><ellipse class="pcls-4" cx="185.63" cy="225.43" rx="1.53" ry="2.68" transform="translate(-99.54 142.47) rotate(-38.1)"/><circle class="pcls-3" cx="195.06" cy="110.95" r="5.07"/><ellipse class="pcls-4" cx="193.53" cy="132.77" rx="1.42" ry="2.48" transform="translate(-40.69 127.6) rotate(-38.1)"/><circle class="pcls-3" cx="216.04" cy="168.85" r="5.12"/><ellipse class="pcls-4" cx="214.49" cy="190.69" rx="1.43" ry="2.5" transform="translate(-71.96 152.88) rotate(-38.1)"/><rect class="pcls-5" x="71.97" y="135.56" width="120.92" height="77.59" transform="translate(47.61 356.11) rotate(-119.99)"/><path class="pcls-6" d="M100.72,213.21a25.48,25.48,0,0,1-16.4-11.64c-5.91-10-2.25-20.15-1.76-21.43a171.13,171.13,0,0,1,10.83-18.07c1.7-2.46,3-4.2,5-7.3a116.27,116.27,0,0,0,7.59-14.06,5,5,0,0,1,3.27.56c2.39,1.43,3.37,5.35,1.92,9.54q-2.07,5.06-4.15,10.11a4.21,4.21,0,0,0,7.27,3.49L143,149.56a4.65,4.65,0,0,1,4.25,8.19l-23.49,13.76a1.39,1.39,0,0,0,1.3,2.29L156,161.28a4.74,4.74,0,0,1,5.19,3.49,4.66,4.66,0,0,1-2,4.79L128.86,183.7a1.16,1.16,0,0,0,.59,2.06l27.05-6.49a4.26,4.26,0,0,1,1.34,8.29l-25.91,8.23a1.52,1.52,0,0,0,.56,2.71,66.75,66.75,0,0,1,11.91-.61c1.19,0,2.36.12,3.48.22a3.57,3.57,0,0,1,.25,7.12c-6,.73-10.82,1.62-14.1,2.29-9.21,1.88-13,3.43-21.09,4.62A103.34,103.34,0,0,1,100.72,213.21Z" transform="translate(0 -20.1)"/><path class="pcls-7" d="M33.6,207.63l20,34.63,47.33-27.32a72.6,72.6,0,0,1-20-34.63Z" transform="translate(0 -20.1)"/><path class="pcls-8" d="M236.73,118.08l-32.39,9.32c-1.07-2.43-11.78-26.56-22.81-36.33-3.07-2.72-6.81-5.55-6.81-5.55a115,115,0,0,0-13.3-8.74,5,5,0,0,1,.84-3.21c1.62-2.25,5.6-2.88,9.64-1.08l9.66,5a4.19,4.19,0,0,0,4.1-6.91L173.4,40.75a4.64,4.64,0,0,1,8.5-3.52q5.81,12.26,11.63,24.51a1.39,1.39,0,0,0,2.38-1.09L186.15,28.9a4.72,4.72,0,0,1,3.92-4.85,4.63,4.63,0,0,1,4.57,2.43l11.42,31.26a1.16,1.16,0,0,0,2.1-.41q-2.06-13.71-4.1-27.41a4.24,4.24,0,0,1,8.34-.61q3,13.22,5.93,26.42a1.51,1.51,0,0,0,2.74-.32,66.83,66.83,0,0,1,.42-11.87c.14-1.18.32-2.33.52-3.44a3.55,3.55,0,0,1,7.08.37c.22,6,.68,10.88,1.06,14.2.72,6.26.61,7.72,2.77,21.32A372.92,372.92,0,0,1,236.73,118.08Z" transform="translate(0 -20.1)"/><path class="pcls-9" d="M227.23,124,249.8,99c-1.72-2-18.71-22.22-22.66-36.42-1.1-4-2-8.55-2-8.55a113.59,113.59,0,0,1-2-15.79,4.93,4.93,0,0,0-3.24-.64c-2.74.47-5.05,3.76-5.2,8.18.09,3.63.17,7.25.25,10.88a4.2,4.2,0,0,1-8,.65q-10.71-12-21.44-24.08a4.63,4.63,0,0,0-6.87,6.09l16.92,21.2a1.4,1.4,0,0,1-.39,1.53,1.42,1.42,0,0,1-1.63.13L169.23,39.48a4.72,4.72,0,0,0-6.08,1.39,4.65,4.65,0,0,0,.18,5.18l23.1,24a1.16,1.16,0,0,1-1.29,1.7L162.31,56a4.24,4.24,0,0,0-4.21,7.23l21.15,16.91a1.53,1.53,0,0,1,0,1.69,1.51,1.51,0,0,1-1.45.63,66.42,66.42,0,0,0-10.86-4.82c-1.13-.39-2.24-.74-3.32-1a3.56,3.56,0,0,0-2.77,6.54c5.3,2.82,9.48,5.38,12.29,7.17,5.31,3.39,6.68,3.93,18,11.83C198.16,107.11,209.36,114.32,227.23,124Z" transform="translate(0 -20.1)"/></svg>