<svg id="Lag_1" data-name="Lag 1" xmlns="http://www.w3.org/2000/svg" viewBox="0 0 259.75 250.06"><defs><style>.ecls-1{fill:#e1e36c;}.ecls-2{fill:#ebb28c;}.ecls-3{fill:#a42616;}.ecls-4{fill:#e9d01a;}.ecls-5{fill:#ffec36;}</style></defs><rect class="ecls-1" x="42.26" y="63.77" width="140.46" height="90.13" transform="translate(94.39 238.88) rotate(-129.49)"/><path class="ecls-2" d="M83.61,159.42a29.56,29.56,0,0,1-21-10.19c-8.69-10.34-6.43-22.65-6.12-24.21a198.22,198.22,0,0,1,8.95-22.79c1.47-3.14,2.63-5.38,4.28-9.3a136.08,136.08,0,0,0,6-17.57,5.74,5.74,0,0,1,3.85,0c3,1.17,4.89,5.47,4,10.56q-1.41,6.18-2.81,12.37A5.32,5.32,0,0,0,83,102.38a5.38,5.38,0,0,0,6.74-1.46l30.11-22.53A5.41,5.41,0,0,1,126.3,87L102,107.23a1.62,1.62,0,0,0,1.92,2.37l33-20.27a5.51,5.51,0,0,1,6.62,3,5.4,5.4,0,0,1-1.42,5.87l-32,22a1.35,1.35,0,0,0,1.07,2.25L141,109.84a4.95,4.95,0,0,1,3.12,9.25L116,133.48a1.77,1.77,0,0,0,1.15,3,79,79,0,0,1,13.53-3c1.38-.18,2.73-.31,4-.41a4.15,4.15,0,0,1,1.64,8.11c-6.72,2-12.08,3.94-15.71,5.33-10.19,3.92-14.3,6.43-23.28,9.33A117.5,117.5,0,0,1,83.61,159.42Z" transform="translate(-5.64 -25.97)"/><path class="ecls-3" d="M5.64,165.9l29.53,35.84,49-40.37a84.35,84.35,0,0,1-29.54-35.85Z" transform="translate(-5.64 -25.97)"/><path class="ecls-4" d="M250.15,265.17,212.37,276c-1.24-2.83-13.72-31-26.59-42.36-3.58-3.17-7.94-6.47-7.94-6.47A132.66,132.66,0,0,0,162.33,217a5.83,5.83,0,0,1,1-3.74c1.89-2.62,6.53-3.36,11.24-1.26l11.27,5.82a4.89,4.89,0,0,0,4.77-8.06L176.3,175a5.41,5.41,0,0,1,9.91-4.09l13.56,28.57a1.63,1.63,0,0,0,1.81.36,1.59,1.59,0,0,0,1-1.63l-11.37-37a5.5,5.5,0,0,1,4.57-5.66,5.4,5.4,0,0,1,5.33,2.84q6.66,18.22,13.31,36.45a1.36,1.36,0,0,0,2.45-.48q-2.4-16-4.78-32a4.94,4.94,0,0,1,9.73-.71q3.45,15.41,6.91,30.81a1.77,1.77,0,0,0,3.19-.37,78,78,0,0,1,.49-13.84c.17-1.39.38-2.72.61-4a4.15,4.15,0,0,1,8.26.44c.25,7,.79,12.68,1.24,16.55.84,7.29.7,9,3.22,24.86C247.28,226.05,249.12,241.48,250.15,265.17Z" transform="translate(-5.64 -25.97)"/><path class="ecls-5" d="M239.07,272.1l26.32-29.2c-2-2.36-21.82-25.91-26.43-42.47-1.28-4.6-2.33-10-2.33-10a133.31,133.31,0,0,1-2.38-18.41,5.77,5.77,0,0,0-3.78-.75c-3.19.55-5.88,4.39-6.06,9.54q.15,6.34.29,12.68a5.28,5.28,0,0,1-3,3.54,5.37,5.37,0,0,1-6.32-2.77l-25-28.09a5.41,5.41,0,0,0-8,7.11L202.08,198a1.61,1.61,0,0,1-2.35,1.94l-28.3-26.45a5.51,5.51,0,0,0-7.08,1.63,5.42,5.42,0,0,0,.21,6l26.93,27.93a1.35,1.35,0,0,1-1.5,2l-26.63-18.3a4.94,4.94,0,0,0-4.9,8.44L183.12,221a1.77,1.77,0,0,1,0,2,1.79,1.79,0,0,1-1.7.74A78.32,78.32,0,0,0,168.74,218c-1.32-.45-2.61-.85-3.88-1.21a4.15,4.15,0,0,0-3.23,7.62c6.19,3.29,11.06,6.27,14.34,8.36,6.19,3.95,7.78,4.58,20.94,13.79C205.17,252.37,218.23,260.78,239.07,272.1Z" transform="translate(-5.64 -25.97)"/></svg>