<svg xmlns="http://www.w3.org/2000/svg" viewBox="0 0 236.52 275.67"><defs><style>.bcls-1{fill:#fff;}.bcls-1,.bcls-2{stroke:#1d1d1b;}.bcls-1,.bcls-2,.bcls-4{stroke-miterlimit:10;}.bcls-2{fill:#ca5131;}.bcls-3{fill:#1d1d1b;}.bcls-4{stroke:#fff;stroke-width:3px;}</style></defs><g id="Lag_3" data-name="Lag 3"><path d="M112.94,92.83c.78-.1,2.32,3.54,5.69,19.57a11.85,11.85,0,0,0,21,5,59.85,59.85,0,0,1,29.53-1.78,34.55,34.55,0,0,1,29.54,2.14,11.25,11.25,0,0,0,12.1,2.49c5-2.11,6.28-7.3,6.4-7.83l6.41-18.15c-1.14,33.63-7.13,56.74-11.3,69.58-2.65,8.18-5.86,16.19-13.26,23.29-10,9.59-22.07,12.27-28.46,13.17a49.94,49.94,0,0,1-26-8.54c-8.07-5.62-13.32-13.19-18.7-25.72C110.74,130.7,110.52,93.14,112.94,92.83Z" transform="translate(-30.99 -7.49)"/><path class="bcls-1" d="M216.2,94.7s2.75-1.13,4.18-1.8a4.51,4.51,0,0,1,1.68-.46h.25c.4,0,1.16-.07,2.07-.18l1.25-.17c.64-.1,1.28-.24,1.28-.24l.75-.16c.93-.23,1.8-.5,2.36-.69a8.1,8.1,0,0,1,8,11.83,14.58,14.58,0,0,1,3.63,2.6c1.59,1.56,3.09,3,3.2,5.06.16,3-2.76,5.52-4,6.61a14.68,14.68,0,0,1-1.23.94,12,12,0,0,1,1.21-.93,3,3,0,0,1,1-.54c.92-.17,2,1.1,2.28,1.65,1,2-.52,5.29-3.7,8.44a5.47,5.47,0,0,1,.21,3.82,5.89,5.89,0,0,1-5.63,3.64l-20,3-20.49,7.23-13.83-27.58L193,111.06a21.23,21.23,0,0,0,2.47-3,22.75,22.75,0,0,0,1.72-3c1.73-1.94,3.53-4.13,5.33-6.57,1.55-2.11,2.93-4.16,4.14-6.11a10.68,10.68,0,0,1,4.78-5.23,6.52,6.52,0,0,1,3.6-.85,7.41,7.41,0,0,1,3.76,1.88c4.12,3,8.33,2.73,8.24,3.42-.05.43-1.78.6-2.2.64a18.8,18.8,0,0,0-2.87.19,8.67,8.67,0,0,0-1,.25,27.4,27.4,0,0,0-4.46,1.85C216.53,94.52,216.2,94.69,216.2,94.7Z" transform="translate(-30.99 -7.49)"/><path class="bcls-2" d="M-491.43,17.26" transform="translate(-30.99 -7.49)"/><path class="bcls-3" d="M112.89,86.23c2.09,0,3.64-5.84,6-14.78a117,117,0,0,0,3-15.2,129.81,129.81,0,0,0,33.76-5.36,113.76,113.76,0,0,0,26.62-11.78c1.86-.19,9.3-.8,16.19,3a18.92,18.92,0,0,1,7.41,7.07q3,17.24,6,34.48A9,9,0,0,0,217.17,82a5.38,5.38,0,0,0,1.92-2.79c1.66-3.1,14.09-27.54-3-49-6.64-8.34-15.39-13.31-21.41-16.06-1.91-.79-36-14.24-63.12-.22a45.5,45.5,0,0,0-17,15,62.11,62.11,0,0,0-9,30.63C105.29,72.44,109.64,86.28,112.89,86.23Z" transform="translate(-30.99 -7.49)"/></g><g id="Lag_2" data-name="Lag 2"><path d="M80,283.16H259.8c1.95-7.24,24.92-96.56-19.17-130.59a57.76,57.76,0,0,0-15.56-8.48q-1.86,27.1-16.18,41.35h0c-3.46,3.79-16.39,17.62-37.57,19.87-21.95,2.33-37.9-8.94-41.79-11.86L79.9,226.28Q79.91,254.72,80,283.16Z" transform="translate(-30.99 -7.49)"/><path class="bcls-4" d="M192.41,150.42,72.86,226.84c-12.76,6.2-28.11,2.06-35.74-9.25-8.14-12.06-5.34-29.08,6.78-38.21l132.49-61.62Z" transform="translate(-30.99 -7.49)"/></g></svg>