<svg xmlns="http://www.w3.org/2000/svg" viewBox="0 0 300 259.81"><defs><style>.jcls-1{fill:#ca5131;}.jcls-1,.jcls-4{stroke:#1d1d1b;}.jcls-1,.jcls-4,.jcls-6{stroke-miterlimit:10;}.jcls-2{fill:#f0820f;}.jcls-3,.jcls-4{fill:#ebb28b;}.jcls-5{fill:#1d1d1b;}.jcls-6{stroke:#f08212;stroke-width:3px;}.jcls-7{fill:#0d7f36;}.jcls-8{fill:#12632e;opacity:0.51;}.jcls-9{fill:#2e7339;}.cls-10{fill:#24843c;}</style></defs><g id="Lag_3" data-name="Lag 3"><path class="cls-1" d="M-491.43,17.26" transform="translate(0 -19.21)"/></g><g id="Lag_2" data-name="Lag 2"><polygon class="jcls-2" points="225 0 75 0 0 129.9 75 259.81 225 259.81 300 129.9 225 0"/><ellipse class="jcls-3" cx="149.61" cy="120.62" rx="38.13" ry="50.46"/><path d="M112.32,139.84c.57-.08,1.7,2.59,4.16,14.31a8.67,8.67,0,0,0,15.36,3.64,43.9,43.9,0,0,1,13-2.08,43.32,43.32,0,0,1,8.58.78,25.27,25.27,0,0,1,21.6,1.56,8.21,8.21,0,0,0,8.85,1.82,8.48,8.48,0,0,0,4.68-5.72q2.34-6.65,4.69-13.27c-.84,24.59-5.22,41.49-8.26,50.88-2,6-4.29,11.83-9.7,17-7.29,7-16.14,9-20.82,9.63a36.57,36.57,0,0,1-19-6.25c-5.9-4.1-9.74-9.64-13.68-18.81C110.71,167.53,110.55,140.07,112.32,139.84Z" transform="translate(0 -19.21)"/><path class="jcls-4" d="M187.83,141.2s2-.82,3.06-1.31a3.25,3.25,0,0,1,1.23-.34h.18c.29,0,.85,0,1.51-.12l.91-.13.94-.17.55-.13c.68-.16,1.32-.36,1.72-.5a5.92,5.92,0,0,1,5.83,8.65,10.73,10.73,0,0,1,2.66,1.9c1.16,1.14,2.26,2.21,2.34,3.7.12,2.2-2,4-2.94,4.84a8.12,8.12,0,0,1-.9.68,9.2,9.2,0,0,1,.88-.67,2.24,2.24,0,0,1,.72-.4c.68-.13,1.46.8,1.67,1.21.76,1.43-.38,3.87-2.71,6.17a4,4,0,0,1,.15,2.79,4.28,4.28,0,0,1-4.11,2.66l-14.65,2.19-15,5.28-10.12-20.16,9.13-4.16a16.68,16.68,0,0,0,1.8-2.22,16.91,16.91,0,0,0,1.26-2.2c1.26-1.42,2.58-3,3.89-4.81,1.14-1.54,2.15-3,3-4.47a7.81,7.81,0,0,1,3.5-3.82A4.7,4.7,0,0,1,187,135a5.39,5.39,0,0,1,2.75,1.37c3,2.16,6.09,2,6,2.5,0,.32-1.3.44-1.61.47a13.43,13.43,0,0,0-2.1.14,6.06,6.06,0,0,0-.7.18,19.17,19.17,0,0,0-3.26,1.36Z" transform="translate(0 -19.21)"/><path class="jcls-5" d="M112.28,135c1.53,0,2.67-4.27,4.42-10.81a86,86,0,0,0,2.2-11.11,95,95,0,0,0,24.69-3.92,83.41,83.41,0,0,0,19.46-8.61,20.89,20.89,0,0,1,11.85,2.19,13.82,13.82,0,0,1,5.41,5.17q2.22,12.6,4.42,25.21a6.56,6.56,0,0,0,3.81-1.25,4,4,0,0,0,1.41-2c1.2-2.27,10.3-20.14-2.21-35.86a42.74,42.74,0,0,0-15.65-11.75c-1.4-.57-26.36-10.41-46.16-.15a33.07,33.07,0,0,0-12.45,11,45.37,45.37,0,0,0-6.62,22.39C106.73,124.93,109.9,135.05,112.28,135Z" transform="translate(0 -19.21)"/><path d="M88.19,279H219.71c1.43-5.29,18.23-70.61-14-95.49a41.87,41.87,0,0,0-11.37-6.21q-1.37,19.83-11.83,30.24h0c-2.54,2.78-12,12.88-27.48,14.53-16,1.7-27.71-6.54-30.56-8.67l-36.29,24Z" transform="translate(0 -19.21)"/><path class="jcls-6" d="M170.44,182,83,237.83a20.39,20.39,0,0,1-21.18-34.7l96.89-45.06Q164.57,170,170.44,182Z" transform="translate(0 -19.21)"/><circle class="jcls-7" cx="170.45" cy="31.34" r="17.51"/><path class="jcls-8" d="M188,50.55a17.57,17.57,0,0,1-17.5,17.51,18.24,18.24,0,0,1-13.73-6.6A18,18,0,0,1,153,50.55a15.2,15.2,0,0,1,7.89-.93c5,.83,6.85,4.13,10.6,5.5C174.58,56.25,179.66,56.28,188,50.55Z" transform="translate(0 -19.21)"/><path class="jcls-9" d="M173.85,27.94c0-.62-1.1-1.12-2.45-1.12s-2.45.5-2.45,1.12c0,.46.6.85,1.46,1l.22,7.06h1.66L172.4,29C173.26,28.78,173.85,28.39,173.85,27.94Z" transform="translate(0 -19.21)"/><path class="jcls-10" d="M182.32,34.37c.29-.4-.17-1.23-1-1.86s-1.79-.84-2.08-.45,0,.83.45,1.34L176.49,38l1,.78,3.39-4.41C181.55,34.62,182.11,34.65,182.32,34.37Z" transform="translate(0 -19.21)"/><path class="jcls-9" d="M190.09,39.27c.49-.39.2-1.56-.64-2.62S187.53,35,187,35.43s-.29,1,.11,1.78l-5.39,4.56,1,1.31,5.59-4.31C189.06,39.33,189.74,39.55,190.09,39.27Z" transform="translate(0 -19.21)"/><path class="jcls-10" d="M191.25,47c.44-.22.42-1.17-.05-2.12s-1.21-1.56-1.64-1.35-.4.72-.22,1.39l-4.92,2.6.58,1.17,5-2.36C190.45,46.84,190.93,47.13,191.25,47Z" transform="translate(0 -19.21)"/><path class="jcls-9" d="M192.32,57.06c.61.06,1.22-1,1.35-2.33s-.26-2.49-.88-2.55c-.46,0-.91.52-1.16,1.36l-7-.46-.16,1.65,7,.79C191.53,56.39,191.86,57,192.32,57.06Z" transform="translate(0 -19.21)"/><path class="jcls-10" d="M186.48,64.41c.36.33,1.24,0,2-.83s1-1.69.65-2-.82-.1-1.38.31l-4.22-3.62-.88,1,4,3.81C186.31,63.62,186.22,64.17,186.48,64.41Z" transform="translate(0 -19.21)"/><path class="jcls-9" d="M179.85,70.78c.22.57,1.43.64,2.69.14s2.1-1.36,1.87-1.94c-.17-.42-.87-.57-1.74-.42l-2.78-6.48-1.55.6,2.48,6.61C180.09,69.77,179.68,70.35,179.85,70.78Z" transform="translate(0 -19.21)"/><path class="jcls-10" d="M171.92,71.19c0,.49.86.89,1.93.89s1.93-.4,1.93-.89-.47-.67-1.15-.8l-.17-5.56h-1.31l-.09,5.56C172.39,70.53,171.92,70.84,171.92,71.19Z" transform="translate(0 -19.21)"/><path class="jcls-9" d="M161.15,70c-.28.55.47,1.5,1.67,2.11s2.42.67,2.7.12-.15-1-.84-1.58l3-6.39-1.49-.75-3.3,6.24C162.06,69.52,161.36,69.59,161.15,70Z" transform="translate(0 -19.21)"/><path class="jcls-10" d="M155.74,65.47c-.32.37.07,1.24.87,1.94s1.71,1,2,.6.09-.82-.33-1.37l3.52-4.29-1-.86-3.72,4.12C156.53,65.28,156,65.2,155.74,65.47Z" transform="translate(0 -19.21)"/><path class="jcls-9" d="M150.05,59c-.56.27-.54,1.48,0,2.7s1.51,2,2.07,1.72.51-.91.29-1.76l6.27-3.25-.72-1.5-6.41,3C151.07,59.2,150.46,58.83,150.05,59Z" transform="translate(0 -19.21)"/><path class="jcls-10" d="M149.57,52.18c-.49.06-.77,1-.64,2s.63,1.87,1.12,1.81.6-.56.66-1.25l5.49-.86-.16-1.3-5.53.61C150.29,52.57,149.92,52.14,149.57,52.18Z" transform="translate(0 -19.21)"/><path class="jcls-9" d="M148.94,43c-.6-.13-1.34.83-1.63,2.15s-.06,2.5.55,2.63c.44.11,1-.39,1.32-1.2l6.93,1.35.37-1.62-6.86-1.67C149.64,43.72,149.39,43.05,148.94,43Z" transform="translate(0 -19.21)"/><path class="jcls-10" d="M154.51,36.85c-.4-.27-1.21.23-1.81,1.12s-.74,1.82-.34,2.09.82,0,1.32-.51l4.71,3,.72-1.08-4.57-3.17C154.8,37.62,154.81,37.05,154.51,36.85Z" transform="translate(0 -19.21)"/><path class="jcls-9" d="M158.75,30.67c-.43-.45-1.57-.06-2.55.88s-1.43,2.05-1,2.5,1,.2,1.77-.27l5,5,1.2-1.14-4.78-5.19C158.9,31.69,159.07,31,158.75,30.67Z" transform="translate(0 -19.21)"/><path class="jcls-10" d="M166.74,30.36c-.13-.47-1.07-.62-2.09-.33s-1.76.9-1.63,1.37.64.52,1.33.47l1.65,5.3,1.26-.35-1.4-5.37C166.47,31.13,166.84,30.71,166.74,30.36Z" transform="translate(0 -19.21)"/><ellipse class="cjls-10" cx="166.51" cy="39.95" rx="2.12" ry="0.91"/><ellipse class="cjls-10" cx="177.65" cy="58.75" rx="0.91" ry="2.12" transform="translate(90.27 205) rotate(-80.46)"/><ellipse class="jcls-10" cx="171.61" cy="51.86" rx="2.12" ry="0.91" transform="translate(-7.6 37.28) rotate(-18.3)"/><ellipse class="jcls-10" cx="162.29" cy="51.86" rx="0.91" ry="2.12" transform="translate(84.26 184.1) rotate(-80.46)"/><ellipse class="jcls-10" cx="170.18" cy="26.85" rx="2.12" ry="0.91"/><ellipse class="jcls-10" cx="177.87" cy="45.49" rx="0.91" ry="2.12" transform="translate(103.53 194.16) rotate(-80.46)"/><ellipse class="jcls-10" cx="171.4" cy="39.83" rx="2.12" ry="0.91" transform="translate(-3.84 36.61) rotate(-18.3)"/><ellipse class="jcls-10" cx="161.83" cy="43.31" rx="0.91" ry="2.12" transform="translate(92.3 176.51) rotate(-80.46)"/><circle class="jcls-7" cx="58.72" cy="101.67" r="17.51"/><path class="jcls-8" d="M76.26,120.88a17.59,17.59,0,0,1-17.51,17.51A18.25,18.25,0,0,1,45,131.79a17.92,17.92,0,0,1-3.77-10.91,15.18,15.18,0,0,1,7.89-.93c5,.83,6.85,4.13,10.59,5.5C62.85,126.59,67.92,126.61,76.26,120.88Z" transform="translate(0 -19.21)"/><path class="jcls-9" d="M62.11,98.27c0-.62-1.09-1.12-2.45-1.12s-2.45.5-2.45,1.12c0,.46.6.85,1.47,1l.21,7h1.67l.11-7.06C61.52,99.12,62.11,98.72,62.11,98.27Z" transform="translate(0 -19.21)"/><path class="jcls-10" d="M70.59,104.7c.29-.39-.17-1.23-1-1.86s-1.78-.84-2.07-.44,0,.82.44,1.33l-3.17,4.57,1,.78,3.38-4.42C69.81,105,70.37,105,70.59,104.7Z" transform="translate(0 -19.21)"/><path class="jcls-9" d="M78.36,109.6c.48-.39.19-1.56-.65-2.62s-1.92-1.61-2.4-1.22-.3,1,.1,1.78L70,112.11l1,1.3,5.59-4.31C77.32,109.66,78,109.88,78.36,109.6Z" transform="translate(0 -19.21)"/><path class="jcls-10" d="M79.52,117.3c.44-.21.41-1.16-.06-2.12s-1.2-1.56-1.64-1.35-.39.72-.22,1.39l-4.91,2.6.57,1.17,5-2.36C78.71,117.17,79.19,117.46,79.52,117.3Z" transform="translate(0 -19.21)"/><path class="jcls-9" d="M80.58,127.39c.62.06,1.22-1,1.35-2.33s-.26-2.49-.88-2.55c-.45,0-.9.52-1.16,1.36l-7-.46-.16,1.65,7,.79C79.79,126.72,80.13,127.35,80.58,127.39Z" transform="translate(0 -19.21)"/><path class="jcls-10" d="M74.75,134.75c.36.32,1.23-.05,2-.83s1-1.7.65-2-.82-.1-1.38.31l-4.21-3.62-.89,1,4,3.81C74.57,134,74.48,134.5,74.75,134.75Z" transform="translate(0 -19.21)"/><path class="jcls-9" d="M68.11,141.11c.23.57,1.43.64,2.69.15s2.1-1.37,1.87-1.94-.87-.58-1.74-.42l-2.78-6.49-1.54.6,2.47,6.62C68.35,140.1,67.94,140.68,68.11,141.11Z" transform="translate(0 -19.21)"/><path class="jcls-10" d="M60.18,141.53c0,.48.87.88,1.93.88s1.94-.4,1.94-.88-.48-.68-1.16-.81l-.17-5.56H61.41l-.09,5.56C60.65,140.86,60.18,141.17,60.18,141.53Z" transform="translate(0 -19.21)"/><path class="jcls-9" d="M49.41,140.33c-.28.55.47,1.5,1.68,2.11s2.41.67,2.69.12-.15-1-.84-1.58l3-6.39-1.48-.75-3.3,6.24C50.33,139.85,49.62,139.93,49.41,140.33Z" transform="translate(0 -19.21)"/><path class="jcls-10" d="M44,135.8c-.32.37.07,1.24.87,1.94s1.72,1,2,.6.08-.82-.34-1.37l3.53-4.29-1-.86L45.39,136C44.79,135.61,44.24,135.53,44,135.8Z" transform="translate(0 -19.21)"/><path class="jcls-9" d="M38.31,129.36c-.56.27-.53,1.48,0,2.7s1.51,2,2.07,1.72.51-.91.3-1.76L47,128.77l-.72-1.5-6.41,3C39.33,129.53,38.72,129.17,38.31,129.36Z" transform="translate(0 -19.21)"/><path class="jcls-10" d="M37.83,122.52c-.48.06-.77,1-.63,2s.63,1.87,1.11,1.81.61-.56.66-1.25l5.49-.86-.16-1.3-5.53.61C38.55,122.9,38.19,122.47,37.83,122.52Z" transform="translate(0 -19.21)"/><path class="jcls-9" d="M37.21,113.28c-.61-.13-1.34.83-1.64,2.15s0,2.5.55,2.64,1-.4,1.33-1.21l6.93,1.35.36-1.62-6.86-1.67C37.9,114.05,37.65,113.38,37.21,113.28Z" transform="translate(0 -19.21)"/><path class="jcls-10" d="M42.77,107.19c-.4-.28-1.21.22-1.8,1.11s-.75,1.82-.34,2.09.82,0,1.31-.51l4.71,3,.73-1.08-4.57-3.17C43.07,108,43.07,107.39,42.77,107.19Z" transform="translate(0 -19.21)"/><path class="jcls-9" d="M47,101c-.43-.45-1.57-.06-2.55.88s-1.43,2.05-1,2.5,1,.2,1.77-.27l5,5,1.21-1.15-4.79-5.19C47.17,102,47.33,101.33,47,101Z" transform="translate(0 -19.21)"/><path class="jcls-10" d="M55,100.7c-.13-.47-1.07-.62-2.1-.34s-1.75.9-1.62,1.37.63.52,1.33.47l1.65,5.31,1.26-.35-1.41-5.38C54.73,101.46,55.1,101,55,100.7Z" transform="translate(0 -19.21)"/><ellipse class="jcls-10" cx="54.78" cy="110.28" rx="2.12" ry="0.91"/><ellipse class="jcls-10" cx="65.92" cy="129.08" rx="0.91" ry="2.12" transform="translate(-72.3 153.48) rotate(-80.46)"/><ellipse class="jcls-10" cx="59.87" cy="122.19" rx="2.12" ry="0.91" transform="translate(-35.33 5.76) rotate(-18.3)"/><ellipse class="jcls-10" cx="50.56" cy="122.19" rx="0.91" ry="2.12" transform="translate(-78.32 132.59) rotate(-80.46)"/><ellipse class="jcls-10" cx="58.45" cy="97.18" rx="2.12" ry="0.91"/><ellipse class="jcls-10" cx="66.14" cy="115.82" rx="0.91" ry="2.12" transform="translate(-59.04 142.64) rotate(-80.46)"/><ellipse class="jcls-10" cx="59.66" cy="110.17" rx="2.12" ry="0.91" transform="translate(-31.57 5.09) rotate(-18.3)"/><ellipse class="jcls-10" cx="50.1" cy="113.64" rx="0.91" ry="2.12" transform="translate(-70.27 125) rotate(-80.46)"/><circle class="jcls-7" cx="244.19" cy="124.57" r="17.51"/><path class="jcls-8" d="M261.73,143.78a17.89,17.89,0,0,1-2.77,9.41,17.69,17.69,0,0,1-14.73,8.09,18.21,18.21,0,0,1-13.73-6.59,18,18,0,0,1-3.78-10.91,15.2,15.2,0,0,1,7.89-.93c5,.83,6.85,4.13,10.6,5.5C248.32,149.48,253.39,149.5,261.73,143.78Z" transform="translate(0 -19.21)"/><path class="jcls-9" d="M247.59,121.17c0-.62-1.1-1.13-2.45-1.13s-2.45.51-2.45,1.13c0,.45.6.85,1.46,1l.22,7.06H246l.11-7.06C247,122,247.59,121.62,247.59,121.17Z" transform="translate(0 -19.21)"/><path class="jcls-10" d="M256.06,127.59c.29-.39-.17-1.22-1-1.86s-1.79-.83-2.08-.44,0,.82.45,1.34l-3.18,4.56,1.05.78,3.39-4.41C255.29,127.85,255.85,127.88,256.06,127.59Z" transform="translate(0 -19.21)"/><path class="jcls-9" d="M263.83,132.49c.49-.38.2-1.55-.65-2.61s-1.91-1.61-2.4-1.23-.29,1,.11,1.79L255.5,135l1,1.3,5.59-4.3C262.8,132.55,263.48,132.78,263.83,132.49Z" transform="translate(0 -19.21)"/><path class="jcls-10" d="M265,140.2c.44-.22.42-1.17-.05-2.13s-1.21-1.56-1.64-1.34-.4.72-.22,1.39l-4.92,2.59.58,1.18,5-2.36C264.19,140.07,264.67,140.35,265,140.2Z" transform="translate(0 -19.21)"/><path class="jcls-9" d="M266.05,150.29c.62.06,1.23-1,1.36-2.33s-.26-2.49-.88-2.55c-.46,0-.91.52-1.16,1.36l-7.05-.47-.16,1.66,7,.79C265.27,149.62,265.6,150.25,266.05,150.29Z" transform="translate(0 -19.21)"/><path class="jcls-10" d="M260.22,157.64c.36.33,1.24,0,2-.83s1-1.69.64-2-.81-.1-1.37.31l-4.22-3.62-.88,1,4,3.82C260,156.85,260,157.4,260.22,157.64Z" transform="translate(0 -19.21)"/><path class="jcls-9" d="M253.58,164c.23.58,1.44.65,2.7.15s2.1-1.36,1.87-1.94-.87-.57-1.74-.42l-2.78-6.49-1.55.61,2.48,6.61C253.83,163,253.42,163.58,253.58,164Z" transform="translate(0 -19.21)"/><path class="jcls-10" d="M245.66,164.42c0,.49.86.89,1.93.89s1.93-.4,1.93-.89-.47-.67-1.15-.81l-.17-5.55h-1.31l-.09,5.56C246.13,163.76,245.66,164.06,245.66,164.42Z" transform="translate(0 -19.21)"/><path class="jcls-9" d="M234.89,163.23c-.28.55.47,1.5,1.67,2.11s2.42.67,2.7.11c.21-.41-.15-1-.84-1.58l3-6.38-1.49-.76-3.3,6.24C235.8,162.74,235.09,162.82,234.89,163.23Z" transform="translate(0 -19.21)"/><path class="jcls-10" d="M229.48,158.7c-.32.37.07,1.23.87,1.93s1.71,1,2,.61.09-.82-.33-1.37l3.52-4.3-1-.86-3.72,4.13C230.27,158.5,229.71,158.43,229.48,158.7Z" transform="translate(0 -19.21)"/><path class="jcls-9" d="M223.79,152.26c-.56.27-.54,1.47.05,2.69s1.51,2,2.07,1.73c.41-.2.51-.91.29-1.76l6.27-3.25-.72-1.5-6.41,3C224.81,152.43,224.2,152.06,223.79,152.26Z" transform="translate(0 -19.21)"/><path class="jcls-10" d="M223.31,145.41c-.49.06-.77,1-.64,2s.63,1.86,1.12,1.8.6-.55.66-1.24l5.49-.86-.16-1.3-5.53.6C224,145.79,223.66,145.37,223.31,145.41Z" transform="translate(0 -19.21)"/><path class="jcls-9" d="M222.68,136.18c-.6-.14-1.34.82-1.63,2.14s-.06,2.51.55,2.64c.44.1,1-.4,1.32-1.2l6.93,1.35.37-1.62-6.86-1.67C223.38,137,223.13,136.28,222.68,136.18Z" transform="translate(0 -19.21)"/><path class="jcls-10" d="M228.25,130.08c-.41-.27-1.21.23-1.81,1.11s-.74,1.83-.34,2.1.82,0,1.31-.51l4.72,2.95.72-1.09-4.57-3.16C228.54,130.84,228.55,130.28,228.25,130.08Z" transform="translate(0 -19.21)"/><path class="jcls-9" d="M232.49,123.9c-.43-.45-1.57-.06-2.55.87s-1.43,2.06-1,2.51,1,.2,1.77-.27l5,5,1.2-1.14-4.78-5.19C232.64,124.92,232.81,124.23,232.49,123.9Z" transform="translate(0 -19.21)"/><path class="jcls-10" d="M240.48,123.59c-.13-.47-1.07-.62-2.09-.33s-1.76.9-1.63,1.37.64.52,1.33.47l1.65,5.3,1.26-.35-1.4-5.38C240.21,124.36,240.58,123.94,240.48,123.59Z" transform="translate(0 -19.21)"/><ellipse class="jcls-10" cx="240.25" cy="133.18" rx="2.12" ry="0.91"/><ellipse class="jcls-10" cx="251.39" cy="151.98" rx="0.91" ry="2.12" transform="translate(59.85 355.49) rotate(-80.46)"/><ellipse class="cjls-10" cx="245.35" cy="145.09" rx="2.12" ry="0.91" transform="translate(-33.14 65.14) rotate(-18.3)"/><ellipse class="jcls-10" cx="236.03" cy="145.09" rx="0.91" ry="2.12" transform="translate(53.84 334.6) rotate(-80.46)"/><ellipse class="jcls-10" cx="243.92" cy="120.08" rx="2.12" ry="0.91"/><ellipse class="jcls-10" cx="251.61" cy="138.72" rx="0.91" ry="2.12" transform="translate(73.11 344.65) rotate(-80.46)"/><ellipse class="jcls-10" cx="245.14" cy="133.06" rx="2.12" ry="0.91" transform="translate(-29.38 64.47) rotate(-18.3)"/><ellipse class="jcls-10" cx="235.57" cy="136.54" rx="0.91" ry="2.12" transform="translate(61.88 327.01) rotate(-80.46)"/></g></svg>