<svg id="Lag_1" data-name="Lag 1" xmlns="http://www.w3.org/2000/svg" viewBox="0 0 300 299.41"><defs><style>.cls-1{fill:#0d7f36;}.cls-2{fill:#12632e;opacity:0.51;}.cls-3{fill:#2e7339;}.cls-4{fill:#24843c;}</style></defs><ellipse class="cls-1" cx="150.11" cy="155.19" rx="112.9" ry="114.46"/><path class="cls-2" d="M263.24,155.78c-.16,11.81-2.14,36.71-17.91,61.54-19.47,30.63-54.66,52.83-95,52.92-5.36,0-55.38-.73-88.54-43.15C39,198,37.5,166.19,37.43,155.78c11.69-4.52,30-9.6,50.9-6.1,32.48,5.44,44.18,27,68.31,36C176.74,193.07,209.46,193.21,263.24,155.78Z" transform="translate(0 -0.59)"/><path class="cls-3" d="M172,7.92c0-4-7.08-7.33-15.81-7.33S140.4,3.87,140.4,7.92c0,3,3.89,5.58,9.45,6.72q.71,23.06,1.4,46.13H162q.36-23.08.71-46.16C168.18,13.47,172,10.91,172,7.92Z" transform="translate(0 -0.59)"/><path class="cls-4" d="M226.66,50c1.87-2.56-1.08-8-6.6-12.16s-11.52-5.45-13.4-2.88c-1.38,1.89-.12,5.37,2.87,8.74L189.06,73.48l6.78,5.1,21.81-28.84C221.67,51.63,225.28,51.84,226.66,50Z" transform="translate(0 -0.59)"/><path class="cls-3" d="M276.77,82c3.13-2.52,1.26-10.18-4.17-17.11s-12.38-10.51-15.51-8c-2.31,1.86-1.88,6.55.7,11.67L223.05,98.4l6.67,8.5L265.8,78.74C270.11,82.39,274.47,83.84,276.77,82Z" transform="translate(0 -0.59)"/><path class="cls-4" d="M284.26,132.36c2.82-1.4,2.66-7.61-.36-13.88s-7.76-10.2-10.58-8.8c-2.1,1-2.55,4.72-1.42,9.1l-31.7,17,3.71,7.68L276.36,128C279.06,131.52,282.18,133.39,284.26,132.36Z" transform="translate(0 -0.59)"/><path class="cls-3" d="M291.11,198.36c4,.39,7.88-6.43,8.73-15.24s-1.7-16.28-5.67-16.67c-2.95-.29-5.86,3.39-7.51,8.89l-45.43-3.05-1,10.82,45.24,5.18C286,194,288.18,198.07,291.11,198.36Z" transform="translate(0 -0.59)"/><path class="cls-4" d="M253.49,246.42c2.32,2.15,8-.27,12.6-5.42s6.51-11.07,4.19-13.22c-1.72-1.59-5.27-.67-8.87,2L234.2,206.12l-5.69,6.32,26.1,24.92C252.35,241.22,251.78,244.84,253.49,246.42Z" transform="translate(0 -0.59)"/><path class="cls-3" d="M210.68,288c1.46,3.77,9.24,4.2,17.37,1s13.53-8.92,12.07-12.69c-1.08-2.79-5.63-3.75-11.22-2.75q-9-21.21-17.93-42.42l-10,4,16,43.23C212.26,281.44,209.61,285.24,210.68,288Z" transform="translate(0 -0.59)"/><path class="cls-4" d="M159.57,290.76c0,3.19,5.58,5.77,12.45,5.77s12.45-2.58,12.45-5.77c0-2.37-3.06-4.4-7.44-5.29q-.56-18.17-1.1-36.33h-8.45l-.55,36.35C162.59,286.39,159.57,288.41,159.57,290.76Z" transform="translate(0 -0.59)"/><path class="cls-3" d="M90.1,282.94c-1.81,3.61,3,9.8,10.8,13.82s15.56,4.34,17.38.73c1.34-2.67-1-6.75-5.42-10.33q9.7-20.87,19.4-41.75l-9.55-4.93-21.29,40.8C96,279.77,91.43,280.29,90.1,282.94Z" transform="translate(0 -0.59)"/><path class="cls-4" d="M55.2,253.33c-2.07,2.41.45,8.07,5.63,12.66s11,6.35,13.12,3.95c1.53-1.78.55-5.35-2.17-8.94l22.74-28.1-6.36-5.63-24,27C60.31,252.06,56.72,251.56,55.2,253.33Z" transform="translate(0 -0.59)"/><path class="cls-3" d="M18.52,211.23c-3.61,1.75-3.47,9.64.31,17.62s9.76,13,13.36,11.28c2.67-1.29,3.28-6,1.88-11.54L74.5,207.36l-4.64-9.8L28.51,216.87C25.1,212.34,21.17,209.94,18.52,211.23Z" transform="translate(0 -0.59)"/><path class="cls-4" d="M15.42,166.46c-3.13.39-5,6.32-4.11,13.24s4.07,12.2,7.19,11.81c2.32-.3,3.92-3.63,4.26-8.14l35.41-5.62-1-8.49L21.48,173.2C20.06,169,17.71,166.17,15.42,166.46Z" transform="translate(0 -0.59)"/><path class="cls-3" d="M11.38,106.1c-3.9-.9-8.63,5.38-10.56,14s-.34,16.36,3.56,17.26c2.89.66,6.22-2.61,8.55-7.86l44.68,8.81L60,127.73,15.74,116.82C15.86,111.12,14.24,106.76,11.38,106.1Z" transform="translate(0 -0.59)"/><path class="cls-4" d="M47.29,66.23c-2.61-1.78-7.84,1.48-11.66,7.27s-4.82,11.92-2.2,13.7c1.93,1.31,5.3-.13,8.47-3.33l30.38,19.29L77,96.05,47.51,75.35C49.18,71.2,49.21,67.53,47.29,66.23Z" transform="translate(0 -0.59)"/><path class="cls-3" d="M74.64,25.78c-2.75-2.93-10.12-.37-16.44,5.73S49,44.94,51.73,47.88c2,2.17,6.6,1.32,11.41-1.74Q79.33,62.36,95.52,78.58l7.76-7.49L72.42,37.16C75.63,32.48,76.67,27.94,74.64,25.78Z" transform="translate(0 -0.59)"/><path class="cls-4" d="M126.18,23.79c-.84-3.07-6.9-4.05-13.52-2.18s-11.31,5.87-10.47,8.94c.62,2.28,4.11,3.4,8.56,3.07q5.34,17.35,10.66,34.7L129.55,66l-9.07-35.17C124.42,28.82,126.8,26.05,126.18,23.79Z" transform="translate(0 -0.59)"/><ellipse class="cls-4" cx="124.7" cy="211.49" rx="13.65" ry="5.95"/><ellipse class="cls-4" cx="196.54" cy="209.38" rx="5.95" ry="13.66" transform="translate(-43.04 367.12) rotate(-80.27)"/><ellipse class="cls-4" cx="157.56" cy="164.33" rx="13.67" ry="5.95" transform="translate(-44.26 58.39) rotate(-18.64)"/><ellipse class="cls-4" cx="97.49" cy="164.33" rx="5.95" ry="13.66" transform="translate(-80.94 232.06) rotate(-80.27)"/><ellipse class="cls-4" cx="148.38" cy="125.83" rx="13.65" ry="5.95"/><ellipse class="cls-4" cx="197.97" cy="122.7" rx="5.95" ry="13.66" transform="translate(43.58 296.5) rotate(-80.27)"/><ellipse class="cls-4" cx="156.21" cy="85.71" rx="13.67" ry="5.95" transform="translate(-19.2 53.84) rotate(-18.64)"/><ellipse class="cls-4" cx="94.52" cy="108.42" rx="5.95" ry="13.66" transform="translate(-28.31 182.67) rotate(-80.27)"/></svg>