<svg id="Lag_1" data-name="Lag 1" xmlns="http://www.w3.org/2000/svg" viewBox="0 0 300 259.81"><defs><style>.hcls-1{fill:#f0820f;}.hcls-2{fill:#ebb28c;}.hcls-3{fill:#c14617;}.hcls-4{fill:#157332;}.hcls-5{fill:#1d1d1b;}.hcls-6{fill:#293278;}.hcls-7{fill:#ebb28b;}.hcls-8{fill:#dddd38;}</style></defs><polygon class="hcls-1" points="225 0 75 0 0 129.9 75 259.81 225 259.81 300 129.9 225 0"/><path class="cls-2" d="M197.63,53.72c-.29,1.79-.59,3.58-.88,5.36l-2.94,2.79c.46.39,4.59,3.73,9.77,2.42a10.72,10.72,0,0,0,5.57-3.59,13.83,13.83,0,0,1-2.05-4c-.76-2.44-.35-3.62-1.1-4.4S203.19,51.12,197.63,53.72Z" transform="translate(0 -20.1)"/><path class="hcls-2" d="M230.67,117.09c.06.16.18.54.33.53s.25-.42.28-.55l.18-2a6.5,6.5,0,0,1,.48,1.14,17.61,17.61,0,0,1,.38,2.4c.06.34.13.77.24,1.26.07.15.13.21.19.21s.14-.21.18-.59a14.13,14.13,0,0,0,.16-5,13.91,13.91,0,0,0-.78-3c-.15-1.34-.37-3.31-.65-5.7-.29-2.58-.9-7.93-1.15-9.75A57.29,57.29,0,0,0,226,80.69l-3.41,2.42a43.19,43.19,0,0,0,1.47,7.09c.4,1.33.83,2.57,1.28,3.7a33.05,33.05,0,0,0,.66,5.26,32,32,0,0,0,1.88,5.93l2.42,6.46A27.37,27.37,0,0,0,230.67,117.09Z" transform="translate(0 -20.1)"/><path class="hcls-2" d="M179.76,75.41,176,79.1c-1-1.92-2.15-3.9-3.41-5.95-1.71-2.76-3.44-5.27-5.12-7.54l-1.71,1.6A77.56,77.56,0,0,0,169,76.12a75.9,75.9,0,0,0,3.75,7.55,3.4,3.4,0,0,0,2,2.36,3.28,3.28,0,0,0,3.25-.55l6.83-6.66Z" transform="translate(0 -20.1)"/><path class="hcls-3" d="M191.57,173.74c1.55,1,3.77,1,6.55.16l-.44-8.34h-3.47A52.32,52.32,0,0,0,191.57,173.74Z" transform="translate(0 -20.1)"/><path class="hcls-3" d="M222.83,173.74c-1.56,1-3.77,1-6.55.16l.44-8.34h3.47A53.42,53.42,0,0,1,222.83,173.74Z" transform="translate(0 -20.1)"/><path d="M193.67,166.59l4.33.22c1.57-6.62,3.05-13.59,4.38-20.9,1.17-6.4,2.15-12.61,3-18.58,1.52,6.73,3.28,13.73,5.3,21q2.67,9.56,5.56,18.31l4.55.22q-.17-15.7-.64-31.9-.37-12.22-.9-24.17l-28.4.59q.23,12.93.91,26.6Q192.46,152.69,193.67,166.59Z" transform="translate(0 -20.1)"/><path class="hcls-4" d="M189.71,112.21a63.08,63.08,0,0,0,30.83,0l-.6-30.82,2.35,5.72a6.82,6.82,0,0,0,7.34-4Q227.2,76,224.78,68.91a25.36,25.36,0,0,0-16.14-9.17,8.47,8.47,0,0,1-13.28.59A36.9,36.9,0,0,0,191,62.2a35.77,35.77,0,0,0-3.69,2.15,30.5,30.5,0,0,0-8.42,11,7.63,7.63,0,0,0,.41,2.18,7.79,7.79,0,0,0,1.46,2.52,7.82,7.82,0,0,0,1.71,1.08,8,8,0,0,0,1.87.61l4.79-4.68Q189.41,94.64,189.71,112.21Z" transform="translate(0 -20.1)"/><path class="hcls-2" d="M164.44,66.64a3.49,3.49,0,0,0,5.17-1.31,23.93,23.93,0,0,0,.83-2.87c.09-.41.14-.71.27-1.21a17.32,17.32,0,0,1,.72-2.14.78.78,0,0,0-.37-.29,1.13,1.13,0,0,0-1.17.73l-.65,1.4a.64.64,0,0,1-.51.23.66.66,0,0,1-.55-.65l-1.24-4.4a.66.66,0,0,0-.78-.37.65.65,0,0,0-.47.72l.84,3.76a.19.19,0,0,1-.36.08l-1.69-4.4a.64.64,0,0,0-1.16.47l1.46,4.5a.15.15,0,0,1-.09.15.15.15,0,0,1-.18,0l-1.94-3.42a.63.63,0,0,0-.81-.06.61.61,0,0,0-.17.72l1.64,3.47a.23.23,0,0,1-.1.22.24.24,0,0,1-.23,0,9.35,9.35,0,0,0-1.08-1.29l-.36-.34a.53.53,0,0,0-.73,0,.51.51,0,0,0,0,.65c.5.69.87,1.28,1.12,1.68.69,1.13.9,1.68,1.56,2.62A15.92,15.92,0,0,0,164.44,66.64Z" transform="translate(0 -20.1)"/><path class="hcls-2" d="M197.34,54.6c1.17,1.06,2.47,2.24,4.33,2.21,2.66-.05,4.33-2.53,4.55-2.87a6.68,6.68,0,0,0,2.93-5.43,5.08,5.08,0,0,0,2.42-2.64c.2-.54.67-1.78,0-2.64a1.92,1.92,0,0,0-1.1-.66c-.06-4.9-3.7-8.79-7.85-9.17-4.85-.45-9.74,3.94-9.54,9.76a1.65,1.65,0,0,0-1.47-.08c-.7.45-.5,1.67-.44,2.06a4.91,4.91,0,0,0,2.42,3.15A13.08,13.08,0,0,0,197.34,54.6Z" transform="translate(0 -20.1)"/><path d="M194.06,47.34c.11,0,.32.48.77,2.65a1.61,1.61,0,0,0,2.85.67,8.2,8.2,0,0,1,2.41-.38,8.09,8.09,0,0,1,1.59.14,4.87,4.87,0,0,1,2.22-.29,4.71,4.71,0,0,1,1.79.58,1.49,1.49,0,0,0,1.63.34,1.54,1.54,0,0,0,.87-1.06l.87-2.46A33.7,33.7,0,0,1,207.53,57a7.06,7.06,0,0,1-1.8,3.16,6.9,6.9,0,0,1-3.86,1.78,6.73,6.73,0,0,1-3.52-1.16,7.41,7.41,0,0,1-2.53-3.48C193.76,52.47,193.73,47.38,194.06,47.34Z" transform="translate(0 -20.1)"/><path class="hcls-5" d="M194,44.26c.32,0,.56-.85.93-2.14a16.9,16.9,0,0,0,.46-2.21,20.76,20.76,0,0,0,5.16-.77,17.92,17.92,0,0,0,4.08-1.71,4.59,4.59,0,0,1,2.47.44,2.85,2.85,0,0,1,1.14,1c.3,1.67.61,3.33.92,5a1.46,1.46,0,0,0,.8-.25.77.77,0,0,0,.29-.41c.25-.44,2.15-4-.46-7.1a8.9,8.9,0,0,0-3.28-2.33c-.29-.11-5.51-2.06-9.65,0a6.83,6.83,0,0,0-2.6,2.17,8.64,8.64,0,0,0-1.39,4.44C192.82,42.26,193.49,44.27,194,44.26Z" transform="translate(0 -20.1)"/><path class="hcls-6" d="M130.48,185.8l41.41.17a90.58,90.58,0,0,1-4.07,13.45c-1.13,2.9-2.33,5.56-3.54,8a15,15,0,0,0,.18,6.19,14.65,14.65,0,0,0,1.77,4.25c2.47.55,5.13,1,8,1.42a93.07,93.07,0,0,0,17,.7,32.78,32.78,0,0,1,8.5,5.84c18.12,17.39,8.77,50.55,7.75,54h-114c-4.81-24.37-.94-45.18,8.37-50.79A45.59,45.59,0,0,1,116,223.49a67.92,67.92,0,0,0,21.42-4.42l.18-15.4a41,41,0,0,1-4.87-7.08,41.75,41.75,0,0,1-3.22-7.61Z" transform="translate(0 -20.1)"/><path class="hcls-7" d="M130.23,185.8l41.91.17A91.22,91.22,0,0,1,168,199.42c-1.14,2.9-2.36,5.56-3.58,8a14.57,14.57,0,0,0,2,10.44,41.61,41.61,0,0,1-18.42,3.3,41,41,0,0,1-10.77-2.06l.18-15.4A41.37,41.37,0,0,1,129.22,189Z" transform="translate(0 -20.1)"/><path class="hcls-8" d="M137.14,200.19c-17.3-19.46-20.51-43.06-10.88-55.42,5.92-7.58,16.1-10.21,17.67-10.59,2.08-.52,16.88-3.92,27.61,4.72,14.1,11.35,10.2,34.58,5.42,45.07a49.7,49.7,0,0,1-7.9,11.91c-4.2,4.48-7.18,5.66-10.74,8.62-3.91,3.25-8.73,8.82-12,18.88l-1.65,25.24-9.21,14.64a6.49,6.49,0,0,0-2.59,3.3c-.61,2,.24,3.47-.24,3.77-.86.56-5.16-3.32-7-6.75-3.75-7,1.35-16.16,8.14-28.85,3-5.52,5.73-9.85,7.61-12.65q.31-9.39.62-18.76Z" transform="translate(0 -20.1)"/><path d="M146.35,223.18l-5-1.1.1-2.91,5.87,1.29Z" transform="translate(0 -20.1)"/></svg>