<svg id="Lag_1" data-name="Lag 1" xmlns="http://www.w3.org/2000/svg" viewBox="0 0 277.64 287.81"><defs><style>.dcls-1{fill:#ebb28c;}.dcls-2{fill:#c14617;}.dcls-3{fill:#157332;}.dcls-4{fill:#1d1d1b;}.dcls-5{fill:#293278;}.dcls-6{fill:#ebb28b;}.dcls-7{fill:#dddd38;}</style></defs><path class="dcls-1" d="M233.93,43.48l-1.32,8-4.4,4.18c.69.58,6.87,5.59,14.63,3.63a16.07,16.07,0,0,0,8.36-5.39,20.54,20.54,0,0,1-3.08-6c-1.14-3.66-.52-5.43-1.65-6.6S242.26,39.57,233.93,43.48Z" transform="translate(-9.67 -12.19)"/><path class="dcls-1" d="M283.46,138.47c.08.23.27.8.49.79s.38-.63.42-.82l.27-3.05a9.21,9.21,0,0,1,.72,1.7,25.78,25.78,0,0,1,.57,3.6c.08.52.2,1.16.36,1.9.11.21.2.31.28.3s.21-.3.27-.88a21.12,21.12,0,0,0-.93-12c-.23-2-.56-5-1-8.56-.44-3.86-1.36-11.88-1.73-14.6a86.19,86.19,0,0,0-6.76-22.94l-5.12,3.63a64.17,64.17,0,0,0,2.2,10.62c.59,2,1.25,3.85,1.93,5.55a47.5,47.5,0,0,0,3.79,16.78l3.63,9.68C282.89,132.77,283,137,283.46,138.47Z" transform="translate(-9.67 -12.19)"/><path class="dcls-1" d="M207.14,76l-5.61,5.53c-1.52-2.87-3.22-5.85-5.11-8.91-2.56-4.14-5.15-7.9-7.68-11.3l-2.55,2.39A112.63,112.63,0,0,0,191,77.06a115.57,115.57,0,0,0,5.61,11.3,5.2,5.2,0,0,0,3,3.55,4.92,4.92,0,0,0,4.87-.83l10.23-10Z" transform="translate(-9.67 -12.19)"/><path class="dcls-2" d="M224.84,223.38c2.33,1.55,5.65,1.56,9.81.24l-.65-12.5h-5.2A78.81,78.81,0,0,0,224.84,223.38Z" transform="translate(-9.67 -12.19)"/><path class="dcls-2" d="M271.7,223.38c-2.33,1.55-5.65,1.56-9.81.24l.65-12.5h5.2A78.81,78.81,0,0,1,271.7,223.38Z" transform="translate(-9.67 -12.19)"/><path d="M228,212.66l6.49.33c2.35-9.92,4.57-20.37,6.57-31.32q2.64-14.4,4.43-27.86,3.44,15.13,8,31.41,4,14.31,8.33,27.44l6.82.33q-.24-23.53-1-47.82-.56-18.33-1.35-36.22l-42.57.88q.35,19.39,1.36,39.86Q226.19,191.85,228,212.66Z" transform="translate(-9.67 -12.19)"/><path class="dcls-3" d="M222.05,131.15a94.63,94.63,0,0,0,46.21,0q-.43-23.1-.89-46.2l3.52,8.58A10.56,10.56,0,0,0,278.15,92a10.3,10.3,0,0,0,3.74-4.4l-7.26-21.34a38.1,38.1,0,0,0-24.2-13.75,12.68,12.68,0,0,1-19.91.88,54.48,54.48,0,0,0-12.07,6,45.59,45.59,0,0,0-6.19,6.19,46.21,46.21,0,0,0-6.44,10.31,11.72,11.72,0,0,0,.62,3.26,11.33,11.33,0,0,0,2.19,3.77,11.85,11.85,0,0,0,2.56,1.63,11.34,11.34,0,0,0,2.8.91l7.18-7Q221.61,104.8,222.05,131.15Z" transform="translate(-9.67 -12.19)"/><path class="dcls-1" d="M184.18,62.84a5.42,5.42,0,0,0,4.18.86,5.48,5.48,0,0,0,3.57-2.83,35,35,0,0,0,1.23-4.29c.14-.62.22-1.07.42-1.82a23.91,23.91,0,0,1,1.08-3.21,1.08,1.08,0,0,0-.56-.43,1.7,1.7,0,0,0-1.76,1.08l-1,2.11a1,1,0,0,1-.78.34,1,1,0,0,1-.81-1l-1.86-6.61a1,1,0,0,0-1.18-.56,1,1,0,0,0-.7,1.09l1.26,5.63a.29.29,0,0,1-.22.25.28.28,0,0,1-.32-.12l-2.53-6.6a1,1,0,0,0-1.74.71l2.19,6.73a.25.25,0,0,1-.41.21l-2.9-5.13a.92.92,0,0,0-1.22-.09.91.91,0,0,0-.26,1.08l2.47,5.2a.35.35,0,0,1-.16.33.34.34,0,0,1-.34,0,14.3,14.3,0,0,0-1.63-1.93q-.27-.27-.54-.51a.75.75,0,0,0-1.13,1c.75,1,1.31,1.91,1.68,2.52,1,1.69,1.35,2.51,2.33,3.93A23.93,23.93,0,0,0,184.18,62.84Z" transform="translate(-9.67 -12.19)"/><path class="dcls-1" d="M233.49,44.8c1.75,1.59,3.7,3.35,6.49,3.3,4-.07,6.49-3.79,6.82-4.29a10.06,10.06,0,0,0,4.4-8.14,7.74,7.74,0,0,0,3.63-4c.3-.81,1-2.68,0-4a2.89,2.89,0,0,0-1.65-1c-.09-7.34-5.55-13.18-11.77-13.75-7.27-.68-14.61,5.91-14.3,14.63a2.48,2.48,0,0,0-2.2-.11c-1,.66-.75,2.5-.66,3.08.43,2.67,2.83,4.25,3.63,4.73A19.61,19.61,0,0,0,233.49,44.8Z" transform="translate(-9.67 -12.19)"/><path d="M228.58,33.9c.16,0,.47.72,1.15,4a2.41,2.41,0,0,0,4.27,1,12.31,12.31,0,0,1,3.62-.58,11.69,11.69,0,0,1,2.38.22,7,7,0,0,1,6,.43,2.29,2.29,0,0,0,2.46.51,2.34,2.34,0,0,0,1.3-1.59l1.3-3.69a51.4,51.4,0,0,1-2.29,14.14,10.55,10.55,0,0,1-2.7,4.73,10.43,10.43,0,0,1-5.78,2.68A10.28,10.28,0,0,1,235,54c-1.64-1.14-2.7-2.68-3.8-5.23C228.13,41.6,228.09,34,228.58,33.9Z" transform="translate(-9.67 -12.19)"/><path class="dcls-4" d="M228.46,29.29c.48,0,.84-1.27,1.39-3.21a25.22,25.22,0,0,0,.69-3.3,31.25,31.25,0,0,0,7.74-1.17,26.54,26.54,0,0,0,6.1-2.55,6.79,6.79,0,0,1,3.72.65,4.14,4.14,0,0,1,1.69,1.53q.71,3.75,1.39,7.49a2.1,2.1,0,0,0,1.19-.37,1.22,1.22,0,0,0,.45-.61c.37-.67,3.22-6-.7-10.65a13.32,13.32,0,0,0-4.91-3.49c-.43-.17-8.26-3.09-14.47,0a10.26,10.26,0,0,0-3.9,3.25,13.08,13.08,0,0,0-2.08,6.66C226.72,26.29,227.72,29.3,228.46,29.29Z" transform="translate(-9.67 -12.19)"/><path class="dcls-5" d="M58.35,183l51.54.22A114.23,114.23,0,0,1,104.82,200c-1.4,3.61-2.89,6.91-4.4,9.91a18.55,18.55,0,0,0,.22,7.71,18.8,18.8,0,0,0,2.2,5.29c3.08.68,6.39,1.29,9.91,1.76a117.43,117.43,0,0,0,21.15.88,40.18,40.18,0,0,1,10.57,7.27c22.55,21.63,10.92,62.91,9.65,67.18H12.25c-6-30.34-1.17-56.23,10.41-63.22A56.93,56.93,0,0,1,40.28,230a84.75,84.75,0,0,0,26.66-5.5q.11-9.58.22-19.17A51.78,51.78,0,0,1,57.1,187Z" transform="translate(-9.67 -12.19)"/><path class="dcls-6" d="M58.05,183l52.15.22A113.8,113.8,0,0,1,105.07,200c-1.42,3.61-2.93,6.91-4.46,9.91a18.41,18.41,0,0,0,2.45,13A51.74,51.74,0,0,1,80.15,227a51,51,0,0,1-13.41-2.56q.11-9.58.22-19.17A51.7,51.7,0,0,1,56.78,187Z" transform="translate(-9.67 -12.19)"/><path class="dcls-7" d="M66.64,201c-21.53-24.21-25.52-53.59-13.54-69,7.36-9.44,20-12.71,22-13.19,2.6-.64,21-4.88,34.36,5.88,17.55,14.12,12.7,43,6.75,56.09a61.53,61.53,0,0,1-9.83,14.83c-5.23,5.57-8.93,7-13.37,10.72-4.87,4.05-10.87,11-15,23.5q-1,15.7-2,31.42L64.51,279.44a8.16,8.16,0,0,0-3.23,4.11c-.76,2.46.3,4.32-.29,4.7-1.07.7-6.43-4.14-8.7-8.4-4.67-8.76,1.68-20.12,10.13-35.91,3.68-6.87,7.13-12.26,9.47-15.75q.39-11.67.77-23.35Z" transform="translate(-9.67 -12.19)"/><path d="M78.11,229.56l-6.22-1.37.12-3.61,7.32,1.6Z" transform="translate(-9.67 -12.19)"/></svg>