<svg id="Lag_1" data-name="Lag 1" xmlns="http://www.w3.org/2000/svg" viewBox="0 0 300 259.81"><defs><style>.kcls-1{fill:#f0820f;}.kcls-2{fill:#ebb28b;}.kcls-2,.kcls-3,.kcls-4{stroke:#1d1d1b;stroke-width:0.5px;}.kcls-2,.kcls-3,.kcls-4,.kcls-5,.kcls-6{stroke-miterlimit:10;}.kcls-3{fill:#424a9a;}.kcls-4{fill:#1d7b34;}.kcls-5{fill:none;stroke-width:20px;}.kcls-5,.kcls-6{stroke:#cc1517;}.kcls-6{fill:#cc1517;stroke-width:2px;}</style></defs><polygon class="kcls-1" points="225 0 75 0 0 129.9 75 259.81 225 259.81 300 129.9 225 0"/><path class="kcls-2" d="M209.66,164.32l-18.72-37.8-4.63,2.67L161,125.09a13,13,0,0,0-9.8-1.25,12.55,12.55,0,0,0-5.71,3.57l-18.36,10.34L126,146.67c-3.39,1.72-4.7,5.58-3.39,8.38,1.13,2.42,4.38,3.1,5.88,3.39,10.56,2,22.38-10.21,25.32-13.38l7.31,4.46c3.19,2.65,6.48,5.62,9.81,8.92a154.35,154.35,0,0,1,15.69,18.18Z" transform="translate(0 -20.1)"/><path class="kcls-2" d="M91.62,164.32a4.13,4.13,0,0,1-3.21-1.07q9.9-18.72,19.79-37.44l7.14,3.56L138.52,121a2.84,2.84,0,0,1,3,2,2.92,2.92,0,0,1-.71,2.5,37,37,0,0,1-4.64,3.92c-4.8,3.43-7.76,3.79-10.35,7.07a13.28,13.28,0,0,0-2.31,4.52l-.18,4.46c-3.79,3.07-4.9,8-3,11.41,1.75,3.25,5.47,4,6.06,4.1l3.39,2.68-5.17,4.63c-2-4.06-5.94-6.52-9.81-6.24a9.45,9.45,0,0,0-5.53,2.5c-.33-.52-4.06-6.24-8.78-5.81a9.92,9.92,0,0,0-4,1.53C93.87,161.93,93.52,164,91.62,164.32Z" transform="translate(0 -20.1)"/><path class="kcls-2" d="M155.28,148.27a156.38,156.38,0,0,1,14.44,13,155.32,155.32,0,0,1,15.52,18.54A6.36,6.36,0,0,1,177,185.9l-18.72-19.08a1.53,1.53,0,0,0-1.2.58A1.47,1.47,0,0,0,157,169l16.36,16.14a5.83,5.83,0,0,1-8.7,7.09l-13-12.84c-.29,0-1.4-.22-1.77.33s0,1.13.17,1.41c1,2.19,9.83,9.94,11.9,11.77a4.56,4.56,0,0,1-.8,4.81,4.63,4.63,0,0,1-5.75.67l-11.64-11.24a1.13,1.13,0,1,0-1.6,1.48l8.29,8a4.64,4.64,0,0,1-.2,5.08c-1.47,1.78-4.77,2-7-.13l-5.22-3.35a8.47,8.47,0,0,0,.6-8.76,8.35,8.35,0,0,0-4.94-3.87c.4-.49,2.71-3.41,1.93-6.82a9.05,9.05,0,0,0-2.74-4.35,12.82,12.82,0,0,0-3.34-2.41Z" transform="translate(0 -20.1)"/><path class="kcls-2" d="M130.11,188.68c.37-.13,3.48-1.2,5.69.87a5.68,5.68,0,0,1,1.47,4.95,6.78,6.78,0,0,1-3,5.15,6.48,6.48,0,0,1-6.69,0,7.11,7.11,0,0,1-1.67-3.88A7,7,0,0,1,130.11,188.68Z" transform="translate(0 -20.1)"/><path class="kcls-2" d="M111.32,165.68a5.83,5.83,0,0,1,7.09-.27l13,10.9a4.69,4.69,0,0,1,1.07,7.36L124.5,193a5.88,5.88,0,0,1-6.49,1.4l-14.58-12.37a5.51,5.51,0,0,1,.67-7.22Z" transform="translate(0 -20.1)"/><path class="kcls-2" d="M97.82,161.9a6.48,6.48,0,0,1,2.5-.63,6.65,6.65,0,0,1,2.75.47,6.45,6.45,0,0,1,3.64,3.41c.84,2.16-.08,4.19-.7,5.55-.48,1-1.83,4-5,4.94a6.28,6.28,0,0,1-4.21-.1c-2.9-1.19-4.5-4.82-3.91-7.95C93.58,163.81,97.22,162.17,97.82,161.9Z" transform="translate(0 -20.1)"/><rect class="kcls-3" x="48.94" y="109.66" width="50.31" height="43.17" transform="translate(70.86 -39.53) rotate(28.22)"/><rect class="kcls-4" x="200.91" y="111.13" width="50.31" height="43.17" transform="translate(487.74 128.38) rotate(153.03)"/><circle class="kcls-5" cx="149.45" cy="129.9" r="106.19"/><rect class="kcls-6" x="140.24" y="47.77" width="14.98" height="212.37" transform="translate(147.3 -79.51) rotate(43.7)"/></svg>