<svg id="Lag_1" data-name="Lag 1" xmlns="http://www.w3.org/2000/svg" viewBox="0 0 301.15 260.81"><defs><style>.zcls-1{fill:#f08314;stroke:#1e1e1c;}.zcls-1,.zcls-2,.zcls-3{stroke-miterlimit:10;}.zcls-2{fill:#ebb28c;}.zcls-2,.zcls-3{stroke:#1d1d1b;}.zcls-3{fill:#6f2382;}.zcls-4{fill:#a0ccd6;opacity:0.53;}.zcls-5{fill:#dfeeef;opacity:0.5;}.zcls-6{fill:#fff;}</style></defs><polygon class="zcls-1" points="225.58 0.5 75.58 0.5 0.58 130.4 75.58 260.31 225.58 260.31 300.58 130.4 225.58 0.5"/><path class="zcls-2" d="M166.1,112A38.93,38.93,0,0,1,188,133.55c6.48,16.56-1.52,30.95-2.56,32.77A262.51,262.51,0,0,1,164.67,191c-3.16,3.29-5.55,5.6-9.25,9.79a177.88,177.88,0,0,0-14.88,19.38,7.56,7.56,0,0,1-4.81-1.62c-3.24-2.72-3.79-8.88-.54-14.85q4.37-7.11,8.72-14.24a6.42,6.42,0,0,0-10.09-7.06l-47,15.41a7.12,7.12,0,0,1-4.42-13.46l38.82-15a2.13,2.13,0,0,0-1.4-3.76L70.11,177a7.26,7.26,0,0,1-7-6.53,7.09,7.09,0,0,1,4.24-6.72l49.17-14a1.78,1.78,0,0,0,.67-2.42,1.73,1.73,0,0,0-1.06-.83l-42.48,3.16a6.51,6.51,0,0,1,0-12.84l41.13-6.1a2.33,2.33,0,0,0-.17-4.23,103.37,103.37,0,0,1-18.14-2c-1.79-.35-3.53-.76-5.16-1.17a5.46,5.46,0,0,1,1.37-10.8c9.23.33,16.73.17,21.84,0,14.35-.6,20.54-2,32.95-1.83A154.51,154.51,0,0,1,166.1,112Z" transform="translate(0.58 -19.6)"/><path class="zcls-3" d="M266.05,136.76,244.32,79.64l-78.1,29.7A111,111,0,0,1,188,166.48Z" transform="translate(0.58 -19.6)"/><path class="zcls-4" d="M190.81,163.57c0-11.56-8.91-21.34-21.22-24.72,0-.43.09-.85.09-1.28,0-12.67-15.37-22.94-34.33-22.94a50.93,50.93,0,0,0-6,.37c0-.13,0-.25,0-.37,0-11.12-15.38-20.14-34.34-20.14s-34.33,9-34.33,20.14c0,3.8,1.82,7.34,4.94,10.37-11.53,2.43-20,10.16-20,19.34,0,7.38,5.47,13.82,13.61,17.33a43.92,43.92,0,0,0-4.52,20c0,13.37,5.28,24.79,12.73,29.44a24.9,24.9,0,0,0,47,8.33,34.12,34.12,0,0,0,27.77,13.73c18.42,0,33.34-13.75,33.34-30.71a28.7,28.7,0,0,0-4.1-14.75C182.82,183.85,190.81,174.51,190.81,163.57Zm-89.68-24.43-1,.33a17.06,17.06,0,0,0-2.53-4.78c1.27-.06,2.52-.14,3.75-.28a15.24,15.24,0,0,0-.37,3.16C101,138.1,101.08,138.62,101.13,139.14Z" transform="translate(0.58 -19.6)"/><path class="zcls-2" d="M170.17,160.92c-5.68,11-9.82,15.85-17.08,28.25-2.58,4.42-6.24,11-10.27,19.27a5.46,5.46,0,0,1-10.18-3.86c.4-1.63.86-3.35,1.38-5.11a104,104,0,0,1,6.78-16.93,2.35,2.35,0,0,0-.41-1.56,2.32,2.32,0,0,0-3.24-.57l-24.68,33.45a6.51,6.51,0,0,1-11.35-6l22.73-36a1.78,1.78,0,0,0-2.7-1.87L85.77,206.82a7.11,7.11,0,0,1-7.93.59,7.24,7.24,0,0,1-2.48-9.23l33.35-38.55a2.14,2.14,0,0,0-2.67-3L74.59,183.89a7.12,7.12,0,0,1-9.81-10.21l35.67-34.31a7.07,7.07,0,0,0,3.33-8.44A7,7,0,0,0,99,127.15l-16.67,1c-6.8.07-12-3.3-12.86-7.44a7.56,7.56,0,0,1,.82-5,180.13,180.13,0,0,0,24.1-4c5.44-1.31,8.6-2.34,13-3.58a260.49,260.49,0,0,1,31.5-6.78c2.09-.07,18.56-.38,30.14,13.11a38.89,38.89,0,0,1,8.77,29.44A156.37,156.37,0,0,1,170.17,160.92Z" transform="translate(0.58 -19.6)"/><path class="zcls-3" d="M139.88,99a111.05,111.05,0,0,1,40.27,46L243,90,202.75,44Z" transform="translate(0.58 -19.6)"/><circle class="zcls-5" cx="56.48" cy="117.35" r="3.95"/><ellipse class="zcls-6" cx="56.16" cy="115.57" rx="1.93" ry="1.1"/><circle class="zcls-5" cx="164.09" cy="191.14" r="5.01"/><ellipse class="zcls-6" cx="163.68" cy="188.89" rx="2.45" ry="1.4"/><circle class="zcls-5" cx="96.13" cy="84.45" r="3.95"/><ellipse class="zcls-6" cx="95.81" cy="82.67" rx="1.93" ry="1.1"/><circle class="zcls-5" cx="93.88" cy="194.23" r="3.95"/><ellipse class="zcls-6" cx="93.56" cy="192.46" rx="1.93" ry="1.1"/><circle class="zcls-5" cx="51.28" cy="100.57" r="5"/><ellipse class="zcls-6" cx="50.87" cy="98.32" rx="2.45" ry="1.4"/><circle class="zcls-5" cx="47.82" cy="151.31" r="5.5"/><ellipse class="zcls-6" cx="47.37" cy="148.84" rx="2.69" ry="1.54"/><circle class="zcls-5" cx="116.02" cy="214.69" r="5.09"/><ellipse class="zcls-6" cx="115.61" cy="212.41" rx="2.49" ry="1.42"/><circle class="zcls-5" cx="57.34" cy="195.42" r="5.13"/><ellipse class="zcls-6" cx="56.92" cy="193.11" rx="2.51" ry="1.43"/></svg>