<?xml version="1.0" encoding="utf-8"?>
<!-- Generator: Adobe Illustrator 23.0.3, SVG Export Plug-In . SVG Version: 6.00 Build 0)  -->
<svg version="1.1" xmlns="http://www.w3.org/2000/svg" xmlns:xlink="http://www.w3.org/1999/xlink" x="0px" y="0px"
	 viewBox="0 0 60 60" style="enable-background:new 0 0 60 60;" xml:space="preserve">
<style type="text/css">
	.st0{fill:#FFFFFF;stroke:#000000;stroke-miterlimit:10;}
</style>
<g id="Layer_1">
	<path class="st0" d="M31.04,21.58c2.38,3.05,3.42,6.01,2.39,7.42c-0.07,0.09-0.7,0.93-1.67,0.99c-1.23,0.08-2.13-1.16-2.22-1.29
		C28.42,27.16,29.07,24.33,31.04,21.58z"/>
	<rect x="14.95" y="1.32" width="11.07" height="2.92"/>
	<rect x="17.46" y="3.8" transform="matrix(-1.836970e-16 1 -1 -1.836970e-16 25.7512 -15.2188)" width="6.05" height="2.92"/>
	<rect x="17.07" y="7.83" transform="matrix(-1 -1.224647e-16 1.224647e-16 -1 40.925 18.5825)" width="6.8" height="2.92"/>
	<rect x="11.04" y="10.01" transform="matrix(-1 -1.224647e-16 1.224647e-16 -1 44.8633 23.9737)" width="22.78" height="3.95"/>
	<path d="M31.96,18.87c1.68,0,3.36,0,5.04,0c0-2.25,0-4.5,0-6.75c-0.06-0.69-0.34-1.1-0.5-1.28c-0.74-0.88-2.28-1.09-3.78-0.44
		c-0.22,0.9-0.45,1.79-0.67,2.69C32.02,15.01,31.99,16.94,31.96,18.87z"/>
</g>
<g id="Layer_2">
	<path class="st0" d="M10.12,45.28c1.32,4.08,2.64,8.16,3.96,12.24c3.46-0.07,7.66-0.44,12.36-1.44c4.81-1.03,8.89-2.46,12.12-3.84
		c0.65-0.57,0.81-1.5,0.42-2.22c-0.34-0.63-1.06-0.99-1.8-0.9c-3.38,0.98-6.76,1.96-10.14,2.94c4.5-1.3,9-2.6,13.5-3.9
		c0.03-0.04,0.73-0.99,0.3-2.04c-0.34-0.82-1.21-1.34-2.16-1.26c-4.12,1.34-8.24,2.68-12.36,4.02c4.62-1.5,9.24-3,13.86-4.5
		c0.58-0.43,0.99-1.06,0.9-1.62c-0.13-0.84-1.38-1.65-2.94-1.26c-4.34,1.24-8.68,2.48-13.02,3.72c4.65-1.33,9.3-2.66,13.95-3.99
		c0.04-0.07,0.49-0.9,0.09-1.71c-0.37-0.73-1.29-1.14-2.2-0.9c-5.09,1.27-10.17,2.55-15.26,3.82c1.26-1.64,2.52-3.27,3.78-4.9
		c0.65-1.08,0.65-2.18,0.23-2.52c-0.47-0.37-1.74-0.05-2.66,1.22c-0.88,1.46-2.65,3.98-5.76,6.07
		C14.46,44.22,11.75,44.96,10.12,45.28z"/>
	<path class="st0" d="M37.45,28.23c2.38,3.05,3.42,6.01,2.38,7.43c-0.07,0.09-0.7,0.93-1.67,0.99c-1.23,0.08-2.13-1.16-2.22-1.29
		C34.83,33.81,35.48,30.97,37.45,28.23z"/>
</g>
</svg>
