<svg id="Lag_1" data-name="Lag 1" xmlns="http://www.w3.org/2000/svg" viewBox="0 0 300 259.81"><defs><style>.bcls-1{fill:#f0820f;}.bcls-2,.bcls-4{fill:#4eb9ab;}.bcls-3{fill:none;}.bcls-3,.bcls-4{stroke:#d8e5e2;stroke-miterlimit:10;stroke-width:5px;}.bcls-5{fill:#48a898;}.bcls-6{fill:#356159;}</style></defs><polygon class="bcls-1" points="225 0 75 0 0 129.9 75 259.81 225 259.81 300 129.9 225 0"/><path class="bcls-2" d="M701.13,43.54" transform="translate(0 -20.1)"/><ellipse class="bcls-3" cx="87.88" cy="128.88" rx="61.39" ry="37.86"/><ellipse class="bcls-3" cx="212.12" cy="128.88" rx="61.39" ry="37.86"/><path class="bcls-4" d="M63.33,108.51v81.34a385.67,385.67,0,0,0,85.37,9.72,385.31,385.31,0,0,0,86.52-9.72v-81a452.29,452.29,0,0,0-171.89-.34Z" transform="translate(0 -20.1)"/><path class="bcls-5" d="M233.49,110.2a446.18,446.18,0,0,0-84-8.21h-.33v96.77a380.07,380.07,0,0,0,84.35-9.48Z" transform="translate(0 -20.1)"/><path class="bcls-2" d="M64.78,109.87v79.41a380,380,0,0,0,83.79,9.49h.57V102A446.3,446.3,0,0,0,64.78,109.87Z" transform="translate(0 -20.1)"/><path class="bcls-6" d="M77,132.17l76.76-2.85L224.48,132l-70.61,1.29Z" transform="translate(0 -20.1)"/><path class="bcls-6" d="M77,145.64l76.76-2.85,70.74,2.68-70.61,1.29Z" transform="translate(0 -20.1)"/><path class="bcls-6" d="M77,157.84,153.74,155l70.74,2.67L153.87,159Z" transform="translate(0 -20.1)"/><path class="bcls-6" d="M75.52,170l76.76-2.85L223,169.86l-70.61,1.29Z" transform="translate(0 -20.1)"/></svg>