<svg id="Lag_1" data-name="Lag 1" xmlns="http://www.w3.org/2000/svg" viewBox="0 0 288.41 118.74"><defs><style>.fcls-1,.fcls-3{fill:#4eb9ab;}.fcls-2{fill:none;}.fcls-2,.fcls-3{stroke:#d8e5e2;stroke-miterlimit:10;stroke-width:5px;}.fcls-4{fill:#48a898;}.fcls-5{fill:#356159;}</style></defs><path class="fcls-1" d="M701.13,43.54" transform="translate(-6.63 -88.85)"/><ellipse class="fcls-2" cx="72.93" cy="58.2" rx="70.43" ry="43.43"/><ellipse class="fcls-2" cx="215.48" cy="58.2" rx="70.43" ry="43.43"/><path class="fcls-3" d="M51.39,100.61v93.33a441.68,441.68,0,0,0,98,11.15,442,442,0,0,0,99.27-11.15V101a518.9,518.9,0,0,0-197.22-.39Z" transform="translate(-6.63 -88.85)"/><path class="fcls-4" d="M246.63,102.55a512.33,512.33,0,0,0-96.4-9.42h-.38v111a435.93,435.93,0,0,0,96.78-10.88Z" transform="translate(-6.63 -88.85)"/><path class="fcls-1" d="M53.06,102.17v91.12a435.31,435.31,0,0,0,96.14,10.88h.65v-111A512.51,512.51,0,0,0,53.06,102.17Z" transform="translate(-6.63 -88.85)"/><path class="fcls-5" d="M67.05,127.76l88.07-3.27,81.17,3.07-81,1.49Z" transform="translate(-6.63 -88.85)"/><path class="fcls-5" d="M67.05,143.22,155.12,140,236.29,143l-81,1.48Z" transform="translate(-6.63 -88.85)"/><path class="fcls-5" d="M67.05,157.21l88.07-3.27L236.29,157l-81,1.49Z" transform="translate(-6.63 -88.85)"/><path class="fcls-5" d="M65.38,171.2l88.07-3.27L234.62,171l-81,1.49Z" transform="translate(-6.63 -88.85)"/></svg>