<svg id="Lag_1" data-name="Lag 1" xmlns="http://www.w3.org/2000/svg" viewBox="0 0 293.84 293.84"><defs><style>.ccls-1{fill:#fff;}.ccls-2{fill:#1d1d1b;}.ccls-3{fill:#424a9a;}.ccls-4{fill:#1d7b34;}.ccls-5{fill:none;stroke-width:20px;}.ccls-5,.ccls-6{stroke:#cc1517;stroke-miterlimit:10;}.ccls-6{fill:#cc1517;stroke-width:2px;}</style></defs><circle class="ccls-1" cx="146.92" cy="146.46" r="136.92"/><path class="ccls-2" d="M227.93,168.88l-24.14-48.74-6,3.45-32.65-5.29a16.82,16.82,0,0,0-12.64-1.61,16.13,16.13,0,0,0-7.36,4.6l-23.68,13.33-1.38,11.5c-4.36,2.22-6.06,7.19-4.37,10.81,1.46,3.13,5.65,4,7.59,4.37,13.61,2.58,28.85-13.16,32.65-17.25l9.42,5.75c4.11,3.42,8.36,7.24,12.65,11.5a197.62,197.62,0,0,1,20.23,23.45Z" transform="translate(-3.37 -3.5)"/><path class="ccls-2" d="M75.72,168.88c-.85.15-2.22.06-4.14-1.38l25.53-48.28,9.19,4.6L136.19,113a3.65,3.65,0,0,1,3.91,2.53,3.72,3.72,0,0,1-.92,3.22,47.74,47.74,0,0,1-6,5.06c-6.19,4.42-10,4.88-13.34,9.11a17.22,17.22,0,0,0-3,5.83c-.08,1.92-.15,3.84-.23,5.75-4.89,4-6.32,10.27-3.91,14.72,2.26,4.18,7.06,5.15,7.82,5.29l4.37,3.44-6.67,6c-2.65-5.24-7.65-8.41-12.65-8.05a12.15,12.15,0,0,0-7.12,3.22c-.43-.67-5.24-8-11.33-7.49a12.8,12.8,0,0,0-5.23,2C78.62,165.8,78.17,168.47,75.72,168.88Z" transform="translate(-3.37 -3.5)"/><path class="ccls-2" d="M157.81,148.19a200.4,200.4,0,0,1,38.62,40.7,8.17,8.17,0,0,1-10.57,7.82L161.72,172.1a2,2,0,0,0-1.56.75,1.93,1.93,0,0,0-.11,2.07l21.09,20.81a7.5,7.5,0,0,1-11.2,9.14l-16.73-16.56c-.37-.06-1.81-.28-2.29.43s.05,1.46.22,1.81c1.35,2.84,12.67,12.83,15.35,15.18A5.73,5.73,0,0,1,158,212.8l-15-14.49a1.46,1.46,0,1,0-2.07,1.9l10.7,10.35a6,6,0,0,1-.26,6.55c-1.9,2.3-6.15,2.61-9.06-.17l-6.72-4.31a10.92,10.92,0,0,0,.77-11.3,10.77,10.77,0,0,0-6.38-5c.52-.63,3.5-4.4,2.5-8.79a11.81,11.81,0,0,0-3.53-5.61,16.26,16.26,0,0,0-4.31-3.1Z" transform="translate(-3.37 -3.5)"/><path class="ccls-2" d="M125.36,200.3c.47-.17,4.48-1.55,7.33,1.12,2.6,2.44,1.94,6.12,1.89,6.38a8.68,8.68,0,0,1-3.88,6.64,8.34,8.34,0,0,1-8.62,0,9.17,9.17,0,0,1-2.15-5C119.6,205.82,121.62,201.65,125.36,200.3Z" transform="translate(-3.37 -3.5)"/><path class="ccls-2" d="M101.13,170.64a7.51,7.51,0,0,1,9.14-.35L127,184.35a6.06,6.06,0,0,1,1.38,9.48L118.12,205.9a7.61,7.61,0,0,1-8.37,1.81l-18.8-16a7.08,7.08,0,0,1,.87-9.31Z" transform="translate(-3.37 -3.5)"/><path class="ccls-2" d="M83.71,165.77a8.38,8.38,0,0,1,6.77-.22,8.32,8.32,0,0,1,4.7,4.4c1.09,2.79-.1,5.4-.91,7.15-.61,1.35-2.36,5.17-6.46,6.38a8.11,8.11,0,0,1-5.43-.12c-3.74-1.55-5.81-6.23-5-10.27C78.25,168.23,82.94,166.11,83.71,165.77Z" transform="translate(-3.37 -3.5)"/><rect class="ccls-3" x="20.69" y="98.4" width="64.87" height="55.67" transform="translate(62.63 -13.61) rotate(28.22)"/><rect class="ccls-4" x="216.65" y="100.29" width="64.87" height="55.67" transform="translate(525.82 125.87) rotate(153.03)"/><circle class="ccls-5" cx="146.92" cy="146.92" r="136.92"/><rect class="ccls-6" x="138.41" y="18.6" width="19.31" height="273.84" transform="translate(145.1 -62.71) rotate(43.7)"/></svg>