<svg id="Lag_1" data-name="Lag 1" xmlns="http://www.w3.org/2000/svg" viewBox="0 0 194.34 190.05"><defs><style>.icls-1{fill:#60c2d3;}.icls-1,.icls-2,.icls-3,.icls-4,.icls-5,.icls-6,.icls-7,.icls-8{stroke:#010101;stroke-miterlimit:10;}.icls-2{fill:#bfe5f8;}.icls-3,.icls-8{fill:#50b4e7;}.icls-3{fill-opacity:0.7;}.icls-4{fill:#06688f;}.icls-5{fill:#ebb28b;}.icls-6{fill:#fdfdfd;}.icls-7{fill:#fff;}.icls-9{fill:#d5ecf5;opacity:0.48;}</style></defs><polygon class="icls-1" points="155 38.85 138.04 38.85 129.56 53.53 138.04 68.22 155 68.22 163.47 53.53 155 38.85"/><path class="icls-2" d="M210.78,229.78a215.22,215.22,0,0,1-31,2.44A215.9,215.9,0,0,1,147,229.91a16.79,16.79,0,0,1-15.21-16V117.24a21.64,21.64,0,0,1,4.52-10.81,21.94,21.94,0,0,1,10.46-7.16,121.9,121.9,0,0,1,64-1.54c2.31.47,7.74,1.93,10.86,6.53a25,25,0,0,1,3.16,8.43,34.86,34.86,0,0,1,.7,4.55v96.63a16.62,16.62,0,0,1-14.73,15.91Z" transform="translate(-31.67 -42.67)"/><path class="icls-3" d="M137.33,116.56c-.94,16-1.49,32.85-1.49,50.55s.55,34.54,1.49,50.49h83.09c1-16.06,1.66-35.43,1.49-57.43-.21-24.91-1.46-43.39-1.46-43.39s1.47,21.62,1.49,50.49c0,29.41-1.49,50.55-1.49,50.55s1.68-24.33,1.46-56.57c-.12-18.8-.85-34.23-1.46-44.47Z" transform="translate(-31.67 -42.67)"/><path class="icls-4" d="M151.46,137.51v63.78h53.45V136.65a52.82,52.82,0,0,0-53.45.86Z" transform="translate(-31.67 -42.67)"/><g id="Layer_2" data-name="Layer 2"><path class="icls-5" d="M41.94,148q6.83,15.61,13.64,31.25a175.16,175.16,0,0,0,32.23-7,176.15,176.15,0,0,0,31-13.29,4.83,4.83,0,0,0,.52-6,4.75,4.75,0,0,0-5-1.9l-26,10.4,34.59-13.81a5.89,5.89,0,0,0,.26-5.46,5.61,5.61,0,0,0-6-2.76L85.61,153.23,121,137.74c1.42-1.28,2.33-3.05,2-4.51-.56-2.18-4.07-4-8.08-2.55l-33.38,13.2,35.76-14.16a5.14,5.14,0,0,0-.21-4.53,5.07,5.07,0,0,0-6-1.8q-19.64,7-39.25,14,4.34-7,8.69-13.91c1.43-3,1.14-5.92,0-6.7-1.34-.86-4.6.32-6.7,3.91a51.15,51.15,0,0,1-13.61,17.51A51.77,51.77,0,0,1,41.94,148Z" transform="translate(-31.67 -42.67)"/><path class="icls-5" d="M32.32,166.91q5.25,16.22,10.49,32.44a174,174,0,0,0,32.76-3.81,175.15,175.15,0,0,0,32.13-10.18,4.82,4.82,0,0,0,1.11-5.89,4.75,4.75,0,0,0-4.77-2.38l-26.88,7.79L113,174.54a5.88,5.88,0,0,0,.79-5.4A5.6,5.6,0,0,0,108,165.8L75.26,176.45,112,164.52c1.54-1.14,2.63-2.81,2.39-4.29-.35-2.23-3.66-4.37-7.79-3.34l-34.51,9.86,37-10.58a5.14,5.14,0,0,0,.24-4.53,5.07,5.07,0,0,0-5.83-2.38q-20.23,5-40.45,10.12,5-6.52,10-13c1.72-2.86,1.72-5.77.61-6.68s-4.61-.13-7,3.24A51.24,51.24,0,0,1,51.32,159,51.83,51.83,0,0,1,32.32,166.91Z" transform="translate(-31.67 -42.67)"/><path class="icls-6" d="M198.49,158.16H186.28V146a3.26,3.26,0,0,0-3.26-3.26h-8.26A3.26,3.26,0,0,0,171.5,146v12.21H159.29a3.26,3.26,0,0,0-3.27,3.26v8.26a3.26,3.26,0,0,0,3.27,3.26H171.5v12.22a3.26,3.26,0,0,0,3.26,3.26H183a3.26,3.26,0,0,0,3.26-3.26V172.94h12.21a3.26,3.26,0,0,0,3.27-3.26v-8.26A3.26,3.26,0,0,0,198.49,158.16Z" transform="translate(-31.67 -42.67)"/></g><rect class="icls-7" x="143.76" y="16.54" width="5.51" height="22.31"/><path class="icls-1" d="M189.3,43.17H165.83a4.36,4.36,0,0,0-4.24,3.35H125.9v15h6v-9h29.6v2a4.38,4.38,0,0,0,4.37,4.38H189.3a4.38,4.38,0,0,0,4.38-4.38V47.55A4.38,4.38,0,0,0,189.3,43.17Z" transform="translate(-31.67 -42.67)"/><path class="icls-8" d="M137.33,116.37c0,2.18,21.71,4.56,40.92,4.61,19.85,0,42.21-2.38,42.2-4.61s-23.24-4.3-42.58-4.23C159.69,112.21,137.35,114.16,137.33,116.37Z" transform="translate(-31.67 -42.67)"/><path class="icls-8" d="M137.33,217.93c0,2.18,21.71,4.56,40.92,4.61,19.85.05,42.21-2.38,42.2-4.61s-23.24-4.3-42.58-4.23C159.69,213.77,137.35,215.72,137.33,217.93Z" transform="translate(-31.67 -42.67)"/><path class="icls-9" d="M138.74,115.86c.73-.87,2.85-3.39,4.42-2.88,3,1,1.83,12,1.53,15.18-3.49,37.51,3.87,97-2,97.61C135.2,226.56,128.23,128.36,138.74,115.86Z" transform="translate(-31.67 -42.67)"/></svg>