<?xml version="1.0" encoding="utf-8"?>
<!-- Generator: Adobe Illustrator 23.0.3, SVG Export Plug-In . SVG Version: 6.00 Build 0)  -->
<svg version="1.1" id="Layer_1" xmlns="http://www.w3.org/2000/svg" xmlns:xlink="http://www.w3.org/1999/xlink" x="0px" y="0px"
	 viewBox="0 0 600 400" style="enable-background:new 0 0 600 400;" xml:space="preserve">
<style type="text/css">
	.st0y{fill:#FFFFFF;}
	.st1y{fill:#ED1C24;}
	.st2y{fill:#3C2415;}
	.st3y{fill:#726658;}
	.st4y{fill:#8B5E3C;}
</style>
<g>
	<rect class="st0y" width="600" height="400"/>
	<rect class="st1y" width="195.32" height="168.76"/>
	<rect y="231.24" class="st1y" width="195.32" height="168.76"/>
	<rect x="257.72" class="st1y" width="342.28" height="168.76"/>
	<rect x="257.72" y="231.24" class="st1y" width="342.28" height="168.76"/>
</g>
<g>
	<path class="st2y" d="M334.76,30.57c5.6,3.41,11.19,6.83,16.79,10.24c-5.08,7-10.16,13.99-15.24,20.99
		c-5.49-3.28-10.98-6.57-16.46-9.85C324.82,44.82,329.79,37.69,334.76,30.57z"/>
	<path d="M125.72,350.21c2.99-3.96,5.98-7.91,8.98-11.87c1.55,2.07,8.35,11.6,5.98,24.21c-1.7,9.06-7.22,14.89-9.58,17.12
		c-0.88,1-6.84,7.51-17.98,7.46c-10.23-0.05-17.4-5.61-18.72-6.67c6.98,2.62,14.04,3.02,20.04,1.66c2.4-0.54,9.67-2.65,13.67-8.96
		C132.32,366.49,131.29,357.52,125.72,350.21z"/>
	<path class="st2y" d="M333.74,64.86c-32.29,45.69-64.59,91.37-96.88,137.06c-4.82-0.59-9.65-1.17-14.47-1.76
		c32.37-48.14,64.74-96.27,97.1-144.41C324.24,58.79,328.99,61.82,333.74,64.86z"/>
	<path d="M360.88,65.08c-5.12-3.83-19.18-13.45-39.73-16.66c-18.31-2.86-32.05,0.87-37.86,2.8c-2.76,1.32-29.44,14.64-29.44,42.37
		c0,18.28,11.59,32.18,15.46,36.48c3.6-4.97,7.2-9.95,10.8-14.92c-1.27-1.79-12.06-17.5-4.57-33.68
		c8.51-18.4,32.61-20.12,33.94-20.19c5.7,1.47,11.84,3.31,18.3,5.65c9.7,3.51,18.13,7.43,25.29,11.23
		C355.65,73.79,358.26,69.44,360.88,65.08z"/>
	<path class="st2y" d="M222.27,200.32c5.09,0.36,10.18,0.72,15.27,1.08c-25.79,34.62-51.57,69.25-77.36,103.87
		c-3.45-0.67-6.9-1.35-10.35-2.02C173.98,268.94,198.13,234.63,222.27,200.32z"/>
	<path d="M280.09,140.57c3.08-4.3,6.15-8.6,9.23-12.9c1.58,1.84,15.22,18.2,9.15,38.95c-4.77,16.32-18.54,24.4-21.68,26.15
		c-3.31,2.64-8.81,6.36-16.54,8.91c-10.17,3.35-19.08,2.99-23.86,2.47c-5.5-0.15-15.55,0.25-26.68,4.85
		c-8.77,3.62-14.79,8.43-18.34,11.76c-1.09,1.52-3.94,5.9-3.71,12.03c0.21,5.58,2.86,9.5,4.02,11.03
		c-3.77,5.35-7.53,10.71-11.3,16.06c-2.13-3.14-9.41-14.73-6.84-30.09c2.65-15.82,13.7-25.24,17.19-27.44
		c5.46-3.44,13.9-7.91,25.11-10.8c13.32-3.44,24.78-3.17,31.9-2.5c1.93-0.02,18.89-0.44,29.37-13.5
		C285.11,165.56,286.25,152.04,280.09,140.57z"/>
	<path class="st2y" d="M148,306.84c3.28,0.4,6.56,0.8,9.84,1.2c-23.35,30.65-46.69,61.31-70.04,91.96c-2.45-1.47-4.9-2.93-7.35-4.4
		C102.96,366.02,125.48,336.43,148,306.84z"/>
	<path d="M187.55,268.3c3.78-4.98,7.55-9.96,11.33-14.94c1.93,3.28,6.27,11.71,5.2,22.91c-1.18,12.35-8.36,20.23-10.5,22.87
		c-1.89,2.33-5.51,6.13-11.41,8.9c-9.51,4.47-18.6,3.28-21.69,2.75c-3.69-0.09-8.19,0.08-13.23,0.9
		c-7.15,1.17-12.92,3.25-17.09,5.12c-0.53,0.37-3.84,2.77-4.22,7.06c-0.39,4.49,2.75,7.43,3.2,7.84c-3.43,4.47-6.87,8.93-10.3,13.4
		c-6.95-10.6-6.81-23.85,0.36-34.09c7.71-11.01,22.25-16.66,36.58-14.17c10.86,3.68,22.77,0.61,29.05-7.17
		C192.37,280.35,187.88,269.08,187.55,268.3z"/>
	<ellipse class="st2y" cx="351.76" cy="23.67" rx="18.25" ry="16.69"/>
	<path d="M353.04,78.15c2.61-4.36,5.23-8.71,7.84-13.07c1.83,1.11,4.09,2.32,6.8,3.4c2.51,1.01,4.84,1.69,6.84,2.16
		c3.96,0.21,5.65,1.79,6.16,2.35c0.98,1.04,1.48,2.46,2.48,5.3c0.37,1.05,0.64,1.93,0.81,2.53c0.75,2.14,1.78,4.6,3.25,7.24
		c1.61,2.88,3.34,5.27,4.91,7.18c0.67,1.3,1.51,3.11,2.29,5.34c1.19,3.38,0.95,4.07,0.59,4.38c-0.44,0.38-1.18,0.3-3.9-0.38
		c-2.17-0.54-3.97-1.06-5.27-1.45c-2.04-0.22-3.92-0.59-5.63-1.06C364.27,97.78,356.02,83.93,353.04,78.15z"/>
	<ellipse class="st0y" cx="375.99" cy="79.64" rx="3.55" ry="3.24"/>
</g>
<g>
	<path class="st3y" d="M144.68,87.97c-18.6,13.12-60.7,46.5-83.97,104.33c-27.19,67.57-11.68,126.26-5.37,146.15
		C39.32,321.34,1.41,276.01-4.03,209.72C-13.15,98.6,76.91,25.54,87.68,17.09C106.68,40.71,125.68,64.34,144.68,87.97z"/>
	<polygon class="st4y" points="384.46,379.56 372.07,387.54 79.23,7.99 91.61,0 	"/>
	<polygon class="st4y" points="261.35,142.12 220.04,168.75 213.3,160.01 254.61,133.38 	"/>
</g>
</svg>
