<svg xmlns="http://www.w3.org/2000/svg" viewBox="0 0 300 259.81"><defs><style>.gcls-1{fill:#f0820f;}.gcls-2{fill:#ebb28b;}.gcls-3{fill:#010101;}.gcls-4{fill:#cb5231;stroke:#1e1e1c;stroke-miterlimit:10;}.gcls-5{fill:#1e1e1c;}.gcls-6{fill:#526035;}.gcls-7{fill:#7c7671;}</style></defs><g id="Lag_1" data-name="Lag 1"><polygon class="gcls-1" points="225 0 75 0 0 129.9 75 259.81 225 259.81 300 129.9 225 0"/><ellipse class="gcls-2" cx="146.77" cy="108" rx="44.59" ry="50.46"/><ellipse class="gcls-2" cx="147.32" cy="172.77" rx="26.74" ry="50.46"/><g id="Lag_3" data-name="Lag 3"><path class="gcls-3" d="M102.09,128.1c.63-.08,1.85,2.82,4.54,15.61a9.46,9.46,0,0,0,16.75,4,47.63,47.63,0,0,1,23.55-1.42A27.59,27.59,0,0,1,170.5,148a9,9,0,0,0,9.65,2,9.27,9.27,0,0,0,5.1-6.25l5.11-14.47c-.91,26.82-5.68,45.25-9,55.49-2.11,6.53-4.67,12.92-10.58,18.58-8,7.65-17.6,9.79-22.69,10.5A39.73,39.73,0,0,1,127.34,207c-6.44-4.48-10.63-10.52-14.92-20.51C100.34,158.3,100.16,128.35,102.09,128.1Z" transform="translate(0 -20.1)"/><path class="gcls-4" d="M-379.94,67.82" transform="translate(0 -20.1)"/><path class="gcls-5" d="M102.05,122.83c1.67,0,2.91-4.65,4.79-11.78a94.57,94.57,0,0,0,2.39-12.13,103.7,103.7,0,0,0,26.93-4.27,90.58,90.58,0,0,0,21.23-9.4,22.89,22.89,0,0,1,12.91,2.39,15.12,15.12,0,0,1,5.91,5.64l4.79,27.5a7.14,7.14,0,0,0,4.23-1.32,4.37,4.37,0,0,0,1.53-2.22c1.32-2.48,11.24-22-2.39-39.09-5.3-6.65-12.28-10.61-17.08-12.81-1.52-.63-28.71-11.35-50.34-.17a36.18,36.18,0,0,0-13.56,12,49.51,49.51,0,0,0-7.18,24.43C96,111.84,99.46,122.87,102.05,122.83Z" transform="translate(0 -20.1)"/></g><g id="Lag_2" data-name="Lag 2"><path class="gcls-6" d="M75.82,279.9H219.23c1.55-5.77,19.87-77-15.29-104.15A46.36,46.36,0,0,0,191.53,169q-1.49,21.61-12.91,33c-2.09,2.08-13.45,14.91-30,15.85-19.44,1.11-39.55-14.46-47.74-38.89A55.61,55.61,0,0,0,90,188.6c-14.79,17.1-14.66,38.48-14.26,45.94C75.74,242.1,75.75,249.66,75.82,279.9Z" transform="translate(0 -20.1)"/></g><rect class="gcls-7" x="215.99" width="9.39" height="259.81"/><rect class="gcls-7" x="188.92" width="9.39" height="259.81"/><rect class="gcls-7" x="158.89" width="9.39" height="259.81"/><rect class="gcls-7" x="130.81" width="9.39" height="259.81"/><rect class="gcls-7" x="102.73" width="9.39" height="259.81"/><path class="gcls-2" d="M108.22,242.62s1.94.28,2.61.35a2.75,2.75,0,0,1,1,.27l.13.07c.2.11.59.32,1.08.53l.66.29c.35.14.71.26.71.26s.21.08.42.14c.53.17,1,.29,1.37.36a4.67,4.67,0,0,1,.42,8.22,8.26,8.26,0,0,1,1,2.37c.32,1.24.63,2.41.08,3.45-.82,1.54-3,1.91-4,2.07a6.29,6.29,0,0,1-.89.1,7.09,7.09,0,0,1,.88-.09,1.7,1.7,0,0,1,.64,0c.51.19.66,1.14.64,1.5-.07,1.27-1.83,2.46-4.34,3.07a3.15,3.15,0,0,1-1,1.95,3.4,3.4,0,0,1-3.87.12L95,263.19l-12.79-2.47,0-18.35,9.69,1.46a14,14,0,0,0,2.12-.77,13.5,13.5,0,0,0,1.74-1c1.44-.45,3-1,4.59-1.67,1.4-.58,2.69-1.18,3.87-1.79a6.18,6.18,0,0,1,3.92-1.16,3.74,3.74,0,0,1,2,.65,4.26,4.26,0,0,1,1.3,2c1.16,2.68,3.31,3.83,3.06,4.14s-1.06-.24-1.28-.34a11.89,11.89,0,0,0-1.48-.76,3.25,3.25,0,0,0-.54-.16A16.61,16.61,0,0,0,108.22,242.62Z" transform="translate(0 -20.1)"/><path class="gcls-7" d="M82.14,279.9H75l-1-1.71-.74-1.28q0-127,0-254L75,20.1h7.68Z" transform="translate(0 -20.1)"/><path class="gcls-2" d="M190.84,242.62s-1.93.28-2.6.35a2.84,2.84,0,0,0-1,.27l-.12.07c-.2.11-.6.32-1.08.53l-.67.29c-.35.14-.7.26-.7.26s-.21.08-.42.14c-.53.17-1,.29-1.37.36a4.67,4.67,0,0,0-.42,8.22,8.26,8.26,0,0,0-1,2.37c-.32,1.24-.63,2.41-.08,3.45.82,1.54,3,1.91,4,2.07a6.29,6.29,0,0,0,.89.1,7.09,7.09,0,0,0-.88-.09,1.7,1.7,0,0,0-.64,0c-.51.19-.66,1.14-.64,1.5.07,1.27,1.83,2.46,4.34,3.07a3.1,3.1,0,0,0,1,1.95,3.4,3.4,0,0,0,3.87.12l10.79-4.48L216,260.68V242.85l-8.83,1a12.94,12.94,0,0,1-3.86-1.75c-1.44-.45-3-1-4.59-1.67-1.4-.58-2.69-1.18-3.87-1.79a6.18,6.18,0,0,0-3.92-1.16,3.74,3.74,0,0,0-2,.65,4.26,4.26,0,0,0-1.3,2c-1.16,2.68-3.31,3.83-3.06,4.14s1.05-.24,1.28-.34a12.45,12.45,0,0,1,1.47-.76,3.73,3.73,0,0,1,.55-.16A16.66,16.66,0,0,1,190.84,242.62Z" transform="translate(0 -20.1)"/><path class="gcls-7" d="M252,233.11l-9.24,16,.54-197.28,8,13.8Z" transform="translate(0 -20.1)"/><path class="gcls-7" d="M281.41,182.2l-10,17.32.94-97.4,8.46,14.64Z" transform="translate(0 -20.1)"/><path class="gcls-7" d="M47.73,232.69q4.62,8,9.23,15.93L56.43,52.18l-8,13.74Z" transform="translate(0 -20.1)"/><path class="gcls-7" d="M18.34,181.89l10,17.16-.94-96.58L18.94,117Z" transform="translate(0 -20.1)"/></g></svg>