<?xml version="1.0" encoding="utf-8"?>
<!-- Generator: Adobe Illustrator 23.0.3, SVG Export Plug-In . SVG Version: 6.00 Build 0)  -->
<svg version="1.1" id="Layer_1" xmlns="http://www.w3.org/2000/svg" xmlns:xlink="http://www.w3.org/1999/xlink" x="0px" y="0px"
	 viewBox="0 0 60 60" style="enable-background:new 0 0 60 60;" xml:space="preserve">
<style type="text/css">
	.st10{clip-path:url(#SVGID_2_);}
	.st12{clip-path:url(#SVGID_2_);fill:#FFFFFF;}
</style>
<g>
	<defs>
		<rect id="SVGID_12_" width="60" height="60"/>
	</defs>
	<clipPath id="SVGID_21_">
		<use xlink:href="#SVGID_12_"  style="overflow:visible;"/>
	</clipPath>
	<path class="st10" d="M16.65,23.16c-0.51-0.73-1.69-2.63-1.78-5.34c-0.09-2.63,0.89-4.57,1.33-5.34
		c1.77-6.35,7.13-10.95,13.35-11.57c7.23-0.72,14.29,4.09,16.47,11.57c0.45,1.18,1.05,3.22,0.89,5.79
		c-0.11,1.67-0.51,3.04-0.89,4.01c-0.21,0.65-0.42,1.56-0.45,2.66c-0.03,1.32,0.22,2.4,0.45,3.11c-0.34,0.55-1.02,1.5-2.23,2.22
		c-1.91,1.16-3.83,0.97-4.45,0.89c-0.39,0.1-0.68,0.27-0.89,0.44c-1.23,1-1.36,3.3-0.45,5.79c-0.01,0.1-0.06,0.67-0.44,0.89
		c-0.46,0.26-1.31-0.02-1.78-0.89c-0.15-0.44-0.3-0.89-0.44-1.33c-0.19-0.37-0.57-0.54-0.89-0.45c-0.31,0.09-0.43,0.4-0.44,0.45
		v0.89c-0.11,0.11-0.42,0.38-0.89,0.44c-0.74,0.1-1.26-0.38-1.34-0.44c0-0.24-0.2-0.44-0.44-0.44c-0.24,0-0.44,0.2-0.44,0.44
		c-0.07,0.07-0.6,0.55-1.34,0.44c-0.47-0.07-0.78-0.34-0.89-0.44c-0.22-0.54-0.75-0.89-1.34-0.89c-0.58,0-1.11,0.35-1.33,0.89
		c-0.11,0.11-0.42,0.38-0.89,0.44c-0.74,0.1-1.26-0.38-1.34-0.44c-0.16-0.56-0.31-1.15-0.44-1.78c-0.24-1.12-0.37-2.17-0.45-3.12
		c-0.19-0.32-0.6-0.9-1.33-1.33c-1.17-0.68-2.34-0.51-2.67-0.44c-0.31-0.17-2.16-1.26-2.67-3.56
		C15.82,24.98,16.43,23.59,16.65,23.16"/>
	<path class="st10" d="M17.76,40.34c7.75,3.7,16.43,7.12,26.04,9.85c1.78,0.5,3.54,0.97,5.28,1.41c1.88-0.8,3.6,0.05,3.87,1.06
		c0.21,0.76-0.37,1.81-1.41,2.46c-0.24,0.02-0.65,0.09-1.06,0.35c-0.89,0.57-1.03,1.59-1.06,1.76c-0.66,0.65-1.67,0.79-2.46,0.35
		c-0.75-0.41-1.17-1.25-1.06-2.11c-10.32-4.11-20.64-8.21-30.97-12.32c-0.03-0.03-0.27-0.35-0.7-0.35c-0.04,0-0.45,0.01-0.7,0.35
		c-0.22,0.08-0.93,0.28-1.76,0c-0.22-0.07-0.91-0.33-1.41-1.06c-0.09-0.13-0.5-0.71-0.35-1.41c0.18-0.81,1.05-1.44,2.11-1.41
		c0.07,0.03,0.55,0.24,1.06,0c0.4-0.19,0.67-0.6,0.7-1.06c0.09-0.13,0.8-1.09,1.76-1.06C16.73,37.21,17.87,38.52,17.76,40.34"/>
	<path class="st10" d="M44.99,43.65c-8.1,2.86-16.65,6.59-25.38,11.45c-1.62,0.9-3.19,1.81-4.73,2.74c-0.76,1.89-2.58,2.51-3.48,1.99
		c-0.69-0.4-1.01-1.54-0.75-2.74c0.16-0.19,0.4-0.52,0.5-1c0.22-1.03-0.39-1.86-0.5-1.99c0.01-0.93,0.62-1.74,1.49-1.99
		c0.82-0.24,1.71,0.06,2.24,0.75c10.2-4.4,20.41-8.79,30.61-13.19c0.04,0,0.44,0.06,0.75-0.25c0.03-0.03,0.31-0.32,0.25-0.75
		c0.11-0.21,0.46-0.85,1.24-1.24c0.21-0.1,0.88-0.41,1.74-0.25c0.15,0.02,0.86,0.15,1.24,0.75c0.45,0.7,0.28,1.76-0.5,2.49
		c-0.07,0.03-0.56,0.22-0.75,0.75c-0.15,0.42-0.05,0.9,0.25,1.24c0.03,0.16,0.2,1.34-0.5,1.99C47.93,45.14,46.2,45.01,44.99,43.65"
		/>
	<path class="st12" d="M19.83,20.82c1.9-1.26,4.25-1.23,5.79,0c1.46,1.16,1.63,2.94,1.65,3.31c0.26,1.28-0.23,2.58-1.24,3.31
		c-1.28,0.92-2.74,0.46-2.9,0.41c-1.6-0.1-3.03-1.05-3.72-2.48C18.71,23.9,18.87,22.14,19.83,20.82"/>
	<path class="st12" d="M42.65,20.49c-1.9-1.26-4.25-1.23-5.79,0c-1.46,1.16-1.63,2.94-1.65,3.31c-0.26,1.28,0.23,2.58,1.24,3.31
		c1.28,0.92,2.74,0.46,2.9,0.41c1.6-0.1,3.03-1.05,3.72-2.48C43.78,23.57,43.62,21.82,42.65,20.49"/>
	<path class="st12" d="M31.26,25.15c0.33,0.46,0.7,1.06,1.02,1.83c0.29,0.69,0.46,1.33,0.56,1.85c0.46,1.05,0.21,2.05-0.35,2.36
		c-0.09,0.05-0.4,0.2-0.94,0.04c-0.22-0.17-0.54-0.38-0.96-0.42c-0.5-0.06-0.71,0.16-0.94,0.05c-0.58-0.29-0.14-2.24-0.11-2.34
		C29.72,27.73,30.15,26.49,31.26,25.15"/>
</g>
</svg>
