<svg id="Lag_1" data-name="Lag 1" xmlns="http://www.w3.org/2000/svg" viewBox="0 0 44.01 60.16"><defs><style>.zcls-1{fill:none;stroke:#000;stroke-width:3px;}.zcls-1,.zcls-2,.zcls-3{stroke-miterlimit:10;}.zcls-2{fill:#fff;}.zcls-2,.zcls-3{stroke:#1d1d1b;}.zcls-3{fill:#1d1d1b;}</style></defs><path class="zcls-1" d="M52.48-98.28" transform="translate(-9.48 -0.34)"/><path class="zcls-2" d="M17.76,40.34a165.12,165.12,0,0,0,26,9.85q2.67.77,5.28,1.41c1.87-.8,3.59,0,3.87,1a2.58,2.58,0,0,1-1.41,2.47,2.35,2.35,0,0,0-1.06.35,2.49,2.49,0,0,0-1,1.76,2.07,2.07,0,0,1-3.52-1.76l-31-12.32a.89.89,0,0,0-1.41,0,2.75,2.75,0,0,1-1.76,0,2.77,2.77,0,0,1-1.4-1A1.82,1.82,0,0,1,10,40.69a2,2,0,0,1,2.12-1.41,1.28,1.28,0,0,0,1,0,1.26,1.26,0,0,0,.7-1.05,2.43,2.43,0,0,1,1.76-1.06C16.73,37.21,17.87,38.52,17.76,40.34Z" transform="translate(-9.48 -0.34)"/><path class="zcls-2" d="M45,43.65A164.33,164.33,0,0,0,19.61,55.1c-1.62.9-3.19,1.81-4.73,2.73-.76,1.89-2.58,2.51-3.48,2a2.54,2.54,0,0,1-.75-2.73,2.25,2.25,0,0,0,.5-1,2.5,2.5,0,0,0-.5-2,2.07,2.07,0,0,1,3.73-1.24L45,39.67a1,1,0,0,0,.75-.25.92.92,0,0,0,.25-.75,2.78,2.78,0,0,1,1.24-1.24A2.75,2.75,0,0,1,49,37.18a1.83,1.83,0,0,1,1.25.75,2,2,0,0,1-.5,2.48,1.32,1.32,0,0,0-.75.75,1.28,1.28,0,0,0,.25,1.25,2.38,2.38,0,0,1-.5,2C47.93,45.14,46.2,45,45,43.65Z" transform="translate(-9.48 -0.34)"/><path class="zcls-2" d="M46,12.48A15.87,15.87,0,0,0,29.55.91,15.73,15.73,0,0,0,16.2,12.48a10,10,0,0,0,.45,10.68,5.44,5.44,0,0,0-.45,3.56,5.6,5.6,0,0,0,2.67,3.56,3.92,3.92,0,0,1,2.67.45,3.77,3.77,0,0,1,1.34,1.33,23.08,23.08,0,0,0,.44,3.12c.13.63.28,1.22.45,1.78A1.58,1.58,0,0,0,26,37a1.45,1.45,0,0,1,2.67,0,1.7,1.7,0,0,0,.89.44A1.76,1.76,0,0,0,30.89,37a.45.45,0,0,1,.44-.45.45.45,0,0,1,.45.45A1.58,1.58,0,0,0,34,37v-.89a.75.75,0,0,1,.44-.45.78.78,0,0,1,.89.45l.45,1.33c.47.87,1.32,1.15,1.78.89A1.12,1.12,0,0,0,38,37.4c-.91-2.49-.78-4.79.45-5.78a2.31,2.31,0,0,1,.89-.45,6.83,6.83,0,0,0,4.45-.89A6.62,6.62,0,0,0,46,28.06a9.88,9.88,0,0,1-.44-3.12A9.53,9.53,0,0,1,46,22.28a13.48,13.48,0,0,0,.88-4A13.73,13.73,0,0,0,46,12.48Zm-20,15a3.38,3.38,0,0,1-2.9.41,4.42,4.42,0,0,1-3.31-7,5,5,0,0,1,5.8,0,4.8,4.8,0,0,1,1.65,3.31A3.27,3.27,0,0,1,26,27.44Zm6.45,3.75a1.24,1.24,0,0,1-.94,0,1.86,1.86,0,0,0-1-.42c-.5-.06-.71.15-.94,0-.58-.29-.13-2.24-.11-2.34a8.13,8.13,0,0,1,1.72-3.36,9.28,9.28,0,0,1,1.58,3.67A1.88,1.88,0,0,1,32.49,31.19ZM43.07,25a4.46,4.46,0,0,1-3.73,2.49,3.38,3.38,0,0,1-2.89-.42,3.27,3.27,0,0,1-1.24-3.31,4.71,4.71,0,0,1,1.65-3.31,5,5,0,0,1,5.79,0A4.44,4.44,0,0,1,43.07,25Z" transform="translate(-9.48 -0.34)"/><path class="zcls-3" d="M25.63,20.82a5,5,0,0,0-5.8,0,4.42,4.42,0,0,0,3.31,7,3.38,3.38,0,0,0,2.9-.41,3.27,3.27,0,0,0,1.24-3.31A4.8,4.8,0,0,0,25.63,20.82Z" transform="translate(-9.48 -0.34)"/><path class="zcls-3" d="M36.86,20.49a4.71,4.71,0,0,0-1.65,3.31,3.27,3.27,0,0,0,1.24,3.31,3.38,3.38,0,0,0,2.89.42,4.42,4.42,0,0,0,3.31-7A5,5,0,0,0,36.86,20.49Z" transform="translate(-9.48 -0.34)"/><path class="zcls-3" d="M32.28,27a9,9,0,0,0-1-1.82,8.13,8.13,0,0,0-1.72,3.36c0,.1-.47,2,.11,2.34.23.11.44-.1.94,0a1.86,1.86,0,0,1,1,.42,1.24,1.24,0,0,0,.94,0,1.88,1.88,0,0,0,.35-2.37A9.08,9.08,0,0,0,32.28,27Z" transform="translate(-9.48 -0.34)"/></svg>