<svg xmlns="http://www.w3.org/2000/svg" viewBox="0 0 301.15 260.81"><defs><style>.acls-1{fill:#f0820f;stroke:#1d1d1b;}.acls-1,.acls-4{stroke-miterlimit:10;}.acls-2{fill:#ebb28c;}.acls-3{fill:#fff;}.acls-4{fill:none;stroke:#8c8c21;stroke-width:18px;}.acls-5{fill:#138a37;}.acls-6{fill:#147b35;}.acls-7{fill:#0b130d;}</style></defs><g id="Lag_1" data-name="Lag 1"><polygon class="acls-1" points="225.58 0.5 75.58 0.5 0.58 130.4 75.58 260.31 225.58 260.31 300.58 130.4 225.58 0.5"/><path class="acls-2" d="M206.9,231.72q-20.21-35.33-40.39-70.65a52.17,52.17,0,1,0-34.65-.56L93.1,231.72Z" transform="translate(0.58 -19.6)"/><path class="acls-3" d="M97,111.46c.19-4,1.45-20.07,14.34-32.36,12.4-11.82,28.12-12,39.15-12.22,10.6-.19,23.16-.42,34.6,8.11,16.36,12.2,17.68,32.8,17.85,36.47-.18,4.91-1.37,19.69-12.62,30.54-11.71,11.29-27,11.25-39.81,11.21-12.18,0-26.08-.07-38-10.24C99.63,131.94,97.49,116.19,97,111.46Z" transform="translate(0.58 -19.6)"/><path class="acls-4" d="M206.9,230.93q-20.21-35.33-40.39-70.65a52.17,52.17,0,1,0-34.65-.56L93.1,230.93Z" transform="translate(0.58 -19.6)"/><path class="acls-5" d="M114.85,107.87A35.15,35.15,0,0,0,150,143V72.72A35.15,35.15,0,0,0,114.85,107.87Z" transform="translate(0.58 -19.6)"/><path class="acls-6" d="M150,72.72V143a35.15,35.15,0,0,0,0-70.3Z" transform="translate(0.58 -19.6)"/><path class="acls-7" d="M150,129.21V86.53a21.34,21.34,0,0,0,0,42.68Z" transform="translate(0.58 -19.6)"/><path d="M171.34,107.87A21.33,21.33,0,0,0,150,86.53v42.68A21.33,21.33,0,0,0,171.34,107.87Z" transform="translate(0.58 -19.6)"/><circle class="acls-3" cx="137.7" cy="72.79" r="4.7"/></g></svg>