<?xml version="1.0" encoding="utf-8"?>
<!-- Generator: Adobe Illustrator 23.0.3, SVG Export Plug-In . SVG Version: 6.00 Build 0)  -->
<svg version="1.1" id="Layer_1" xmlns="http://www.w3.org/2000/svg" xmlns:xlink="http://www.w3.org/1999/xlink" x="0px" y="0px"
	 viewBox="0 0 60 60" style="enable-background:new 0 0 60 60;" xml:space="preserve">
<style type="text/css">
	.st0{clip-path:url(#SVGID_2_);fill:#4D4D4D;}
	.st1{clip-path:url(#SVGID_2_);fill:none;stroke:#000000;stroke-miterlimit:10;}
	.st2{clip-path:url(#SVGID_2_);fill:none;stroke:#FFFFFF;stroke-miterlimit:10;}
</style>
<g>
	<defs>
		<rect id="SVGID_1_" width="60" height="60"/>
	</defs>
	<clipPath id="SVGID_2_">
		<use xlink:href="#SVGID_1_"  style="overflow:visible;"/>
	</clipPath>
	<path class="st0" d="M45.31,44.76H15.19v-28.9c1.33-7.14,7.7-12.37,15.06-12.37c7.36,0,13.73,5.23,15.06,12.37V44.76z"/>
	<path class="st1" d="M45.31,44.76H15.19v-28.9c1.33-7.14,7.7-12.37,15.06-12.37c7.36,0,13.73,5.23,15.06,12.37V44.76z"/>
	<rect x="8.5" y="48.12" class="st0" width="43.5" height="4.46"/>
	<rect x="8.5" y="48.12" class="st1" width="43.5" height="4.46"/>
	<polyline class="st2" points="30.44,31.94 28.13,31.94 28.13,21.13 22.72,21.13 22.72,17.27 28.13,17.27 28.13,11.87 30.44,11.87 	
		"/>
	<polyline class="st2" points="30.06,31.94 32.37,31.94 32.37,21.13 37.78,21.13 37.78,17.27 32.37,17.27 32.37,11.87 30.06,11.87 	
		"/>
</g>
</svg>
