<?xml version="1.0" encoding="utf-8"?>
<!-- Generator: Adobe Illustrator 25.0.0, SVG Export Plug-In . SVG Version: 6.00 Build 0)  -->
<svg version="1.1" id="Lag_1" xmlns="http://www.w3.org/2000/svg" xmlns:xlink="http://www.w3.org/1999/xlink" x="0px" y="0px"
	 viewBox="0 0 237 199" style="enable-background:new 0 0 237 199;" xml:space="preserve">
<style type="text/css">
	.st0{fill:#FFFFFF;}
	.st1{fill:#E8991A;}
	.st2{fill:#F68300;}
	.st3{fill:#878787;}
</style>
<g id="Torso">
	<path d="M45.4,82.8c0.9,3.8,1.7,8.3,2,13.4c0.3,4.5,0.3,8.6,0,12.1c-3,10.7-6.9,22.4-12.1,35c-6,14.4-12.5,27-18.8,37.7
		c2.8,1.3,7.5,3,13.4,3.4c7.3,0.4,13-1.4,16.1-2.7c2.1,0,5.2,0.2,8.7,1.4c3.6,1.1,6.3,2.8,8.1,4c3.5-1.4,7.5-2.9,12.1-4
		c6.6-1.7,12.5-2.4,17.5-2.7c-1.1-12-3.1-25.6-6.7-40.3c-2.8-11.4-6-21.8-9.4-30.9c0.4-9.4,0.9-18.8,1.3-28.3
		c-3.8-8.5-7.6-17-11.4-25.6c-1,0.5-2.9,1.3-5.4,1.3c-2.8,0.1-5-0.8-6-1.3C51.6,64.4,48.5,73.6,45.4,82.8z"/>
</g>
<g id="Feet">
	<path d="M45.3,180.3c0.2,1.8,0.5,3.6,0.7,5.4c0.8,0.3,2.1,0.9,3.4,2c1,0.9,2.2,2,2,2.7c-0.2,0.9-3.1,1.6-13.5,0.7
		c0.2-3.6,0.5-7.2,0.7-10.8C40.9,180.3,43.1,180.3,45.3,180.3z"/>
	<path d="M80.3,180.3c0.2,1.8,0.4,3.6,0.7,5.4c0.8,0.3,2.1,0.9,3.4,2c1,0.9,2.2,2,2,2.7c-0.2,0.9-3.1,1.6-13.4,0.7
		c0.2-3.6,0.4-7.2,0.7-10.8C75.8,180.3,78.1,180.3,80.3,180.3z"/>
</g>
<g id="Face">
	<path d="M54.8,56.5c0.3-1.1,0.6-3.4,0-6c-0.6-2.7-2-4.5-2.7-5.4c-0.3-1.4-0.7-3.8,0-6.7c0.3-1.4,0.9-2.5,1.3-3.4
		c7.6,0.5,15.2,0.9,22.9,1.3c-0.2,2.2-1,6.5-4,10.8c-1.8,2.6-3.9,4.3-5.4,5.4c-0.4,1.3-0.8,2.5-1.3,3.8c-0.3,0.8-0.5,1.5-0.8,2.3
		C61.5,57.9,58.1,57.2,54.8,56.5z"/>
</g>
<g id="Mask">
	<path d="M65.5,51.8c5,1.6,11,3.9,17.5,7.4c5.7,3.1,10.4,6.4,14.1,9.4c-1.6-3.7-4.3-8.9-8.7-14.1c-4.1-4.7-8.2-8-11.4-10.1
		c0.2-0.3,1.4-2.1,0.7-4c-0.6-1.6-2.3-2.6-3.4-2.7C70,37.4,66.1,50.1,65.5,51.8z"/>
</g>
<g id="Hat">
	<path d="M44,31c-0.1,1.8,7.7,3.8,11.4,4.7c11.3,2.8,26.3,4.5,26.9,2c0.2-0.7-0.8-2-6.1-4.7c0.9-2.5,1.8-4.9,2.7-7.4
		c-2.9-1.4-7-3.1-12.1-4c-5.4-1-10.1-1-13.5-0.7c0,2.5,0,4.9,0,7.4C49,28.8,44.1,29.6,44,31z"/>
</g>
<g id="Left_arm">
	<path d="M55,55.4c-4.3,2.6-9.2,6-14.1,10.8c-12.2,11.8-17.6,25-20.2,33c-1.1,3.6-2.2,7.2-3.4,10.8c1-0.4,3.2-1.2,6-0.7
		c1.5,0.3,2.6,0.9,3.4,1.3c2-5.4,5.4-12.7,11.4-20.2c3.7-4.6,7.5-8.1,10.8-10.8C50.9,71.6,53,63.5,55,55.4z"/>
</g>
<g id="Left_hand">
	<g>
		<path d="M21.1,106.1c-0.7,0.2-1.2,0.5-1.6,0.7c-1.6,0.8-2.5,1.9-2.8,2.2c-0.3,0.4-0.6,0.8-0.9,1.2c-0.6,1-1,1.9-1.3,2.7
			c1.8,1.8,3.6,3.6,5.4,5.4c0.7-0.3,1.6-0.7,2.5-1.3c0.5-0.4,1-0.7,1.5-1.1c0.4-1,0.8-2.1,1.2-3.2c0.4-1.1,0.7-2.2,1-3.2
			C24.3,108.4,22.7,107.3,21.1,106.1z"/>
		<path d="M22.2,115.3c-0.5,1.1-1,2.2-1.5,3.3c-0.1,0.3-0.1,0.7-0.2,1.1c-0.1,1,0.1,1.9,0.2,2.5c0.1,0.4,0.5,0.6,0.9,0.6
			c0.3,0,0.6-0.3,0.7-0.6c0-1.2,0.1-2.3,0.1-3.5c0.4-1,0.8-1.9,1.2-2.9C23.2,115.7,22.7,115.5,22.2,115.3z"/>
		<path d="M19.8,117.9c-1.1,1.9-2.3,3.8-3.4,5.6c0,0-0.4,0.1-0.8-0.2c-0.3-0.3-0.4-0.6-0.4-0.7c1.3-2,2.6-4,3.9-6
			C19.3,117.1,19.6,117.5,19.8,117.9z"/>
		<path d="M18.3,116.2c-1.3,2.2-2.7,4.3-4,6.5c-0.1,0-0.5,0.2-0.8-0.1c-0.3-0.3-0.3-0.7-0.3-0.8c1.5-2.3,3-4.6,4.4-6.9
			C17.8,115.3,18.1,115.8,18.3,116.2z"/>
		<path d="M17.3,114.9c-1.3,1.8-2.5,3.6-3.8,5.4c-0.1,0-0.5,0.1-0.8-0.2c-0.3-0.3-0.3-0.7-0.3-0.7c1.4-1.9,2.8-3.8,4.2-5.7
			C16.9,114,17.1,114.4,17.3,114.9z"/>
		<path d="M16.3,112.4c-1.4,1.7-2.7,3.5-4,5.2c-0.1,0-0.5,0.1-0.8-0.2c-0.3-0.3-0.3-0.7-0.3-0.7c1.5-1.8,3-3.7,4.5-5.5
			C15.9,111.5,16.1,112,16.3,112.4z"/>
	</g>
</g>
<g id="Right_arm">
	<path d="M65.2,55.7c4.3,2.6,9.2,6,14.1,10.8c12.2,11.8,17.7,25,20.2,33c1.1,3.6,2.2,7.2,3.4,10.8c-0.9-0.4-3.2-1.2-6.1-0.7
		c-1.5,0.3-2.6,0.9-3.4,1.3c-2-5.4-5.4-12.7-11.4-20.2c-3.7-4.6-7.5-8.1-10.8-10.8C69.3,71.9,67.2,63.8,65.2,55.7z"/>
</g>
<g id="Right_hand">
	<path d="M101.8,108c-2.9,0-5.7,0-8.6,0.1c-0.1,0.7-0.2,1.9,0,3.2c0.2,1.2,0.6,2.2,1,2.8c-0.2,0.3-0.3,0.8-0.4,1.4
		c0,0.9,0.3,1.6,0.5,1.9c-0.2,0.5-0.4,1.2-0.5,2c-0.1,0.7-0.1,1.3-0.1,1.9c0,0.1,0.1,0.6,0.5,0.9c0.5,0.3,1.3,0.2,1.8-0.4
		c0.2-0.4,0.4-0.9,0.6-1.3c0.3-0.9,0.6-1.8,0.8-2.6c-0.5,1.3-1,2.5-1.6,3.8c0.1,0.2,0.5,0.6,1.1,0.8c1,0.3,1.9-0.2,2-0.3
		c0.3-0.6,0.6-1.3,0.8-2.1c0.4-1,0.6-1.9,0.8-2.8c-0.6,1.6-1.3,3.2-1.9,4.8c0.2,0.2,0.5,0.5,1,0.7c1.1,0.4,2-0.3,2.1-0.3
		c0.4-0.4,0.8-1.1,1.1-1.9c0.4-1,0.6-1.9,0.7-2.6c-1.2,1.6-2.4,3.2-3.6,4.8c-0.1,0.1-0.4,0.6-0.2,1.3c0.2,0.6,0.7,0.8,0.8,0.9
		c0.2,0,0.3-0.1,0.5-0.1c1.1-0.4,1.6-1.6,1.7-2c0.1,0,1,0.5,2-0.1s1.1-1.6,1.1-1.7c0.3-0.5,0.7-1.4,0.8-2.7c0.1-1.2-0.1-2.1-0.3-2.6
		c0-0.3,0-0.7-0.2-1.1c-0.4-1.5-1.7-2.3-2.1-2.6C103.6,110.8,102.7,109.4,101.8,108z"/>
	<path d="M96.3,141.3"/>
</g>
<g id="Stick">
	<g>
		<path d="M168.6,111.2c0.4,0.4,0.4,0.8,0.4,0.8c0,0.3-0.2,0.6-0.4,0.8c-27.1,2.8-54.3,5.7-81.4,8.5c-0.2-0.3-0.7-1.1-0.8-2.1
			c-0.1-1,0.1-1.8,0.3-2.2C126.3,113.8,167.9,110.6,168.6,111.2z"/>
		<g>
			<path class="st0" d="M84.8,119.4c0.7-0.3,1.4-0.7,2.1-1c0-0.2,0-0.4-0.1-0.6c-0.3-1.4-1.6-2-1.9-2.1c0-0.2,0-0.6-0.1-1
				c-0.1-0.4-0.3-0.6-0.5-0.8c0.2-0.5,0.2-0.8,0.1-1.1c-0.1-0.2-0.2-0.4-0.3-0.8c0-0.1,0-0.2,0-0.2c0-0.1,0.1-0.7-0.1-1.2
				c-0.2-0.4-0.5-0.6-0.6-0.7c-0.1,0-0.1-0.1-0.1-0.1c-0.2-0.1-0.8,1.3-2.2,6.6c0.2,1.7,0.5,2.1,0.8,2.1c0.5,0.1,1.1-0.6,1.7-0.3
				c0.1,0.1,0.2,0.1,0.2,0.2C84.1,118.8,84.4,119.1,84.8,119.4z"/>
			<path class="st0" d="M84.9,120.2c0.8,0.1,1.5,0.1,2.3,0.2c0.1,0.2,0.1,0.4,0.1,0.6c0,1.4-1.1,2.5-1.4,2.7c0.1,0.2,0.2,0.5,0.1,1
				c0,0.4-0.2,0.7-0.3,0.9c0.3,0.4,0.3,0.8,0.3,1c0,0.2-0.1,0.4-0.1,0.8c0,0.1,0,0.2,0,0.2c0.1,0.1,0.3,0.6,0.1,1.2
				c-0.1,0.4-0.3,0.7-0.4,0.8c0,0.1-0.1,0.1-0.1,0.1c-0.2,0.1-1.1-1-3.7-5.6c-0.2-1.6,0-2.2,0.3-2.3c0.4-0.3,1.2,0.2,1.7-0.3
				c0.1-0.1,0.1-0.2,0.2-0.2C84.4,121,84.7,120.6,84.9,120.2z"/>
			<circle class="st1" cx="86.7" cy="119.4" r="2.3"/>
		</g>
	</g>
</g>
<g id="Eyesocket">
	<path class="st2" d="M73.6,45.1c-0.4-0.4-1.2-1.3-1.3-2.7c-0.2-2,1.1-4.1,2-4c1.1,0.1,2.7,3.4,1.3,5.4C75.1,44.6,74.1,45,73.6,45.1
		z"/>
</g>
<g id="Human_Anatomy_1_">
	<path class="st3" d="M193.3,12.8c-0.1-0.5-0.3-3.8,2.6-6.5c3.2-3,7.8-2.7,8.3-2.7c0,36.1,0,72.3,0,108.4c-0.6,5.5-1.2,11-1.9,16.7
		c-0.8,6.1-1.6,12-2.6,17.8c0.4,3.7,0.6,7.6,0.6,11.9c0,4.8-0.2,9.4-0.6,13.5c-0.6,2-1.3,4.8-1.3,8.1c0,4.1,1,7.5,1.9,9.7
		c-0.6,1.1-1.2,2.1-1.9,3.2c-1.3,2-2.5,3.8-3.8,5.4c-0.1,0-0.7,0.3-1.3,0c-0.4-0.2-0.6-0.4-0.6-0.5c-0.1,0-0.4,0.1-0.6,0
		c-0.4-0.1-0.6-0.5-0.6-0.5c-0.1,0-0.4,0.1-0.6,0c-0.4-0.1-0.6-0.5-0.6-0.5c-0.1,0-0.4,0.1-0.6,0c-0.4-0.1-0.7-0.6-0.6-1.1
		c-0.1,0-0.4,0.1-0.6,0c-0.4-0.1-0.7-0.6-0.6-1.1c1.2-1.1,2.7-2.9,3.8-5.4c0.7-1.6,1.1-3.1,1.3-4.3c-1.6-6.2-3-13.2-3.8-21
		c-0.6-6-0.8-11.6-0.6-16.7c0-2.6-0.1-6.5-0.6-11.3c-0.7-6.1-1.6-8.2-2.6-12.9c-0.6-3.4-2.7-15.7,0.6-30.2c1.1-4.9,1.6-4.6,2.6-8.6
		c2.6-11.3,0.4-21-1.9-27.5c-0.1,6.7-0.4,13.9-1.3,21.6c-0.8,7.1-1.9,13.8-3.2,19.9c0.2,3.2-0.2,5.8-0.6,7.6
		c-0.5,1.9-0.9,2.8-1.9,3.2c-1.3,0.5-3,0-3.8-0.5c-2.5-1.6-2.1-6.6,0.6-12.4c-0.6-6.6-0.7-14.3,0-22.7c0.5-6.1,1.4-11.7,2.6-16.7
		c0-2.6,0.5-7.1,3.2-11.9c1.6-2.8,3.5-5,5.1-6.5c3.4-1.4,6.8-2.9,10.2-4.3c0.5-0.7,1.2-2,1.3-3.8c0.1-3.2-2-5.4-2.6-5.9
		c-0.8-1-1.9-2.6-2.6-4.9C192.5,16.4,192.9,14,193.3,12.8z"/>
	<path class="st3" d="M213.9,12.8c0.1-0.5,0.3-3.8-2.6-6.5c-3.2-3-7.8-2.7-8.3-2.7c0,36.1,0,72.3,0,108.4c0.6,5.5,1.2,11,1.9,16.7
		c0.8,6.1,1.6,12,2.6,17.8c-0.4,3.7-0.6,7.6-0.6,11.9c0,4.8,0.2,9.4,0.6,13.5c0.6,2,1.3,4.8,1.3,8.1c0,4.1-1,7.5-1.9,9.7
		c0.6,1.1,1.2,2.1,1.9,3.2c1.3,2,2.5,3.8,3.8,5.4c0.1,0,0.7,0.3,1.3,0c0.4-0.2,0.6-0.4,0.6-0.5c0.1,0,0.4,0.1,0.6,0
		c0.4-0.1,0.6-0.5,0.6-0.5c0.1,0,0.4,0.1,0.6,0c0.4-0.1,0.6-0.5,0.6-0.5c0.1,0,0.4,0.1,0.6,0c0.4-0.1,0.7-0.6,0.6-1.1
		c0.1,0,0.4,0.1,0.6,0c0.4-0.1,0.7-0.6,0.6-1.1c-1.2-1.1-2.7-2.9-3.8-5.4c-0.7-1.6-1.1-3.1-1.3-4.3c1.6-6.2,3-13.2,3.8-21
		c0.6-6,0.8-11.6,0.6-16.7c0-2.6,0.1-6.5,0.6-11.3c0.7-6.1,1.6-8.2,2.6-12.9c0.6-3.4,2.7-15.7-0.6-30.2c-1.1-4.9-1.6-4.6-2.6-8.6
		c-2.6-11.3-0.4-21,1.9-27.5c0.1,6.7,0.4,13.9,1.3,21.6c0.8,7.1,1.9,13.8,3.2,19.9c-0.2,3.2,0.2,5.8,0.6,7.6
		c0.5,1.9,0.9,2.8,1.9,3.2c1.3,0.5,3,0,3.8-0.5c2.5-1.6,2.1-6.6-0.6-12.4c0.6-6.6,0.7-14.3,0-22.7c-0.5-6.1-1.4-11.7-2.6-16.7
		c0-2.6-0.5-7.1-3.2-11.9c-1.6-2.8-3.5-5-5.1-6.5c-3.4-1.4-6.8-2.9-10.2-4.3c-0.5-0.7-1.2-2-1.3-3.8c-0.1-3.2,2-5.4,2.6-5.9
		c0.8-1,1.9-2.6,2.6-4.9C214.7,16.4,214.3,14,213.9,12.8z"/>
</g>
</svg>
