<svg id="Lag_1" data-name="Lag 1" xmlns="http://www.w3.org/2000/svg" viewBox="0 0 221 199"><defs><style>.cls-1{fill:#878787;}.cls-2{fill:#f68300;}.cls-3{fill:#fff;}.cls-4{fill:#e8991a;}</style></defs><g id="Human_Anatomy" data-name="Human Anatomy"><path class="cls-1" d="M170.2,12.8a7.81,7.81,0,0,1,2.6-6.5c3.2-3,7.8-2.7,8.3-2.7V112c-.6,5.5-1.2,11-1.9,16.7-.8,6.1-1.6,12-2.6,17.8a110,110,0,0,1,.6,11.9c0,4.8-.2,9.4-.6,13.5a27.83,27.83,0,0,0-1.3,8.1,25.79,25.79,0,0,0,1.9,9.7c-.6,1.1-1.2,2.1-1.9,3.2a61.64,61.64,0,0,1-3.8,5.4,1.82,1.82,0,0,1-1.3,0c-.4-.2-.6-.4-.6-.5s-.4.1-.6,0a1,1,0,0,1-.6-.5c-.1,0-.4.1-.6,0a1,1,0,0,1-.6-.5c-.1,0-.4.1-.6,0a1,1,0,0,1-.6-1.1c-.1,0-.4.1-.6,0a1,1,0,0,1-.6-1.1,16.38,16.38,0,0,0,3.8-5.4,18.55,18.55,0,0,0,1.3-4.3,142.24,142.24,0,0,1-3.8-21,122.58,122.58,0,0,1-.6-16.7,106.65,106.65,0,0,0-.6-11.3c-.7-6.1-1.6-8.2-2.6-12.9a77.15,77.15,0,0,1,.6-30.2c1.1-4.9,1.6-4.6,2.6-8.6a48.85,48.85,0,0,0-1.9-27.5,210.59,210.59,0,0,1-1.3,21.6c-.8,7.1-1.9,13.8-3.2,19.9a27,27,0,0,1-.6,7.6c-.5,1.9-.9,2.8-1.9,3.2a4.78,4.78,0,0,1-3.8-.5c-2.5-1.6-2.1-6.6.6-12.4a132.37,132.37,0,0,1,0-22.7A110.89,110.89,0,0,1,156,56.7a24.6,24.6,0,0,1,3.2-11.9,28.38,28.38,0,0,1,5.1-6.5c3.4-1.4,6.8-2.9,10.2-4.3a7.31,7.31,0,0,0,1.3-3.8,7.84,7.84,0,0,0-2.6-5.9,14.46,14.46,0,0,1-2.6-4.9A9.62,9.62,0,0,1,170.2,12.8Z"/><path class="cls-1" d="M190.8,12.8a7.81,7.81,0,0,0-2.6-6.5c-3.2-3-7.8-2.7-8.3-2.7V112c.6,5.5,1.2,11,1.9,16.7.8,6.1,1.6,12,2.6,17.8a110,110,0,0,0-.6,11.9c0,4.8.2,9.4.6,13.5a27.83,27.83,0,0,1,1.3,8.1,25.79,25.79,0,0,1-1.9,9.7c.6,1.1,1.2,2.1,1.9,3.2a61.64,61.64,0,0,0,3.8,5.4,1.82,1.82,0,0,0,1.3,0c.4-.2.6-.4.6-.5s.4.1.6,0a1,1,0,0,0,.6-.5c.1,0,.4.1.6,0a1,1,0,0,0,.6-.5c.1,0,.4.1.6,0a1,1,0,0,0,.6-1.1c.1,0,.4.1.6,0a1,1,0,0,0,.6-1.1,16.38,16.38,0,0,1-3.8-5.4,18.55,18.55,0,0,1-1.3-4.3,142.24,142.24,0,0,0,3.8-21,122.58,122.58,0,0,0,.6-16.7,106.65,106.65,0,0,1,.6-11.3c.7-6.1,1.6-8.2,2.6-12.9a77.15,77.15,0,0,0-.6-30.2c-1.1-4.9-1.6-4.6-2.6-8.6a48.85,48.85,0,0,1,1.9-27.5,210.59,210.59,0,0,0,1.3,21.6c.8,7.1,1.9,13.8,3.2,19.9a27,27,0,0,0,.6,7.6c.5,1.9.9,2.8,1.9,3.2a4.78,4.78,0,0,0,3.8-.5c2.5-1.6,2.1-6.6-.6-12.4a132.37,132.37,0,0,0,0-22.7A110.89,110.89,0,0,0,205,56.7a24.6,24.6,0,0,0-3.2-11.9,28.38,28.38,0,0,0-5.1-6.5c-3.4-1.4-6.8-2.9-10.2-4.3a7.31,7.31,0,0,1-1.3-3.8,7.84,7.84,0,0,1,2.6-5.9,14.46,14.46,0,0,0,2.6-4.9A9.62,9.62,0,0,0,190.8,12.8Z"/></g><g id="Torso"><path d="M45.4,82.8a77.68,77.68,0,0,1,2,13.4,81.45,81.45,0,0,1,0,12.1,313.15,313.15,0,0,1-12.1,35A308,308,0,0,1,16.5,181a38.38,38.38,0,0,0,13.4,3.4A36.68,36.68,0,0,0,46,181.7a26.51,26.51,0,0,1,8.7,1.4,30.43,30.43,0,0,1,8.1,4,85.72,85.72,0,0,1,12.1-4,91.55,91.55,0,0,1,17.5-2.7,274.83,274.83,0,0,0-6.7-40.3,277.79,277.79,0,0,0-9.4-30.9c.4-9.4.9-18.8,1.3-28.3-3.8-8.5-7.6-17-11.4-25.6a12,12,0,0,1-5.4,1.3,12.58,12.58,0,0,1-6-1.3C51.6,64.4,48.5,73.6,45.4,82.8Z"/></g><g id="Feet"><path d="M45.3,180.3c.2,1.8.5,3.6.7,5.4a11.76,11.76,0,0,1,3.4,2c1,.9,2.2,2,2,2.7-.2.9-3.1,1.6-13.5.7.2-3.6.5-7.2.7-10.8Z"/><path d="M80.3,180.3c.2,1.8.4,3.6.7,5.4a11.76,11.76,0,0,1,3.4,2c1,.9,2.2,2,2,2.7-.2.9-3.1,1.6-13.4.7.2-3.6.4-7.2.7-10.8Z"/></g><g id="Face"><path d="M54.8,56.5a12.94,12.94,0,0,0,0-6,13.3,13.3,0,0,0-2.7-5.4,14.86,14.86,0,0,1,0-6.7A15.91,15.91,0,0,1,53.4,35c7.6.5,15.2.9,22.9,1.3a22.42,22.42,0,0,1-9.4,16.2c-.4,1.3-.8,2.5-1.3,3.8-.3.8-.5,1.5-.8,2.3Z"/></g><g id="Mask"><path d="M65.5,51.8A102.73,102.73,0,0,1,83,59.2a92.48,92.48,0,0,1,14.1,9.4A54.44,54.44,0,0,0,77,44.4a4.67,4.67,0,0,0,.7-4,4.46,4.46,0,0,0-3.4-2.7C70,37.4,66.1,50.1,65.5,51.8Z"/></g><g id="Hat"><path d="M44,31c-.1,1.8,7.7,3.8,11.4,4.7,11.3,2.8,26.3,4.5,26.9,2,.2-.7-.8-2-6.1-4.7.9-2.5,1.8-4.9,2.7-7.4a46.12,46.12,0,0,0-12.1-4,50.51,50.51,0,0,0-13.5-.7v7.4C49,28.8,44.1,29.6,44,31Z"/></g><g id="Left_arm" data-name="Left arm"><path d="M55,55.4A75.9,75.9,0,0,0,40.9,66.2a79.7,79.7,0,0,0-20.2,33c-1.1,3.6-2.2,7.2-3.4,10.8a10.81,10.81,0,0,1,6-.7,13,13,0,0,1,3.4,1.3,71.07,71.07,0,0,1,22.2-31C50.9,71.6,53,63.5,55,55.4Z"/></g><g id="Left_hand" data-name="Left hand"><path d="M21.1,106.1a8.44,8.44,0,0,0-1.6.7,9.64,9.64,0,0,0-2.8,2.2l-.9,1.2a16,16,0,0,0-1.3,2.7l5.4,5.4a14.83,14.83,0,0,0,2.5-1.3c.5-.4,1-.7,1.5-1.1.4-1,.8-2.1,1.2-3.2s.7-2.2,1-3.2C24.3,108.4,22.7,107.3,21.1,106.1Z"/><path d="M22.2,115.3l-1.5,3.3c-.1.3-.1.7-.2,1.1a9.13,9.13,0,0,0,.2,2.5.88.88,0,0,0,.9.6.87.87,0,0,0,.7-.6c0-1.2.1-2.3.1-3.5.4-1,.8-1.9,1.2-2.9A11.66,11.66,0,0,1,22.2,115.3Z"/><path d="M19.8,117.9c-1.1,1.9-2.3,3.8-3.4,5.6a1,1,0,0,1-.8-.2,1.21,1.21,0,0,1-.4-.7l3.9-6C19.3,117.1,19.6,117.5,19.8,117.9Z"/><path d="M18.3,116.2c-1.3,2.2-2.7,4.3-4,6.5-.1,0-.5.2-.8-.1a1.12,1.12,0,0,1-.3-.8c1.5-2.3,3-4.6,4.4-6.9C17.8,115.3,18.1,115.8,18.3,116.2Z"/><path d="M17.3,114.9c-1.3,1.8-2.5,3.6-3.8,5.4a.93.93,0,0,1-.8-.2,1.09,1.09,0,0,1-.3-.7l4.2-5.7A3.54,3.54,0,0,1,17.3,114.9Z"/><path d="M16.3,112.4c-1.4,1.7-2.7,3.5-4,5.2a.93.93,0,0,1-.8-.2,1.09,1.09,0,0,1-.3-.7c1.5-1.8,3-3.7,4.5-5.5Q16,111.79,16.3,112.4Z"/></g><g id="Eyesocket"><path class="cls-2" d="M73.6,45.1a4.22,4.22,0,0,1-1.3-2.7c-.2-2,1.1-4.1,2-4,1.1.1,2.7,3.4,1.3,5.4A3.28,3.28,0,0,1,73.6,45.1Z"/></g><g id="Stick"><path d="M191,141.43a1.3,1.3,0,0,1-.25.81,1,1,0,0,1-.89.25q-29.52-25.74-59-51.51a4.73,4.73,0,0,1,1-2,4.84,4.84,0,0,1,1.8-1.3C161.7,113.43,191,140.53,191,141.43Z"/><path class="cls-3" d="M130.7,88c.72.29,1.45.59,2.12.79.13-.18.31-.27.44-.45a3.23,3.23,0,0,0,.33-2.79,1.78,1.78,0,0,0,.69-.82,3.3,3.3,0,0,0,.25-.81c.53-.28.75-.51.79-.65a2.41,2.41,0,0,1,.38-.77c.09,0,0-.14.13-.18a2.42,2.42,0,0,0,.78-.87,1.8,1.8,0,0,0,.11-.86v-.08c-.1-.18-1.52.35-6.28,2.89-1.13,1.28-1.21,1.78-1.07,2,.24.44,1.13.42,1.33,1a.41.41,0,0,1,0,.22Z"/><path class="cls-3" d="M130.16,88.76c.42.57.84,1.14,1.3,1.8A1.57,1.57,0,0,1,131,91a3.8,3.8,0,0,1-2.93.88,3.24,3.24,0,0,1-.7.82,2.64,2.64,0,0,1-.79.43,1.14,1.14,0,0,1-.56.86,2.56,2.56,0,0,0-.66.47c-.09,0-.18.09-.13.18a1.59,1.59,0,0,1-.78.87,1.76,1.76,0,0,1-.89.25h-.09c-.27-.08,0-1.38,1.71-6.35,1-1.23,1.62-1.43,1.89-1.35.5.08.61.93,1.33,1a.35.35,0,0,0,.31-.06A6.23,6.23,0,0,1,130.16,88.76Z"/><ellipse class="cls-4" cx="131.89" cy="89.43" rx="2.3" ry="2.2" transform="translate(-25.68 113.15) rotate(-42.7)"/></g><g id="Right_arm" data-name="Right arm"><path d="M65.5,55.3A33.39,33.39,0,0,1,91,74.13a80.69,80.69,0,0,0,17.82,6.1A80.28,80.28,0,0,0,123.4,82l-3.9,7.66a65.72,65.72,0,0,1-17.94,0c-8.15-1.12-18-2.47-25.83-10C66.84,71,65.7,59.43,65.5,55.3Z"/></g><g id="Right_hand" data-name="Right hand"><path d="M123.4,82c-1.26,2.54-2.61,5.13-3.87,7.66a9.84,9.84,0,0,0,2.87,1.41,10.91,10.91,0,0,0,3,.41,3.42,3.42,0,0,0,3,1.45A9,9,0,0,0,130,94.35a13.29,13.29,0,0,0,1.66,1,1.7,1.7,0,0,0,1,0,1.56,1.56,0,0,0,.52-1.84c-.35-.38-.56-.72-.91-1.09a15.23,15.23,0,0,0-2-1.85c.86,1,1.76,2.09,2.75,3.13a1.87,1.87,0,0,0,1.24-.65,2.18,2.18,0,0,0,.69-2c-.46-.54-.91-1.08-1.5-1.66-.69-.75-1.47-1.44-2.06-2,1.15,1.29,2.29,2.58,3.39,3.79a2.2,2.2,0,0,0,1.07-.55,2.74,2.74,0,0,0,.71-2.08,7.47,7.47,0,0,0-1.15-1.87,7.31,7.31,0,0,0-2-1.8c.88,1.81,1.7,3.53,2.58,5.34a1.63,1.63,0,0,0,1,.76c.64.08,1.06-.18,1.1-.32a1.48,1.48,0,0,0,.13-.55,3.34,3.34,0,0,0-1-2.42,2.23,2.23,0,0,0,.41-3.11,2.07,2.07,0,0,0-.5-.48,5.69,5.69,0,0,0-2-1.93,7.92,7.92,0,0,0-2.47-1,5.64,5.64,0,0,0-1.06-.4,4.92,4.92,0,0,0-3.22.69A45.55,45.55,0,0,1,123.4,82Z"/></g></svg>