<svg id="Lag_1" data-name="Lag 1" xmlns="http://www.w3.org/2000/svg" viewBox="0 0 221 199"><defs><style>.cls-1{fill:#878787;}.cls-2{fill:#f68300;}.cls-3{fill:#fff;}.cls-4{fill:#e8991a;}</style></defs><g id="Human_Anatomy" data-name="Human Anatomy"><path class="cls-1" d="M170.2,12.8a7.81,7.81,0,0,1,2.6-6.5c3.2-3,7.8-2.7,8.3-2.7V112c-.6,5.5-1.2,11-1.9,16.7-.8,6.1-1.6,12-2.6,17.8a110.06,110.06,0,0,1,.6,11.9c0,4.8-.2,9.4-.6,13.5a27.92,27.92,0,0,0-1.3,8.1,25.9,25.9,0,0,0,1.9,9.7c-.6,1.1-1.2,2.1-1.9,3.2a63.09,63.09,0,0,1-3.8,5.4,1.79,1.79,0,0,1-1.3,0c-.4-.2-.6-.4-.6-.5s-.4.1-.6,0a1,1,0,0,1-.6-.5c-.1,0-.4.1-.6,0a1,1,0,0,1-.6-.5c-.1,0-.4.1-.6,0a1,1,0,0,1-.6-1.1c-.1,0-.4.1-.6,0a1,1,0,0,1-.6-1.1,16.3,16.3,0,0,0,3.8-5.4,18.46,18.46,0,0,0,1.3-4.3,141.45,141.45,0,0,1-3.8-21,121.27,121.27,0,0,1-.6-16.7,109.2,109.2,0,0,0-.6-11.3c-.7-6.1-1.6-8.2-2.6-12.9a77.11,77.11,0,0,1,.6-30.2c1.1-4.9,1.6-4.6,2.6-8.6a48.83,48.83,0,0,0-1.9-27.5,211.22,211.22,0,0,1-1.3,21.6c-.8,7.1-1.9,13.8-3.2,19.9a27,27,0,0,1-.6,7.6c-.5,1.9-.9,2.8-1.9,3.2a4.81,4.81,0,0,1-3.8-.5c-2.5-1.6-2.1-6.6.6-12.4a131.9,131.9,0,0,1,0-22.7A110.56,110.56,0,0,1,156,56.7a24.53,24.53,0,0,1,3.2-11.9,28.26,28.26,0,0,1,5.1-6.5c3.4-1.4,6.8-2.9,10.2-4.3a7.25,7.25,0,0,0,1.3-3.8,7.86,7.86,0,0,0-2.6-5.9,14.51,14.51,0,0,1-2.6-4.9A9.65,9.65,0,0,1,170.2,12.8Z"/><path class="cls-1" d="M190.8,12.8a7.81,7.81,0,0,0-2.6-6.5c-3.2-3-7.8-2.7-8.3-2.7V112c.6,5.5,1.2,11,1.9,16.7.8,6.1,1.6,12,2.6,17.8a110.06,110.06,0,0,0-.6,11.9c0,4.8.2,9.4.6,13.5a27.92,27.92,0,0,1,1.3,8.1,25.9,25.9,0,0,1-1.9,9.7c.6,1.1,1.2,2.1,1.9,3.2a63.09,63.09,0,0,0,3.8,5.4,1.79,1.79,0,0,0,1.3,0c.4-.2.6-.4.6-.5s.4.1.6,0a1,1,0,0,0,.6-.5c.1,0,.4.1.6,0a1,1,0,0,0,.6-.5c.1,0,.4.1.6,0a1,1,0,0,0,.6-1.1c.1,0,.4.1.6,0a1,1,0,0,0,.6-1.1,16.3,16.3,0,0,1-3.8-5.4,18.46,18.46,0,0,1-1.3-4.3,141.45,141.45,0,0,0,3.8-21,121.27,121.27,0,0,0,.6-16.7,109.2,109.2,0,0,1,.6-11.3c.7-6.1,1.6-8.2,2.6-12.9a77.11,77.11,0,0,0-.6-30.2c-1.1-4.9-1.6-4.6-2.6-8.6a48.83,48.83,0,0,1,1.9-27.5,211.22,211.22,0,0,0,1.3,21.6c.8,7.1,1.9,13.8,3.2,19.9a27,27,0,0,0,.6,7.6c.5,1.9.9,2.8,1.9,3.2a4.81,4.81,0,0,0,3.8-.5c2.5-1.6,2.1-6.6-.6-12.4a131.9,131.9,0,0,0,0-22.7A110.56,110.56,0,0,0,205,56.7a24.53,24.53,0,0,0-3.2-11.9,28.26,28.26,0,0,0-5.1-6.5c-3.4-1.4-6.8-2.9-10.2-4.3a7.25,7.25,0,0,1-1.3-3.8,7.86,7.86,0,0,1,2.6-5.9,14.51,14.51,0,0,0,2.6-4.9A9.65,9.65,0,0,0,190.8,12.8Z"/></g><g id="Torso"><path d="M45.4,82.8a77.72,77.72,0,0,1,2,13.4,81.14,81.14,0,0,1,0,12.1,312.9,312.9,0,0,1-12.1,35A307.55,307.55,0,0,1,16.5,181a38.4,38.4,0,0,0,13.4,3.4A36.76,36.76,0,0,0,46,181.7a26.6,26.6,0,0,1,8.7,1.4,30.33,30.33,0,0,1,8.1,4,85.77,85.77,0,0,1,12.1-4,91.39,91.39,0,0,1,17.5-2.7,274.46,274.46,0,0,0-6.7-40.3,279.27,279.27,0,0,0-9.4-30.9c.4-9.4.9-18.8,1.3-28.3-3.8-8.5-7.6-17-11.4-25.6a12,12,0,0,1-5.4,1.3,12.66,12.66,0,0,1-6-1.3C51.6,64.4,48.5,73.6,45.4,82.8Z"/></g><g id="Feet"><path d="M45.3,180.3c.2,1.8.5,3.6.7,5.4a11.68,11.68,0,0,1,3.4,2c1,.9,2.2,2,2,2.7-.2.9-3.1,1.6-13.5.7.2-3.6.5-7.2.7-10.8Z"/><path d="M80.3,180.3c.2,1.8.4,3.6.7,5.4a11.68,11.68,0,0,1,3.4,2c1,.9,2.2,2,2,2.7-.2.9-3.1,1.6-13.4.7.2-3.6.4-7.2.7-10.8Z"/></g><g id="Face"><path d="M54.8,56.5a13,13,0,0,0,0-6,13.25,13.25,0,0,0-2.7-5.4,14.74,14.74,0,0,1,0-6.7A16.16,16.16,0,0,1,53.4,35c7.6.5,15.2.9,22.9,1.3a22.43,22.43,0,0,1-9.4,16.2c-.4,1.3-.8,2.5-1.3,3.8-.3.8-.5,1.5-.8,2.3Z"/></g><g id="Mask"><path d="M65.5,51.8A102.72,102.72,0,0,1,83,59.2a92.93,92.93,0,0,1,14.1,9.4A54.47,54.47,0,0,0,77,44.4a4.65,4.65,0,0,0,.7-4,4.48,4.48,0,0,0-3.4-2.7C70,37.4,66.1,50.1,65.5,51.8Z"/></g><g id="Hat"><path d="M44,31c-.1,1.8,7.7,3.8,11.4,4.7,11.3,2.8,26.3,4.5,26.9,2,.2-.7-.8-2-6.1-4.7.9-2.5,1.8-4.9,2.7-7.4a46.08,46.08,0,0,0-12.1-4,50.55,50.55,0,0,0-13.5-.7v7.4C49,28.8,44.1,29.6,44,31Z"/></g><g id="Left_arm" data-name="Left arm"><path d="M55,55.4A75.92,75.92,0,0,0,40.9,66.2a79.6,79.6,0,0,0-20.2,33c-1.1,3.6-2.2,7.2-3.4,10.8a10.78,10.78,0,0,1,6-.7,12.72,12.72,0,0,1,3.4,1.3,71.06,71.06,0,0,1,22.2-31C50.9,71.6,53,63.5,55,55.4Z"/></g><g id="Left_hand" data-name="Left hand"><path d="M21.1,106.1a8.36,8.36,0,0,0-1.6.7,9.59,9.59,0,0,0-2.8,2.2l-.9,1.2a16.25,16.25,0,0,0-1.3,2.7l5.4,5.4a15.15,15.15,0,0,0,2.5-1.3c.5-.4,1-.7,1.5-1.1.4-1,.8-2.1,1.2-3.2s.7-2.2,1-3.2C24.3,108.4,22.7,107.3,21.1,106.1Z"/><path d="M22.2,115.3l-1.5,3.3c-.1.3-.1.7-.2,1.1a9,9,0,0,0,.2,2.5.87.87,0,0,0,.9.6.86.86,0,0,0,.7-.6c0-1.2.1-2.3.1-3.5.4-1,.8-1.9,1.2-2.9A12.13,12.13,0,0,1,22.2,115.3Z"/><path d="M19.8,117.9c-1.1,1.9-2.3,3.8-3.4,5.6a1,1,0,0,1-.8-.2,1.26,1.26,0,0,1-.4-.7l3.9-6C19.3,117.1,19.6,117.5,19.8,117.9Z"/><path d="M18.3,116.2c-1.3,2.2-2.7,4.3-4,6.5-.1,0-.5.2-.8-.1a1.12,1.12,0,0,1-.3-.8c1.5-2.3,3-4.6,4.4-6.9C17.8,115.3,18.1,115.8,18.3,116.2Z"/><path d="M17.3,114.9c-1.3,1.8-2.5,3.6-3.8,5.4a.93.93,0,0,1-.8-.2,1.08,1.08,0,0,1-.3-.7l4.2-5.7A3.46,3.46,0,0,1,17.3,114.9Z"/><path d="M16.3,112.4c-1.4,1.7-2.7,3.5-4,5.2a.93.93,0,0,1-.8-.2,1.08,1.08,0,0,1-.3-.7c1.5-1.8,3-3.7,4.5-5.5A13.39,13.39,0,0,1,16.3,112.4Z"/></g><g id="Eyesocket"><path class="cls-2" d="M73.6,45.1a4.23,4.23,0,0,1-1.3-2.7c-.2-2,1.1-4.1,2-4,1.1.1,2.7,3.4,1.3,5.4A3.3,3.3,0,0,1,73.6,45.1Z"/></g><g id="Stick"><path d="M175,10a1.19,1.19,0,0,1,.8.3,1.26,1.26,0,0,1,.3.9c-16.2,20.4-32.4,40.9-48.6,61.3a4.75,4.75,0,0,1-3.5-2.6C148.35,40.6,174.05,10,175,10Z"/><path class="cls-3" d="M124.45,72.8c.2-.7.5-1.4.7-2.2a1.61,1.61,0,0,0-.5-.4,3.47,3.47,0,0,0-2.8-.2,3.29,3.29,0,0,0-.8-.6,1.72,1.72,0,0,0-.8-.2,1.42,1.42,0,0,0-.7-.8,1.74,1.74,0,0,1-.7-.4c-.1-.1-.1-.1-.2-.1a2.23,2.23,0,0,0-1-.8,3.08,3.08,0,0,0-.8-.1h-.1c-.2.1.4,1.5,3.2,6.2,1.3,1,1.8,1.1,2.1.9s.3-1.2.9-1.3h.3A2.44,2.44,0,0,0,124.45,72.8Z"/><path class="cls-3" d="M125.15,73.3l1.7-1.4a2.38,2.38,0,0,1,.5.4,4.15,4.15,0,0,1,1,2.9,3.29,3.29,0,0,1,.8.6,1.21,1.21,0,0,1,.4.8,1.27,1.27,0,0,1,.9.5,4.72,4.72,0,0,0,.5.7c.1.1.1.1.2.1a4,4,0,0,1,1,.8,2.86,2.86,0,0,1,.3.8v.1c0,.2-1.4,0-6.4-1.4-1.3-1-1.5-1.5-1.5-1.8.1-.5.9-.7.9-1.3a.41.41,0,0,0-.1-.3A6.3,6.3,0,0,0,125.15,73.3Z"/><ellipse class="cls-4" cx="125.83" cy="71.46" rx="2.2" ry="2.3" transform="translate(-13.38 110.98) rotate(-45.44)"/></g><g id="Right_arm" data-name="Right arm"><path d="M65.68,55.18a31.44,31.44,0,0,1,15,9c8.9,9.7,8.2,21.7,8,24,14.3-7.2,25.2-11.3,27-11a9.35,9.35,0,0,1,1.8.4c1.7.5,2.5.7,3,1.3.9,1,.5,2.9.3,3.5-1.2,5-24.6,15.3-28.1,16.8a22.47,22.47,0,0,1-2.7,1.1,13.43,13.43,0,0,1-4.5.5c-4-.5-6.5-5-6.8-5.5-3.1-8.1-6.2-16.8-9-26C68.18,64.38,66.88,59.78,65.68,55.18Z"/></g><g id="Right_hand" data-name="Right hand"><path d="M115.08,77.18c1.5,2.4,3,4.9,4.5,7.3a10,10,0,0,0,2.7-1.7,11.63,11.63,0,0,0,1.9-2.3,3.45,3.45,0,0,0,2.8-1.8,9.4,9.4,0,0,0,2-.6,14.57,14.57,0,0,0,1.7-.9,1.87,1.87,0,0,0,.5-.9,1.57,1.57,0,0,0-1.3-1.4c-.5.1-.9.1-1.4.2a15.34,15.34,0,0,0-2.6.7c1.3-.2,2.7-.4,4.1-.7a1.94,1.94,0,0,0,.1-1.4,2.19,2.19,0,0,0-1.3-1.6,18.11,18.11,0,0,0-2.2.4c-1,.2-2,.5-2.8.7,1.7-.3,3.4-.6,5-.9a2.24,2.24,0,0,0,.1-1.2,2.79,2.79,0,0,0-1.4-1.7,8.1,8.1,0,0,0-2.2,0,7.22,7.22,0,0,0-2.6.8l5.9.6a1.74,1.74,0,0,0,1.2-.5,1.83,1.83,0,0,0,.4-1.1c-.1-.1-.2-.3-.4-.4a3.27,3.27,0,0,0-2.6-.4,2.21,2.21,0,0,0-2.42-2,2,2,0,0,0-.68.18,5.52,5.52,0,0,0-2.7.7,7.65,7.65,0,0,0-2.1,1.6,4.72,4.72,0,0,0-.9.7,4.93,4.93,0,0,0-1.1,3.1C116.58,74.28,115.88,75.68,115.08,77.18Z"/></g></svg>