<svg id="Lag_1" data-name="Lag 1" xmlns="http://www.w3.org/2000/svg" viewBox="0 0 221 199"><defs><style>.cls-1{fill:#878787;}.cls-2{fill:#f68300;}.cls-3{fill:#fff;}.cls-4{fill:#e8991a;}</style></defs><g id="Human_Anatomy" data-name="Human Anatomy"><path class="cls-1" d="M170.2,12.8a7.81,7.81,0,0,1,2.6-6.5c3.2-3,7.8-2.7,8.3-2.7V112c-.6,5.5-1.2,11-1.9,16.7-.8,6.1-1.6,12-2.6,17.8a110,110,0,0,1,.6,11.9c0,4.8-.2,9.4-.6,13.5a27.83,27.83,0,0,0-1.3,8.1,25.79,25.79,0,0,0,1.9,9.7c-.6,1.1-1.2,2.1-1.9,3.2a61.64,61.64,0,0,1-3.8,5.4,1.82,1.82,0,0,1-1.3,0c-.4-.2-.6-.4-.6-.5s-.4.1-.6,0a1,1,0,0,1-.6-.5c-.1,0-.4.1-.6,0a1,1,0,0,1-.6-.5c-.1,0-.4.1-.6,0a1,1,0,0,1-.6-1.1c-.1,0-.4.1-.6,0a1,1,0,0,1-.6-1.1,16.38,16.38,0,0,0,3.8-5.4,18.55,18.55,0,0,0,1.3-4.3,142.24,142.24,0,0,1-3.8-21,122.58,122.58,0,0,1-.6-16.7,106.65,106.65,0,0,0-.6-11.3c-.7-6.1-1.6-8.2-2.6-12.9a77.15,77.15,0,0,1,.6-30.2c1.1-4.9,1.6-4.6,2.6-8.6a48.85,48.85,0,0,0-1.9-27.5,210.59,210.59,0,0,1-1.3,21.6c-.8,7.1-1.9,13.8-3.2,19.9a27,27,0,0,1-.6,7.6c-.5,1.9-.9,2.8-1.9,3.2a4.78,4.78,0,0,1-3.8-.5c-2.5-1.6-2.1-6.6.6-12.4a132.37,132.37,0,0,1,0-22.7A110.89,110.89,0,0,1,156,56.7a24.6,24.6,0,0,1,3.2-11.9,28.38,28.38,0,0,1,5.1-6.5c3.4-1.4,6.8-2.9,10.2-4.3a7.31,7.31,0,0,0,1.3-3.8,7.84,7.84,0,0,0-2.6-5.9,14.46,14.46,0,0,1-2.6-4.9A9.62,9.62,0,0,1,170.2,12.8Z"/><path class="cls-1" d="M190.8,12.8a7.81,7.81,0,0,0-2.6-6.5c-3.2-3-7.8-2.7-8.3-2.7V112c.6,5.5,1.2,11,1.9,16.7.8,6.1,1.6,12,2.6,17.8a110,110,0,0,0-.6,11.9c0,4.8.2,9.4.6,13.5a27.83,27.83,0,0,1,1.3,8.1,25.79,25.79,0,0,1-1.9,9.7c.6,1.1,1.2,2.1,1.9,3.2a61.64,61.64,0,0,0,3.8,5.4,1.82,1.82,0,0,0,1.3,0c.4-.2.6-.4.6-.5s.4.1.6,0a1,1,0,0,0,.6-.5c.1,0,.4.1.6,0a1,1,0,0,0,.6-.5c.1,0,.4.1.6,0a1,1,0,0,0,.6-1.1c.1,0,.4.1.6,0a1,1,0,0,0,.6-1.1,16.38,16.38,0,0,1-3.8-5.4,18.55,18.55,0,0,1-1.3-4.3,142.24,142.24,0,0,0,3.8-21,122.58,122.58,0,0,0,.6-16.7,106.65,106.65,0,0,1,.6-11.3c.7-6.1,1.6-8.2,2.6-12.9a77.15,77.15,0,0,0-.6-30.2c-1.1-4.9-1.6-4.6-2.6-8.6a48.85,48.85,0,0,1,1.9-27.5,210.59,210.59,0,0,0,1.3,21.6c.8,7.1,1.9,13.8,3.2,19.9a27,27,0,0,0,.6,7.6c.5,1.9.9,2.8,1.9,3.2a4.78,4.78,0,0,0,3.8-.5c2.5-1.6,2.1-6.6-.6-12.4a132.37,132.37,0,0,0,0-22.7A110.89,110.89,0,0,0,205,56.7a24.6,24.6,0,0,0-3.2-11.9,28.38,28.38,0,0,0-5.1-6.5c-3.4-1.4-6.8-2.9-10.2-4.3a7.31,7.31,0,0,1-1.3-3.8,7.84,7.84,0,0,1,2.6-5.9,14.46,14.46,0,0,0,2.6-4.9A9.62,9.62,0,0,0,190.8,12.8Z"/></g><g id="Torso"><path d="M45.4,82.8a77.68,77.68,0,0,1,2,13.4,81.45,81.45,0,0,1,0,12.1,313.15,313.15,0,0,1-12.1,35A308,308,0,0,1,16.5,181a38.38,38.38,0,0,0,13.4,3.4A36.68,36.68,0,0,0,46,181.7a26.51,26.51,0,0,1,8.7,1.4,30.43,30.43,0,0,1,8.1,4,85.72,85.72,0,0,1,12.1-4,91.55,91.55,0,0,1,17.5-2.7,274.83,274.83,0,0,0-6.7-40.3,277.79,277.79,0,0,0-9.4-30.9c.4-9.4.9-18.8,1.3-28.3-3.8-8.5-7.6-17-11.4-25.6a12,12,0,0,1-5.4,1.3,12.58,12.58,0,0,1-6-1.3C51.6,64.4,48.5,73.6,45.4,82.8Z"/></g><g id="Feet"><path d="M45.3,180.3c.2,1.8.5,3.6.7,5.4a11.76,11.76,0,0,1,3.4,2c1,.9,2.2,2,2,2.7-.2.9-3.1,1.6-13.5.7.2-3.6.5-7.2.7-10.8Z"/><path d="M80.3,180.3c.2,1.8.4,3.6.7,5.4a11.76,11.76,0,0,1,3.4,2c1,.9,2.2,2,2,2.7-.2.9-3.1,1.6-13.4.7.2-3.6.4-7.2.7-10.8Z"/></g><g id="Face"><path d="M54.8,56.5a12.94,12.94,0,0,0,0-6,13.3,13.3,0,0,0-2.7-5.4,14.86,14.86,0,0,1,0-6.7A15.91,15.91,0,0,1,53.4,35c7.6.5,15.2.9,22.9,1.3a22.42,22.42,0,0,1-9.4,16.2c-.4,1.3-.8,2.5-1.3,3.8-.3.8-.5,1.5-.8,2.3Z"/></g><g id="Mask"><path d="M65.5,51.8A102.73,102.73,0,0,1,83,59.2a92.48,92.48,0,0,1,14.1,9.4A54.44,54.44,0,0,0,77,44.4a4.67,4.67,0,0,0,.7-4,4.46,4.46,0,0,0-3.4-2.7C70,37.4,66.1,50.1,65.5,51.8Z"/></g><g id="Hat"><path d="M44,31c-.1,1.8,7.7,3.8,11.4,4.7,11.3,2.8,26.3,4.5,26.9,2,.2-.7-.8-2-6.1-4.7.9-2.5,1.8-4.9,2.7-7.4a46.12,46.12,0,0,0-12.1-4,50.51,50.51,0,0,0-13.5-.7v7.4C49,28.8,44.1,29.6,44,31Z"/></g><g id="Left_arm" data-name="Left arm"><path d="M55,55.4A75.9,75.9,0,0,0,40.9,66.2a79.7,79.7,0,0,0-20.2,33c-1.1,3.6-2.2,7.2-3.4,10.8a10.81,10.81,0,0,1,6-.7,13,13,0,0,1,3.4,1.3,71.07,71.07,0,0,1,22.2-31C50.9,71.6,53,63.5,55,55.4Z"/></g><g id="Left_hand" data-name="Left hand"><path d="M21.1,106.1a8.44,8.44,0,0,0-1.6.7,9.64,9.64,0,0,0-2.8,2.2l-.9,1.2a16,16,0,0,0-1.3,2.7l5.4,5.4a14.83,14.83,0,0,0,2.5-1.3c.5-.4,1-.7,1.5-1.1.4-1,.8-2.1,1.2-3.2s.7-2.2,1-3.2C24.3,108.4,22.7,107.3,21.1,106.1Z"/><path d="M22.2,115.3l-1.5,3.3c-.1.3-.1.7-.2,1.1a9.13,9.13,0,0,0,.2,2.5.88.88,0,0,0,.9.6.87.87,0,0,0,.7-.6c0-1.2.1-2.3.1-3.5.4-1,.8-1.9,1.2-2.9A11.66,11.66,0,0,1,22.2,115.3Z"/><path d="M19.8,117.9c-1.1,1.9-2.3,3.8-3.4,5.6a1,1,0,0,1-.8-.2,1.21,1.21,0,0,1-.4-.7l3.9-6C19.3,117.1,19.6,117.5,19.8,117.9Z"/><path d="M18.3,116.2c-1.3,2.2-2.7,4.3-4,6.5-.1,0-.5.2-.8-.1a1.12,1.12,0,0,1-.3-.8c1.5-2.3,3-4.6,4.4-6.9C17.8,115.3,18.1,115.8,18.3,116.2Z"/><path d="M17.3,114.9c-1.3,1.8-2.5,3.6-3.8,5.4a.93.93,0,0,1-.8-.2,1.09,1.09,0,0,1-.3-.7l4.2-5.7A3.54,3.54,0,0,1,17.3,114.9Z"/><path d="M16.3,112.4c-1.4,1.7-2.7,3.5-4,5.2a.93.93,0,0,1-.8-.2,1.09,1.09,0,0,1-.3-.7c1.5-1.8,3-3.7,4.5-5.5Q16,111.79,16.3,112.4Z"/></g><g id="Eyesocket"><path class="cls-2" d="M73.6,45.1a4.22,4.22,0,0,1-1.3-2.7c-.2-2,1.1-4.1,2-4,1.1.1,2.7,3.4,1.3,5.4A3.28,3.28,0,0,1,73.6,45.1Z"/></g><g id="Stick"><path d="M205.51,75.84a.88.88,0,0,1,.47.7.93.93,0,0,1-.36.84c-25.72,4.54-51.41,9-77.13,13.53a4.68,4.68,0,0,1-.93-2,4.16,4.16,0,0,1,.12-2.22C165.31,81.06,204.8,75.29,205.51,75.84Z"/><path class="cls-3" d="M126.07,89.22c.68-.38,1.37-.75,2-1.15-.06-.22,0-.41-.08-.63a3.19,3.19,0,0,0-2-2,1.81,1.81,0,0,0-.21-1.06l-.47-.7a1.86,1.86,0,0,0,0-1,1.8,1.8,0,0,1-.36-.78c0-.1-.08-.12-.06-.22a2,2,0,0,0-.19-1.15,1.69,1.69,0,0,0-.59-.63l-.1,0c-.19,0-.67,1.4-1.69,6.71.29,1.68.63,2.05.92,2.11.49.09,1-.62,1.61-.41.09,0,.09,0,.17.14Z"/><path class="cls-3" d="M126.31,90.08l2.22.12a1.41,1.41,0,0,1,.08.63,4,4,0,0,1-1.15,2.83,3,3,0,0,1,.2,1.06,1.35,1.35,0,0,1-.17.88,1,1,0,0,1,.32,1,2.43,2.43,0,0,0,0,.81c0,.09,0,.19.06.21a1.53,1.53,0,0,1,.19,1.16,2.84,2.84,0,0,1-.37.84l0,.1c-.23.16-1-.91-3.86-5.32-.31-1.59-.1-2.16.13-2.32.37-.33,1.1.11,1.61-.4a.33.33,0,0,0,.15-.28A6.33,6.33,0,0,1,126.31,90.08Z"/><ellipse class="cls-4" cx="127.92" cy="89.68" rx="2.2" ry="2.3" transform="matrix(1, -0.06, 0.06, 1, -5.38, 8.22)"/></g><g id="Right_arm" data-name="Right arm"><path d="M65.5,54.68a43.23,43.23,0,0,1,15,9A44.93,44.93,0,0,1,94,88.18c1.28-.05,2.58-.12,3.9-.2a130.61,130.61,0,0,0,19.68-2.83l-1.91,8.39a74.22,74.22,0,0,1-14,5c-6.79,1.66-11.81,2.81-16.13.26a12.5,12.5,0,0,1-4.4-4.7A140.94,140.94,0,0,1,65.5,54.68Z"/></g><g id="Right_hand" data-name="Right hand"><path d="M117.58,85.15l-1.91,8.39a11.2,11.2,0,0,0,3.12.7,13.7,13.7,0,0,0,3-.34,3.25,3.25,0,0,0,3.24.63,6.91,6.91,0,0,0,1.85,1,13.3,13.3,0,0,0,1.83.56,1.32,1.32,0,0,0,1-2.25c-.45-.29-.71-.54-1.16-.83a11.25,11.25,0,0,0-2.4-1.28c1.06.82,2.23,1.65,3.41,2.39a2,2,0,0,0,1.09-.91,2,2,0,0,0,.18-2c-.63-.42-1.16-.83-1.89-1.28s-1.74-1-2.47-1.49c1.44,1,2.88,2,4.24,2.85a3.54,3.54,0,0,0,1-.73,3.37,3.37,0,0,0,.22-2.2,9.62,9.62,0,0,0-1.55-1.52,7.9,7.9,0,0,0-2.4-1.27l3.8,4.6a2.89,2.89,0,0,0,1.22.54c.63-.09,1-.42,1-.62a1.25,1.25,0,0,0,0-.61,3.66,3.66,0,0,0-1.53-2.12,2.35,2.35,0,0,0,.38-2,2.22,2.22,0,0,0-1.34-1.48,6.31,6.31,0,0,0-2.39-1.37,7.28,7.28,0,0,0-2.59-.29,3.66,3.66,0,0,0-1.1-.11,4.75,4.75,0,0,0-2.93,1.47C120.73,84.13,119.21,84.65,117.58,85.15Z"/></g></svg>